M48
; DRILL file {KiCad 9.0.7} date 2026-01-30T17:11:28+0100
; FORMAT={-:-/ absolute / inch / decimal}
; #@! TF.CreationDate,2026-01-30T17:11:28+01:00
; #@! TF.GenerationSoftware,Kicad,Pcbnew,9.0.7
; #@! TF.FileFunction,Plated,1,2,PTH
FMAT,2
INCH
; #@! TA.AperFunction,Plated,PTH,ViaDrill
T1C0.0118
; #@! TA.AperFunction,Plated,PTH,ComponentDrill
T2C0.0236
; #@! TA.AperFunction,Plated,PTH,ComponentDrill
T3C0.0374
; #@! TA.AperFunction,Plated,PTH,ComponentDrill
T4C0.0394
%
G90
G05
T1
X-0.311Y-2.3996
X-0.3091Y-2.7382
X-0.3091Y-2.7923
X-0.3071Y-2.6398
X-0.3012Y-2.1614
X-0.279Y-2.5143
X-0.2677Y-2.878
X-0.2638Y-2.3425
X-0.2402Y-2.6398
X-0.2402Y-2.7402
X-0.2362Y-2.9921
X-0.2185Y-2.437
X-0.2067Y-2.1594
X-0.1949Y-2.7402
X-0.1909Y-2.3287
X-0.1732Y-3.063
X-0.1693Y-2.6752
X-0.1654Y-2.5177
X-0.1378Y-2.5187
X-0.1181Y-2.6358
X-0.0994Y-3.1663
X-0.0984Y-2.437
X-0.0965Y-2.8228
X-0.0945Y-2.9154
X-0.0925Y-2.1535
X-0.0906Y-2.5118
X-0.0866Y-2.6319
X-0.0827Y-2.3248
X-0.0669Y-2.5787
X-0.06Y-3.0049
X-0.0591Y-2.4055
X-0.0472Y-2.5551
X-0.0256Y-2.8947
X-0.0118Y-2.3839
X-0.0016Y-3.0677
X0.0Y-2.1535
X0.0Y-2.3248
X0.0049Y-3.1683
X0.0492Y-2.3957
X0.0571Y-3.0118
X0.0807Y-3.0906
X0.0846Y-2.3484
X0.0965Y-2.31
X0.0984Y-2.1614
X0.1004Y-2.5039
X0.1014Y-3.1683
X0.1289Y-2.376
X0.1725Y-3.0689
X0.185Y-2.3848
X0.1988Y-2.1634
X0.2087Y-3.126
X0.2165Y-2.7598
X0.2411Y-2.3957
X0.2441Y-2.7146
X0.252Y-2.5699
X0.2598Y-2.7638
X0.2717Y-3.126
X0.2756Y-2.8799
X0.2854Y-2.7126
X0.2933Y-2.3425
X0.2972Y-2.187
T3
X-0.2461Y-2.2589
X-0.1476Y-2.2589
X-0.0492Y-2.2589
X0.0492Y-2.2589
X0.1476Y-2.2589
X0.2461Y-2.2589
T4
X-0.25Y-2.0827
X-0.15Y-2.0827
X-0.05Y-2.0827
X0.05Y-2.0827
X0.15Y-2.0827
X0.25Y-2.0827
T2
G00X-0.1701Y-2.9543
M15
G01X-0.1701Y-2.9976
M16
G05
G00X-0.1701Y-3.1248
M15
G01X-0.1701Y-3.1563
M16
G05
G00X0.1701Y-2.9543
M15
G01X0.1701Y-2.9976
M16
G05
G00X0.1701Y-3.1248
M15
G01X0.1701Y-3.1563
M16
G05
M30
