%TF.GenerationSoftware,KiCad,Pcbnew,(6.0.0)*%
%TF.CreationDate,2022-08-06T00:01:37+02:00*%
%TF.ProjectId,bobby-flasher,626f6262-792d-4666-9c61-736865722e6b,rev?*%
%TF.SameCoordinates,Original*%
%TF.FileFunction,Legend,Bot*%
%TF.FilePolarity,Positive*%
%FSLAX46Y46*%
G04 Gerber Fmt 4.6, Leading zero omitted, Abs format (unit mm)*
G04 Created by KiCad (PCBNEW (6.0.0)) date 2022-08-06 00:01:37*
%MOMM*%
%LPD*%
G01*
G04 APERTURE LIST*
G04 Aperture macros list*
%AMRoundRect*
0 Rectangle with rounded corners*
0 $1 Rounding radius*
0 $2 $3 $4 $5 $6 $7 $8 $9 X,Y pos of 4 corners*
0 Add a 4 corners polygon primitive as box body*
4,1,4,$2,$3,$4,$5,$6,$7,$8,$9,$2,$3,0*
0 Add four circle primitives for the rounded corners*
1,1,$1+$1,$2,$3*
1,1,$1+$1,$4,$5*
1,1,$1+$1,$6,$7*
1,1,$1+$1,$8,$9*
0 Add four rect primitives between the rounded corners*
20,1,$1+$1,$2,$3,$4,$5,0*
20,1,$1+$1,$4,$5,$6,$7,0*
20,1,$1+$1,$6,$7,$8,$9,0*
20,1,$1+$1,$8,$9,$2,$3,0*%
G04 Aperture macros list end*
%ADD10C,0.300000*%
%ADD11C,0.150000*%
%ADD12R,1.700000X1.700000*%
%ADD13O,1.700000X1.700000*%
%ADD14C,0.650000*%
%ADD15O,1.000000X2.100000*%
%ADD16O,1.000000X1.800000*%
%ADD17RoundRect,0.250000X-0.600000X-0.725000X0.600000X-0.725000X0.600000X0.725000X-0.600000X0.725000X0*%
%ADD18O,1.700000X1.950000*%
%ADD19R,1.700000X3.000000*%
%ADD20C,0.500000*%
G04 APERTURE END LIST*
D10*
X6658928Y-60237857D02*
X6658928Y-60952142D01*
X5944642Y-61023571D01*
X6016071Y-60952142D01*
X6087500Y-60809285D01*
X6087500Y-60452142D01*
X6016071Y-60309285D01*
X5944642Y-60237857D01*
X5801785Y-60166428D01*
X5444642Y-60166428D01*
X5301785Y-60237857D01*
X5230357Y-60309285D01*
X5158928Y-60452142D01*
X5158928Y-60809285D01*
X5230357Y-60952142D01*
X5301785Y-61023571D01*
X6658928Y-59737857D02*
X5158928Y-59237857D01*
X6658928Y-58737857D01*
X2743928Y-61952142D02*
X4243928Y-61952142D01*
X4243928Y-60952142D02*
X4243928Y-60666428D01*
X4172499Y-60523571D01*
X4029642Y-60380714D01*
X3743928Y-60309285D01*
X3243928Y-60309285D01*
X2958214Y-60380714D01*
X2815357Y-60523571D01*
X2743928Y-60666428D01*
X2743928Y-60952142D01*
X2815357Y-61095000D01*
X2958214Y-61237857D01*
X3243928Y-61309285D01*
X3743928Y-61309285D01*
X4029642Y-61237857D01*
X4172499Y-61095000D01*
X4243928Y-60952142D01*
X4243928Y-59380714D02*
X4243928Y-59237857D01*
X4172500Y-59095000D01*
X4101071Y-59023571D01*
X3958214Y-58952142D01*
X3672500Y-58880714D01*
X3315357Y-58880714D01*
X3029642Y-58952142D01*
X2886785Y-59023571D01*
X2815357Y-59095000D01*
X2743928Y-59237857D01*
X2743928Y-59380714D01*
X2815357Y-59523571D01*
X2886785Y-59595000D01*
X3029642Y-59666428D01*
X3315357Y-59737857D01*
X3672500Y-59737857D01*
X3958214Y-59666428D01*
X4101071Y-59595000D01*
X4172500Y-59523571D01*
X4243928Y-59380714D01*
X1114642Y-61166428D02*
X1114642Y-60666428D01*
X328928Y-60452142D02*
X328928Y-61166428D01*
X1828928Y-61166428D01*
X1828928Y-60452142D01*
X328928Y-59809285D02*
X1828928Y-59809285D01*
X328928Y-58952142D01*
X1828928Y-58952142D01*
X-586071Y-61023571D02*
X-586071Y-60166428D01*
X-2086071Y-60595000D02*
X-586071Y-60595000D01*
X-586071Y-59809285D02*
X-2086071Y-58809285D01*
X-586071Y-58809285D02*
X-2086071Y-59809285D01*
X-4501071Y-60309285D02*
X-3786785Y-60809285D01*
X-4501071Y-61166428D02*
X-3001071Y-61166428D01*
X-3001071Y-60595000D01*
X-3072500Y-60452142D01*
X-3143928Y-60380714D01*
X-3286785Y-60309285D01*
X-3501071Y-60309285D01*
X-3643928Y-60380714D01*
X-3715357Y-60452142D01*
X-3786785Y-60595000D01*
X-3786785Y-61166428D01*
X-3001071Y-59809285D02*
X-4501071Y-58809285D01*
X-3001071Y-58809285D02*
X-4501071Y-59809285D01*
X-5487500Y-62023571D02*
X-5416071Y-62166428D01*
X-5416071Y-62380714D01*
X-5487500Y-62595000D01*
X-5630357Y-62737857D01*
X-5773214Y-62809285D01*
X-6058928Y-62880714D01*
X-6273214Y-62880714D01*
X-6558928Y-62809285D01*
X-6701785Y-62737857D01*
X-6844642Y-62595000D01*
X-6916071Y-62380714D01*
X-6916071Y-62237857D01*
X-6844642Y-62023571D01*
X-6773214Y-61952142D01*
X-6273214Y-61952142D01*
X-6273214Y-62237857D01*
X-6916071Y-61309285D02*
X-5416071Y-61309285D01*
X-6916071Y-60452142D01*
X-5416071Y-60452142D01*
X-6916071Y-59737857D02*
X-5416071Y-59737857D01*
X-5416071Y-59380714D01*
X-5487500Y-59166428D01*
X-5630357Y-59023571D01*
X-5773214Y-58952142D01*
X-6058928Y-58880714D01*
X-6273214Y-58880714D01*
X-6558928Y-58952142D01*
X-6701785Y-59023571D01*
X-6844642Y-59166428D01*
X-6916071Y-59380714D01*
X-6916071Y-59737857D01*
X2836428Y-74333571D02*
X2836428Y-75047857D01*
X2122142Y-75119285D01*
X2193571Y-75047857D01*
X2265000Y-74905000D01*
X2265000Y-74547857D01*
X2193571Y-74405000D01*
X2122142Y-74333571D01*
X1979285Y-74262142D01*
X1622142Y-74262142D01*
X1479285Y-74333571D01*
X1407857Y-74405000D01*
X1336428Y-74547857D01*
X1336428Y-74905000D01*
X1407857Y-75047857D01*
X1479285Y-75119285D01*
X2836428Y-73833571D02*
X1336428Y-73333571D01*
X2836428Y-72833571D01*
X350000Y-74262142D02*
X421428Y-74405000D01*
X421428Y-74619285D01*
X350000Y-74833571D01*
X207142Y-74976428D01*
X64285Y-75047857D01*
X-221428Y-75119285D01*
X-435714Y-75119285D01*
X-721428Y-75047857D01*
X-864285Y-74976428D01*
X-1007142Y-74833571D01*
X-1078571Y-74619285D01*
X-1078571Y-74476428D01*
X-1007142Y-74262142D01*
X-935714Y-74190714D01*
X-435714Y-74190714D01*
X-435714Y-74476428D01*
X-1078571Y-73547857D02*
X421428Y-73547857D01*
X-1078571Y-72690714D01*
X421428Y-72690714D01*
X-1078571Y-71976428D02*
X421428Y-71976428D01*
X421428Y-71619285D01*
X350000Y-71405000D01*
X207142Y-71262142D01*
X64285Y-71190714D01*
X-221428Y-71119285D01*
X-435714Y-71119285D01*
X-721428Y-71190714D01*
X-864285Y-71262142D01*
X-1007142Y-71405000D01*
X-1078571Y-71619285D01*
X-1078571Y-71976428D01*
X-1993571Y-75190714D02*
X-1993571Y-74262142D01*
X-2565000Y-74762142D01*
X-2565000Y-74547857D01*
X-2636428Y-74405000D01*
X-2707857Y-74333571D01*
X-2850714Y-74262142D01*
X-3207857Y-74262142D01*
X-3350714Y-74333571D01*
X-3422142Y-74405000D01*
X-3493571Y-74547857D01*
X-3493571Y-74976428D01*
X-3422142Y-75119285D01*
X-3350714Y-75190714D01*
X-1993571Y-73833571D02*
X-3493571Y-73333571D01*
X-1993571Y-72833571D01*
X-1993571Y-72476428D02*
X-1993571Y-71547857D01*
X-2564999Y-72047857D01*
X-2564999Y-71833571D01*
X-2636428Y-71690714D01*
X-2707857Y-71619285D01*
X-2850714Y-71547857D01*
X-3207857Y-71547857D01*
X-3350714Y-71619285D01*
X-3422142Y-71690714D01*
X-3493571Y-71833571D01*
X-3493571Y-72262142D01*
X-3422142Y-72405000D01*
X-3350714Y-72476428D01*
D11*
X-2542857Y-64635833D02*
X-2542857Y-64402500D01*
X-2961904Y-64302500D02*
X-2961904Y-64635833D01*
X-2161904Y-64635833D01*
X-2161904Y-64302500D01*
X-2923809Y-64035833D02*
X-2961904Y-63935833D01*
X-2961904Y-63769166D01*
X-2923809Y-63702500D01*
X-2885714Y-63669166D01*
X-2809523Y-63635833D01*
X-2733333Y-63635833D01*
X-2657142Y-63669166D01*
X-2619047Y-63702500D01*
X-2580952Y-63769166D01*
X-2542857Y-63902500D01*
X-2504761Y-63969166D01*
X-2466666Y-64002500D01*
X-2390476Y-64035833D01*
X-2314285Y-64035833D01*
X-2238095Y-64002500D01*
X-2200000Y-63969166D01*
X-2161904Y-63902500D01*
X-2161904Y-63735833D01*
X-2200000Y-63635833D01*
X-2961904Y-63335833D02*
X-2161904Y-63335833D01*
X-2161904Y-63069166D01*
X-2199999Y-63002500D01*
X-2238095Y-62969166D01*
X-2314285Y-62935833D01*
X-2428571Y-62935833D01*
X-2504761Y-62969166D01*
X-2542857Y-63002500D01*
X-2580952Y-63069166D01*
X-2580952Y-63335833D01*
X-2161904Y-62702500D02*
X-2161904Y-62269166D01*
X-2466666Y-62502500D01*
X-2466666Y-62402500D01*
X-2504761Y-62335833D01*
X-2542857Y-62302500D01*
X-2619047Y-62269166D01*
X-2809523Y-62269166D01*
X-2885714Y-62302500D01*
X-2923809Y-62335833D01*
X-2961904Y-62402500D01*
X-2961904Y-62602500D01*
X-2923809Y-62669166D01*
X-2885714Y-62702500D01*
X-2238095Y-62002500D02*
X-2199999Y-61969166D01*
X-2161904Y-61902500D01*
X-2161904Y-61735833D01*
X-2199999Y-61669166D01*
X-2238095Y-61635833D01*
X-2314285Y-61602500D01*
X-2390476Y-61602500D01*
X-2504761Y-61635833D01*
X-2961904Y-62035833D01*
X-2961904Y-61602500D01*
%LPC*%
D12*
%TO.C,J2*%
X-6350000Y-52900000D03*
D13*
X-3810000Y-52900000D03*
X-1270000Y-52900000D03*
X1270000Y-52900000D03*
X3810000Y-52900000D03*
X6350000Y-52900000D03*
%TD*%
D14*
%TO.C,USBC1*%
X-2890000Y-76090000D03*
X2890000Y-76090000D03*
D15*
X-4320000Y-75590000D03*
D16*
X-4320000Y-79770000D03*
X4320000Y-79770000D03*
D15*
X4320000Y-75590000D03*
%TD*%
D17*
%TO.C,J3*%
X-6250000Y-57375000D03*
D18*
X-3750000Y-57375000D03*
X-1250000Y-57375000D03*
X1250000Y-57375000D03*
X3750000Y-57375000D03*
X6250000Y-57375000D03*
%TD*%
D19*
%TO.C,J1*%
X2400000Y-69200000D03*
X-140000Y-69200000D03*
X-2680000Y-69200000D03*
%TD*%
D20*
X4100000Y-68300000D03*
X3400000Y-65400000D03*
X6900000Y-62900000D03*
X4700000Y-63900000D03*
X4400000Y-60600000D03*
X-1574579Y-61574579D03*
X1250000Y-60850000D03*
X-6100000Y-67050000D03*
X2500000Y-54900000D03*
X-5550000Y-61900000D03*
X-7800000Y-67050000D03*
X-2500000Y-61900000D03*
X-6000000Y-76000000D03*
X-4300000Y-67950000D03*
X0Y-54700000D03*
X-2250000Y-78000000D03*
X7450000Y-59500000D03*
X2050000Y-78500000D03*
X-2450000Y-71700000D03*
X-7850000Y-69550000D03*
X-3225000Y-63975000D03*
X-5250000Y-54850000D03*
X-6700000Y-59500000D03*
X-3000000Y-66950000D03*
X7550000Y-55550000D03*
X-300000Y-60550000D03*
X-6100000Y-69600000D03*
X-2100000Y-59050000D03*
X-2200000Y-66850000D03*
X-4850000Y-59150000D03*
X5050000Y-54950000D03*
X-7900000Y-60950000D03*
X-7650000Y-54900000D03*
X-2350000Y-54700000D03*
X1450000Y-76500000D03*
X-6800000Y-73100000D03*
X6600000Y-70200000D03*
X-400000Y-65500000D03*
X-7087500Y-63862500D03*
X-2400000Y-74050000D03*
X7250000Y-68900000D03*
X-4950000Y-69600000D03*
X400000Y-64400000D03*
X-4000000Y-63950000D03*
X5300000Y-79400000D03*
X-4050000Y-66750000D03*
X7000000Y-73150000D03*
X6900000Y-79400000D03*
X5500000Y-70100000D03*
X2150000Y-59650000D03*
X2550000Y-63600000D03*
X6575000Y-65325000D03*
X6200000Y-68950000D03*
M02*
