%TF.GenerationSoftware,KiCad,Pcbnew,(6.0.0)*%
%TF.CreationDate,2022-08-06T00:01:37+02:00*%
%TF.ProjectId,bobby-flasher,626f6262-792d-4666-9c61-736865722e6b,rev?*%
%TF.SameCoordinates,Original*%
%TF.FileFunction,Legend,Top*%
%TF.FilePolarity,Positive*%
%FSLAX46Y46*%
G04 Gerber Fmt 4.6, Leading zero omitted, Abs format (unit mm)*
G04 Created by KiCad (PCBNEW (6.0.0)) date 2022-08-06 00:01:37*
%MOMM*%
%LPD*%
G01*
G04 APERTURE LIST*
G04 Aperture macros list*
%AMRoundRect*
0 Rectangle with rounded corners*
0 $1 Rounding radius*
0 $2 $3 $4 $5 $6 $7 $8 $9 X,Y pos of 4 corners*
0 Add a 4 corners polygon primitive as box body*
4,1,4,$2,$3,$4,$5,$6,$7,$8,$9,$2,$3,0*
0 Add four circle primitives for the rounded corners*
1,1,$1+$1,$2,$3*
1,1,$1+$1,$4,$5*
1,1,$1+$1,$6,$7*
1,1,$1+$1,$8,$9*
0 Add four rect primitives between the rounded corners*
20,1,$1+$1,$2,$3,$4,$5,0*
20,1,$1+$1,$4,$5,$6,$7,0*
20,1,$1+$1,$6,$7,$8,$9,0*
20,1,$1+$1,$8,$9,$2,$3,0*%
G04 Aperture macros list end*
%ADD10C,0.200000*%
%ADD11C,0.150000*%
%ADD12C,0.120000*%
%ADD13C,0.250000*%
%ADD14RoundRect,0.150000X-0.150000X0.587500X-0.150000X-0.587500X0.150000X-0.587500X0.150000X0.587500X0*%
%ADD15RoundRect,0.225000X0.225000X0.250000X-0.225000X0.250000X-0.225000X-0.250000X0.225000X-0.250000X0*%
%ADD16RoundRect,0.135000X-0.185000X0.135000X-0.185000X-0.135000X0.185000X-0.135000X0.185000X0.135000X0*%
%ADD17R,1.500000X2.000000*%
%ADD18R,3.800000X2.000000*%
%ADD19RoundRect,0.140000X-0.140000X-0.170000X0.140000X-0.170000X0.140000X0.170000X-0.140000X0.170000X0*%
%ADD20RoundRect,0.150000X0.150000X-0.825000X0.150000X0.825000X-0.150000X0.825000X-0.150000X-0.825000X0*%
%ADD21RoundRect,0.218750X0.256250X-0.218750X0.256250X0.218750X-0.256250X0.218750X-0.256250X-0.218750X0*%
%ADD22RoundRect,0.225000X-0.225000X-0.250000X0.225000X-0.250000X0.225000X0.250000X-0.225000X0.250000X0*%
%ADD23RoundRect,0.135000X0.135000X0.185000X-0.135000X0.185000X-0.135000X-0.185000X0.135000X-0.185000X0*%
%ADD24R,1.700000X1.700000*%
%ADD25O,1.700000X1.700000*%
%ADD26C,0.650000*%
%ADD27O,1.000000X2.100000*%
%ADD28O,1.000000X1.800000*%
%ADD29R,0.600000X1.150000*%
%ADD30R,0.300000X1.150000*%
%ADD31RoundRect,0.140000X-0.170000X0.140000X-0.170000X-0.140000X0.170000X-0.140000X0.170000X0.140000X0*%
%ADD32RoundRect,0.250000X-0.600000X-0.725000X0.600000X-0.725000X0.600000X0.725000X-0.600000X0.725000X0*%
%ADD33O,1.700000X1.950000*%
%ADD34RoundRect,0.140000X0.140000X0.170000X-0.140000X0.170000X-0.140000X-0.170000X0.140000X-0.170000X0*%
%ADD35RoundRect,0.135000X-0.135000X-0.185000X0.135000X-0.185000X0.135000X0.185000X-0.135000X0.185000X0*%
%ADD36C,0.500000*%
G04 APERTURE END LIST*
D10*
X-7982095Y-77655714D02*
X-7982095Y-77160476D01*
X-7677333Y-77427142D01*
X-7677333Y-77312857D01*
X-7639238Y-77236666D01*
X-7601142Y-77198571D01*
X-7524952Y-77160476D01*
X-7334476Y-77160476D01*
X-7258285Y-77198571D01*
X-7220190Y-77236666D01*
X-7182095Y-77312857D01*
X-7182095Y-77541428D01*
X-7220190Y-77617619D01*
X-7258285Y-77655714D01*
X-7982095Y-76931904D02*
X-7182095Y-76665238D01*
X-7982095Y-76398571D01*
X-7982095Y-76208095D02*
X-7982095Y-75712857D01*
X-7677333Y-75979523D01*
X-7677333Y-75865238D01*
X-7639238Y-75789047D01*
X-7601142Y-75750952D01*
X-7524952Y-75712857D01*
X-7334476Y-75712857D01*
X-7258285Y-75750952D01*
X-7220190Y-75789047D01*
X-7182095Y-75865238D01*
X-7182095Y-76093809D01*
X-7220190Y-76170000D01*
X-7258285Y-76208095D01*
X-6694095Y-77198571D02*
X-6694095Y-77579523D01*
X-6313142Y-77617619D01*
X-6351238Y-77579523D01*
X-6389333Y-77503333D01*
X-6389333Y-77312857D01*
X-6351238Y-77236666D01*
X-6313142Y-77198571D01*
X-6236952Y-77160476D01*
X-6046476Y-77160476D01*
X-5970285Y-77198571D01*
X-5932190Y-77236666D01*
X-5894095Y-77312857D01*
X-5894095Y-77503333D01*
X-5932190Y-77579523D01*
X-5970285Y-77617619D01*
X-6694095Y-76931904D02*
X-5894095Y-76665238D01*
X-6694095Y-76398571D01*
X6717904Y-77222380D02*
X6336952Y-77489047D01*
X6717904Y-77679523D02*
X5917904Y-77679523D01*
X5917904Y-77374761D01*
X5956000Y-77298571D01*
X5994095Y-77260476D01*
X6070285Y-77222380D01*
X6184571Y-77222380D01*
X6260761Y-77260476D01*
X6298857Y-77298571D01*
X6336952Y-77374761D01*
X6336952Y-77679523D01*
X5917904Y-76955714D02*
X6717904Y-76422380D01*
X5917904Y-76422380D02*
X6717904Y-76955714D01*
X7205904Y-77793809D02*
X7205904Y-77336666D01*
X8005904Y-77565238D02*
X7205904Y-77565238D01*
X7205904Y-77146190D02*
X8005904Y-76612857D01*
X7205904Y-76612857D02*
X8005904Y-77146190D01*
D11*
X5464166Y-75742857D02*
X5697500Y-75742857D01*
X5797500Y-76161904D02*
X5464166Y-76161904D01*
X5464166Y-75361904D01*
X5797500Y-75361904D01*
X6064166Y-76123809D02*
X6164166Y-76161904D01*
X6330833Y-76161904D01*
X6397500Y-76123809D01*
X6430833Y-76085714D01*
X6464166Y-76009523D01*
X6464166Y-75933333D01*
X6430833Y-75857142D01*
X6397500Y-75819047D01*
X6330833Y-75780952D01*
X6197500Y-75742857D01*
X6130833Y-75704761D01*
X6097500Y-75666666D01*
X6064166Y-75590476D01*
X6064166Y-75514285D01*
X6097500Y-75438095D01*
X6130833Y-75400000D01*
X6197500Y-75361904D01*
X6364166Y-75361904D01*
X6464166Y-75400000D01*
X6764166Y-76161904D02*
X6764166Y-75361904D01*
X7030833Y-75361904D01*
X7097500Y-75400000D01*
X7130833Y-75438095D01*
X7164166Y-75514285D01*
X7164166Y-75628571D01*
X7130833Y-75704761D01*
X7097500Y-75742857D01*
X7030833Y-75780952D01*
X6764166Y-75780952D01*
X7397500Y-75361904D02*
X7830833Y-75361904D01*
X7597500Y-75666666D01*
X7697500Y-75666666D01*
X7764166Y-75704761D01*
X7797500Y-75742857D01*
X7830833Y-75819047D01*
X7830833Y-76009523D01*
X7797500Y-76085714D01*
X7764166Y-76123809D01*
X7697500Y-76161904D01*
X7497500Y-76161904D01*
X7430833Y-76123809D01*
X7397500Y-76085714D01*
X8097500Y-75438095D02*
X8130833Y-75400000D01*
X8197500Y-75361904D01*
X8364166Y-75361904D01*
X8430833Y-75400000D01*
X8464166Y-75438095D01*
X8497500Y-75514285D01*
X8497500Y-75590476D01*
X8464166Y-75704761D01*
X8064166Y-76161904D01*
X8497500Y-76161904D01*
D12*
%TO.C,Q2*%
X5340000Y-63200000D02*
X5340000Y-63850000D01*
X5340000Y-63200000D02*
X5340000Y-62550000D01*
X8460000Y-63200000D02*
X8460000Y-63850000D01*
X8460000Y-63200000D02*
X8460000Y-61525000D01*
%TO.C,Q1*%
X1940000Y-63200000D02*
X1940000Y-63850000D01*
X1940000Y-63200000D02*
X1940000Y-62550000D01*
X5060000Y-63200000D02*
X5060000Y-63850000D01*
X5060000Y-63200000D02*
X5060000Y-61525000D01*
%TO.C,C8*%
X340580Y-62610000D02*
X59420Y-62610000D01*
X340580Y-61590000D02*
X59420Y-61590000D01*
%TO.C,R6*%
X-6620000Y-74046359D02*
X-6620000Y-74353641D01*
X-7380000Y-74046359D02*
X-7380000Y-74353641D01*
%TO.C,R2*%
X6620000Y-74046359D02*
X6620000Y-74353641D01*
X7380000Y-74046359D02*
X7380000Y-74353641D01*
%TO.C,U2*%
X-8610000Y-66650000D02*
X-8610000Y-70410000D01*
X-1790000Y-64400000D02*
X-1790000Y-70410000D01*
X-1790000Y-70410000D02*
X-3050000Y-70410000D01*
X-8610000Y-70410000D02*
X-7350000Y-70410000D01*
%TO.C,C3*%
X3542164Y-73240000D02*
X3757836Y-73240000D01*
X3542164Y-73960000D02*
X3757836Y-73960000D01*
%TO.C,U1*%
X8460000Y-69200000D02*
X8460000Y-71150000D01*
X8460000Y-69200000D02*
X8460000Y-67250000D01*
X-1660000Y-69200000D02*
X-1660000Y-67250000D01*
X-1660000Y-69200000D02*
X-1660000Y-72650000D01*
%TO.C,R8*%
X6380000Y-74046359D02*
X6380000Y-74353641D01*
X5620000Y-74046359D02*
X5620000Y-74353641D01*
%TO.C,D3*%
X5365000Y-78587500D02*
X5365000Y-80872500D01*
X6835000Y-80872500D02*
X6835000Y-78587500D01*
X5365000Y-80872500D02*
X6835000Y-80872500D01*
%TO.C,C2*%
X-7240580Y-62590000D02*
X-6959420Y-62590000D01*
X-7240580Y-63610000D02*
X-6959420Y-63610000D01*
%TO.C,R3*%
X1903641Y-73220000D02*
X1596359Y-73220000D01*
X1903641Y-73980000D02*
X1596359Y-73980000D01*
%TO.C,C1*%
X-7207836Y-62160000D02*
X-6992164Y-62160000D01*
X-7207836Y-61440000D02*
X-6992164Y-61440000D01*
%TO.C,C5*%
X-4140580Y-62590000D02*
X-3859420Y-62590000D01*
X-4140580Y-63610000D02*
X-3859420Y-63610000D01*
%TO.C,J2*%
X-6350000Y-54230000D02*
X-7680000Y-54230000D01*
X-7680000Y-54230000D02*
X-7680000Y-52900000D01*
X-5080000Y-51570000D02*
X7680000Y-51570000D01*
X7680000Y-54230000D02*
X7680000Y-51570000D01*
X-5080000Y-54230000D02*
X-5080000Y-51570000D01*
X-5080000Y-54230000D02*
X7680000Y-54230000D01*
%TO.C,D1*%
X-6835000Y-80885000D02*
X-5365000Y-80885000D01*
X-5365000Y-80885000D02*
X-5365000Y-78600000D01*
X-6835000Y-78600000D02*
X-6835000Y-80885000D01*
%TO.C,R9*%
X8380000Y-74046359D02*
X8380000Y-74353641D01*
X7620000Y-74046359D02*
X7620000Y-74353641D01*
D13*
%TO.C,USBC1*%
X-4570000Y-76950000D02*
X-4570000Y-78600000D01*
X-4570000Y-82480000D02*
X4570000Y-82480000D01*
X4570000Y-82480000D02*
X4570000Y-80950000D01*
X4570000Y-76950000D02*
X4570000Y-78600000D01*
X-4570000Y-80950000D02*
X-4570000Y-82480000D01*
D12*
%TO.C,R5*%
X5363641Y-65180000D02*
X5056359Y-65180000D01*
X5363641Y-64420000D02*
X5056359Y-64420000D01*
%TO.C,C4*%
X-1540000Y-62992164D02*
X-1540000Y-63207836D01*
X-2260000Y-62992164D02*
X-2260000Y-63207836D01*
%TO.C,D2*%
X-6965000Y-80885000D02*
X-6965000Y-78600000D01*
X-8435000Y-80885000D02*
X-6965000Y-80885000D01*
X-8435000Y-78600000D02*
X-8435000Y-80885000D01*
%TO.C,J3*%
X-5500000Y-54925000D02*
X-5500000Y-55675000D01*
X7000000Y-55675000D02*
X8800000Y-55675000D01*
X-8800000Y-54925000D02*
X-8800000Y-55675000D01*
X-7000000Y-55675000D02*
X-7000000Y-54925000D01*
X-7000000Y-54925000D02*
X-8800000Y-54925000D01*
X-8800000Y-55675000D02*
X-7000000Y-55675000D01*
X5500000Y-54925000D02*
X-5500000Y-54925000D01*
X8810000Y-54915000D02*
X-8810000Y-54915000D01*
X8800000Y-55675000D02*
X8800000Y-54925000D01*
X8810000Y-60885000D02*
X8810000Y-54915000D01*
X5500000Y-55675000D02*
X5500000Y-54925000D01*
X-8800000Y-57175000D02*
X-8050000Y-57175000D01*
X8800000Y-57175000D02*
X8050000Y-57175000D01*
X-8810000Y-54915000D02*
X-8810000Y-60885000D01*
X-9100000Y-54625000D02*
X-9100000Y-55875000D01*
X-8050000Y-60125000D02*
X0Y-60125000D01*
X8050000Y-57175000D02*
X8050000Y-60125000D01*
X8800000Y-54925000D02*
X7000000Y-54925000D01*
X7000000Y-54925000D02*
X7000000Y-55675000D01*
X-5500000Y-55675000D02*
X5500000Y-55675000D01*
X8050000Y-60125000D02*
X0Y-60125000D01*
X-8050000Y-57175000D02*
X-8050000Y-60125000D01*
X-8810000Y-60885000D02*
X8810000Y-60885000D01*
X-7850000Y-54625000D02*
X-9100000Y-54625000D01*
%TO.C,C7*%
X59420Y-63090000D02*
X340580Y-63090000D01*
X59420Y-64110000D02*
X340580Y-64110000D01*
%TO.C,C6*%
X-3892164Y-62160000D02*
X-4107836Y-62160000D01*
X-3892164Y-61440000D02*
X-4107836Y-61440000D01*
%TO.C,R4*%
X1646359Y-64420000D02*
X1953641Y-64420000D01*
X1646359Y-65180000D02*
X1953641Y-65180000D01*
%TO.C,D4*%
X6965000Y-80885000D02*
X8435000Y-80885000D01*
X8435000Y-80885000D02*
X8435000Y-78600000D01*
X6965000Y-78600000D02*
X6965000Y-80885000D01*
%TO.C,R7*%
X-7620000Y-74046359D02*
X-7620000Y-74353641D01*
X-8380000Y-74046359D02*
X-8380000Y-74353641D01*
%TO.C,R1*%
X-5620000Y-74046359D02*
X-5620000Y-74353641D01*
X-6380000Y-74046359D02*
X-6380000Y-74353641D01*
%TD*%
%LPC*%
D14*
%TO.C,Q2*%
X7850000Y-62262500D03*
X5950000Y-62262500D03*
X6900000Y-64137500D03*
%TD*%
%TO.C,Q1*%
X4450000Y-62262500D03*
X2550000Y-62262500D03*
X3500000Y-64137500D03*
%TD*%
D15*
%TO.C,C8*%
X975000Y-62100000D03*
X-575000Y-62100000D03*
%TD*%
D16*
%TO.C,R6*%
X-7000000Y-73690000D03*
X-7000000Y-74710000D03*
%TD*%
%TO.C,R2*%
X7000000Y-73690000D03*
X7000000Y-74710000D03*
%TD*%
D17*
%TO.C,U2*%
X-2900000Y-65350000D03*
X-5200000Y-65350000D03*
D18*
X-5200000Y-71650000D03*
D17*
X-7500000Y-65350000D03*
%TD*%
D19*
%TO.C,C3*%
X3170000Y-73600000D03*
X4130000Y-73600000D03*
%TD*%
D20*
%TO.C,U1*%
X-1045000Y-71675000D03*
X225000Y-71675000D03*
X1495000Y-71675000D03*
X2765000Y-71675000D03*
X4035000Y-71675000D03*
X5305000Y-71675000D03*
X6575000Y-71675000D03*
X7845000Y-71675000D03*
X7845000Y-66725000D03*
X6575000Y-66725000D03*
X5305000Y-66725000D03*
X4035000Y-66725000D03*
X2765000Y-66725000D03*
X1495000Y-66725000D03*
X225000Y-66725000D03*
X-1045000Y-66725000D03*
%TD*%
D16*
%TO.C,R8*%
X6000000Y-73690000D03*
X6000000Y-74710000D03*
%TD*%
D21*
%TO.C,D3*%
X6100000Y-80175000D03*
X6100000Y-78600000D03*
%TD*%
D22*
%TO.C,C2*%
X-7875000Y-63100000D03*
X-6325000Y-63100000D03*
%TD*%
D23*
%TO.C,R3*%
X2260000Y-73600000D03*
X1240000Y-73600000D03*
%TD*%
D19*
%TO.C,C1*%
X-7580000Y-61800000D03*
X-6620000Y-61800000D03*
%TD*%
D22*
%TO.C,C5*%
X-4775000Y-63100000D03*
X-3225000Y-63100000D03*
%TD*%
D24*
%TO.C,J2*%
X-6350000Y-52900000D03*
D25*
X-3810000Y-52900000D03*
X-1270000Y-52900000D03*
X1270000Y-52900000D03*
X3810000Y-52900000D03*
X6350000Y-52900000D03*
%TD*%
D21*
%TO.C,D1*%
X-6100000Y-80187500D03*
X-6100000Y-78612500D03*
%TD*%
D16*
%TO.C,R9*%
X8000000Y-73690000D03*
X8000000Y-74710000D03*
%TD*%
D26*
%TO.C,USBC1*%
X-2890000Y-76090000D03*
X2890000Y-76090000D03*
D27*
X-4320000Y-75590000D03*
D28*
X-4320000Y-79770000D03*
X4320000Y-79770000D03*
D27*
X4320000Y-75590000D03*
D29*
X-3200000Y-75030000D03*
X-2400000Y-75030000D03*
D30*
X-1250000Y-75030000D03*
X-250000Y-75030000D03*
X250000Y-75030000D03*
X1250000Y-75030000D03*
D29*
X3200000Y-75030000D03*
X2400000Y-75030000D03*
D30*
X1750000Y-75030000D03*
X750000Y-75030000D03*
X-750000Y-75030000D03*
X-1750000Y-75030000D03*
%TD*%
D23*
%TO.C,R5*%
X5720000Y-64800000D03*
X4700000Y-64800000D03*
%TD*%
D31*
%TO.C,C4*%
X-1900000Y-62620000D03*
X-1900000Y-63580000D03*
%TD*%
D21*
%TO.C,D2*%
X-7700000Y-80187500D03*
X-7700000Y-78612500D03*
%TD*%
D32*
%TO.C,J3*%
X-6250000Y-57375000D03*
D33*
X-3750000Y-57375000D03*
X-1250000Y-57375000D03*
X1250000Y-57375000D03*
X3750000Y-57375000D03*
X6250000Y-57375000D03*
%TD*%
D22*
%TO.C,C7*%
X975000Y-63600000D03*
X-575000Y-63600000D03*
%TD*%
D34*
%TO.C,C6*%
X-3520000Y-61800000D03*
X-4480000Y-61800000D03*
%TD*%
D35*
%TO.C,R4*%
X1290000Y-64800000D03*
X2310000Y-64800000D03*
%TD*%
D21*
%TO.C,D4*%
X7700000Y-80187500D03*
X7700000Y-78612500D03*
%TD*%
D16*
%TO.C,R7*%
X-8000000Y-73690000D03*
X-8000000Y-74710000D03*
%TD*%
%TO.C,R1*%
X-6000000Y-73690000D03*
X-6000000Y-74710000D03*
%TD*%
D36*
X4100000Y-68300000D03*
X3400000Y-65400000D03*
X6900000Y-62900000D03*
X4700000Y-63900000D03*
X4400000Y-60600000D03*
X-1574579Y-61574579D03*
X1250000Y-60850000D03*
X-6100000Y-67050000D03*
X2500000Y-54900000D03*
X-5550000Y-61900000D03*
X-7800000Y-67050000D03*
X-2500000Y-61900000D03*
X-6000000Y-76000000D03*
X-4300000Y-67950000D03*
X0Y-54700000D03*
X-2250000Y-78000000D03*
X7450000Y-59500000D03*
X2050000Y-78500000D03*
X-2450000Y-71700000D03*
X-7850000Y-69550000D03*
X-3225000Y-63975000D03*
X-5250000Y-54850000D03*
X-6700000Y-59500000D03*
X-3000000Y-66950000D03*
X7550000Y-55550000D03*
X-300000Y-60550000D03*
X-6100000Y-69600000D03*
X-2100000Y-59050000D03*
X-2200000Y-66850000D03*
X-4850000Y-59150000D03*
X5050000Y-54950000D03*
X-7900000Y-60950000D03*
X-7650000Y-54900000D03*
X-2350000Y-54700000D03*
X1450000Y-76500000D03*
X-6800000Y-73100000D03*
X6600000Y-70200000D03*
X-400000Y-65500000D03*
X-7087500Y-63862500D03*
X-2400000Y-74050000D03*
X7250000Y-68900000D03*
X-4950000Y-69600000D03*
X400000Y-64400000D03*
X-4000000Y-63950000D03*
X5300000Y-79400000D03*
X-4050000Y-66750000D03*
X7000000Y-73150000D03*
X6900000Y-79400000D03*
X5500000Y-70100000D03*
X2150000Y-59650000D03*
X2550000Y-63600000D03*
X6575000Y-65325000D03*
X6200000Y-68950000D03*
M02*
