%TF.GenerationSoftware,KiCad,Pcbnew,9.0.7*%
%TF.CreationDate,2026-01-30T17:11:28+01:00*%
%TF.ProjectId,bobby-flasher,626f6262-792d-4666-9c61-736865722e6b,rev?*%
%TF.SameCoordinates,Original*%
%TF.FileFunction,Legend,Bot*%
%TF.FilePolarity,Positive*%
%FSLAX46Y46*%
G04 Gerber Fmt 4.6, Leading zero omitted, Abs format (unit mm)*
G04 Created by KiCad (PCBNEW 9.0.7) date 2026-01-30 17:11:28*
%MOMM*%
%LPD*%
G01*
G04 APERTURE LIST*
G04 Aperture macros list*
%AMRoundRect*
0 Rectangle with rounded corners*
0 $1 Rounding radius*
0 $2 $3 $4 $5 $6 $7 $8 $9 X,Y pos of 4 corners*
0 Add a 4 corners polygon primitive as box body*
4,1,4,$2,$3,$4,$5,$6,$7,$8,$9,$2,$3,0*
0 Add four circle primitives for the rounded corners*
1,1,$1+$1,$2,$3*
1,1,$1+$1,$4,$5*
1,1,$1+$1,$6,$7*
1,1,$1+$1,$8,$9*
0 Add four rect primitives between the rounded corners*
20,1,$1+$1,$2,$3,$4,$5,0*
20,1,$1+$1,$4,$5,$6,$7,0*
20,1,$1+$1,$6,$7,$8,$9,0*
20,1,$1+$1,$8,$9,$2,$3,0*%
G04 Aperture macros list end*
%ADD10C,0.300000*%
%ADD11C,0.150000*%
%ADD12RoundRect,0.250000X-0.600000X-0.725000X0.600000X-0.725000X0.600000X0.725000X-0.600000X0.725000X0*%
%ADD13O,1.700000X1.950000*%
%ADD14R,1.700000X1.700000*%
%ADD15O,1.700000X1.700000*%
%ADD16R,1.700000X3.000000*%
%ADD17C,0.650000*%
%ADD18O,1.000000X2.100000*%
%ADD19O,1.000000X1.800000*%
G04 APERTURE END LIST*
D10*
X6658961Y-60240224D02*
X6658961Y-60954510D01*
X6658961Y-60954510D02*
X5944675Y-61025938D01*
X5944675Y-61025938D02*
X6016104Y-60954510D01*
X6016104Y-60954510D02*
X6087532Y-60811653D01*
X6087532Y-60811653D02*
X6087532Y-60454510D01*
X6087532Y-60454510D02*
X6016104Y-60311653D01*
X6016104Y-60311653D02*
X5944675Y-60240224D01*
X5944675Y-60240224D02*
X5801818Y-60168795D01*
X5801818Y-60168795D02*
X5444675Y-60168795D01*
X5444675Y-60168795D02*
X5301818Y-60240224D01*
X5301818Y-60240224D02*
X5230390Y-60311653D01*
X5230390Y-60311653D02*
X5158961Y-60454510D01*
X5158961Y-60454510D02*
X5158961Y-60811653D01*
X5158961Y-60811653D02*
X5230390Y-60954510D01*
X5230390Y-60954510D02*
X5301818Y-61025938D01*
X6658961Y-59740224D02*
X5158961Y-59240224D01*
X5158961Y-59240224D02*
X6658961Y-58740224D01*
X2744045Y-61954511D02*
X4244045Y-61954511D01*
X4244045Y-60954510D02*
X4244045Y-60668796D01*
X4244045Y-60668796D02*
X4172616Y-60525939D01*
X4172616Y-60525939D02*
X4029759Y-60383082D01*
X4029759Y-60383082D02*
X3744045Y-60311653D01*
X3744045Y-60311653D02*
X3244045Y-60311653D01*
X3244045Y-60311653D02*
X2958331Y-60383082D01*
X2958331Y-60383082D02*
X2815474Y-60525939D01*
X2815474Y-60525939D02*
X2744045Y-60668796D01*
X2744045Y-60668796D02*
X2744045Y-60954510D01*
X2744045Y-60954510D02*
X2815474Y-61097368D01*
X2815474Y-61097368D02*
X2958331Y-61240225D01*
X2958331Y-61240225D02*
X3244045Y-61311653D01*
X3244045Y-61311653D02*
X3744045Y-61311653D01*
X3744045Y-61311653D02*
X4029759Y-61240225D01*
X4029759Y-61240225D02*
X4172616Y-61097368D01*
X4172616Y-61097368D02*
X4244045Y-60954510D01*
X4244045Y-59383081D02*
X4244045Y-59240224D01*
X4244045Y-59240224D02*
X4172616Y-59097367D01*
X4172616Y-59097367D02*
X4101188Y-59025939D01*
X4101188Y-59025939D02*
X3958331Y-58954510D01*
X3958331Y-58954510D02*
X3672616Y-58883081D01*
X3672616Y-58883081D02*
X3315474Y-58883081D01*
X3315474Y-58883081D02*
X3029759Y-58954510D01*
X3029759Y-58954510D02*
X2886902Y-59025939D01*
X2886902Y-59025939D02*
X2815474Y-59097367D01*
X2815474Y-59097367D02*
X2744045Y-59240224D01*
X2744045Y-59240224D02*
X2744045Y-59383081D01*
X2744045Y-59383081D02*
X2815474Y-59525939D01*
X2815474Y-59525939D02*
X2886902Y-59597367D01*
X2886902Y-59597367D02*
X3029759Y-59668796D01*
X3029759Y-59668796D02*
X3315474Y-59740224D01*
X3315474Y-59740224D02*
X3672616Y-59740224D01*
X3672616Y-59740224D02*
X3958331Y-59668796D01*
X3958331Y-59668796D02*
X4101188Y-59597367D01*
X4101188Y-59597367D02*
X4172616Y-59525939D01*
X4172616Y-59525939D02*
X4244045Y-59383081D01*
X1114843Y-61168797D02*
X1114843Y-60668797D01*
X329129Y-60454511D02*
X329129Y-61168797D01*
X329129Y-61168797D02*
X1829129Y-61168797D01*
X1829129Y-61168797D02*
X1829129Y-60454511D01*
X329129Y-59811654D02*
X1829129Y-59811654D01*
X1829129Y-59811654D02*
X329129Y-58954511D01*
X329129Y-58954511D02*
X1829129Y-58954511D01*
X-2085786Y-66311652D02*
X-1371500Y-66811652D01*
X-2085786Y-67168795D02*
X-585786Y-67168795D01*
X-585786Y-67168795D02*
X-585786Y-66597366D01*
X-585786Y-66597366D02*
X-657215Y-66454509D01*
X-657215Y-66454509D02*
X-728643Y-66383080D01*
X-728643Y-66383080D02*
X-871500Y-66311652D01*
X-871500Y-66311652D02*
X-1085786Y-66311652D01*
X-1085786Y-66311652D02*
X-1228643Y-66383080D01*
X-1228643Y-66383080D02*
X-1300072Y-66454509D01*
X-1300072Y-66454509D02*
X-1371500Y-66597366D01*
X-1371500Y-66597366D02*
X-1371500Y-67168795D01*
X-585786Y-65811652D02*
X-2085786Y-64811652D01*
X-585786Y-64811652D02*
X-2085786Y-65811652D01*
X-585786Y-61025938D02*
X-585786Y-60168796D01*
X-2085786Y-60597367D02*
X-585786Y-60597367D01*
X-585786Y-59811653D02*
X-2085786Y-58811653D01*
X-585786Y-58811653D02*
X-2085786Y-59811653D01*
X-3000702Y-67383080D02*
X-3000702Y-66525938D01*
X-4500702Y-66954509D02*
X-3000702Y-66954509D01*
X-3000702Y-66168795D02*
X-4500702Y-65168795D01*
X-3000702Y-65168795D02*
X-4500702Y-66168795D01*
X-4500702Y-60311653D02*
X-3786416Y-60811653D01*
X-4500702Y-61168796D02*
X-3000702Y-61168796D01*
X-3000702Y-61168796D02*
X-3000702Y-60597367D01*
X-3000702Y-60597367D02*
X-3072131Y-60454510D01*
X-3072131Y-60454510D02*
X-3143559Y-60383081D01*
X-3143559Y-60383081D02*
X-3286416Y-60311653D01*
X-3286416Y-60311653D02*
X-3500702Y-60311653D01*
X-3500702Y-60311653D02*
X-3643559Y-60383081D01*
X-3643559Y-60383081D02*
X-3714988Y-60454510D01*
X-3714988Y-60454510D02*
X-3786416Y-60597367D01*
X-3786416Y-60597367D02*
X-3786416Y-61168796D01*
X-3000702Y-59811653D02*
X-4500702Y-58811653D01*
X-3000702Y-58811653D02*
X-4500702Y-59811653D01*
X-5487047Y-62025939D02*
X-5415618Y-62168797D01*
X-5415618Y-62168797D02*
X-5415618Y-62383082D01*
X-5415618Y-62383082D02*
X-5487047Y-62597368D01*
X-5487047Y-62597368D02*
X-5629904Y-62740225D01*
X-5629904Y-62740225D02*
X-5772761Y-62811654D01*
X-5772761Y-62811654D02*
X-6058475Y-62883082D01*
X-6058475Y-62883082D02*
X-6272761Y-62883082D01*
X-6272761Y-62883082D02*
X-6558475Y-62811654D01*
X-6558475Y-62811654D02*
X-6701332Y-62740225D01*
X-6701332Y-62740225D02*
X-6844190Y-62597368D01*
X-6844190Y-62597368D02*
X-6915618Y-62383082D01*
X-6915618Y-62383082D02*
X-6915618Y-62240225D01*
X-6915618Y-62240225D02*
X-6844190Y-62025939D01*
X-6844190Y-62025939D02*
X-6772761Y-61954511D01*
X-6772761Y-61954511D02*
X-6272761Y-61954511D01*
X-6272761Y-61954511D02*
X-6272761Y-62240225D01*
X-6915618Y-61311654D02*
X-5415618Y-61311654D01*
X-5415618Y-61311654D02*
X-6915618Y-60454511D01*
X-6915618Y-60454511D02*
X-5415618Y-60454511D01*
X-6915618Y-59740225D02*
X-5415618Y-59740225D01*
X-5415618Y-59740225D02*
X-5415618Y-59383082D01*
X-5415618Y-59383082D02*
X-5487047Y-59168796D01*
X-5487047Y-59168796D02*
X-5629904Y-59025939D01*
X-5629904Y-59025939D02*
X-5772761Y-58954510D01*
X-5772761Y-58954510D02*
X-6058475Y-58883082D01*
X-6058475Y-58883082D02*
X-6272761Y-58883082D01*
X-6272761Y-58883082D02*
X-6558475Y-58954510D01*
X-6558475Y-58954510D02*
X-6701332Y-59025939D01*
X-6701332Y-59025939D02*
X-6844190Y-59168796D01*
X-6844190Y-59168796D02*
X-6915618Y-59383082D01*
X-6915618Y-59383082D02*
X-6915618Y-59740225D01*
X2836587Y-74331203D02*
X2836587Y-75045489D01*
X2836587Y-75045489D02*
X2122301Y-75116917D01*
X2122301Y-75116917D02*
X2193730Y-75045489D01*
X2193730Y-75045489D02*
X2265158Y-74902632D01*
X2265158Y-74902632D02*
X2265158Y-74545489D01*
X2265158Y-74545489D02*
X2193730Y-74402632D01*
X2193730Y-74402632D02*
X2122301Y-74331203D01*
X2122301Y-74331203D02*
X1979444Y-74259774D01*
X1979444Y-74259774D02*
X1622301Y-74259774D01*
X1622301Y-74259774D02*
X1479444Y-74331203D01*
X1479444Y-74331203D02*
X1408016Y-74402632D01*
X1408016Y-74402632D02*
X1336587Y-74545489D01*
X1336587Y-74545489D02*
X1336587Y-74902632D01*
X1336587Y-74902632D02*
X1408016Y-75045489D01*
X1408016Y-75045489D02*
X1479444Y-75116917D01*
X2836587Y-73831203D02*
X1336587Y-73331203D01*
X1336587Y-73331203D02*
X2836587Y-72831203D01*
X350242Y-74259774D02*
X421671Y-74402632D01*
X421671Y-74402632D02*
X421671Y-74616917D01*
X421671Y-74616917D02*
X350242Y-74831203D01*
X350242Y-74831203D02*
X207385Y-74974060D01*
X207385Y-74974060D02*
X64528Y-75045489D01*
X64528Y-75045489D02*
X-221185Y-75116917D01*
X-221185Y-75116917D02*
X-435471Y-75116917D01*
X-435471Y-75116917D02*
X-721185Y-75045489D01*
X-721185Y-75045489D02*
X-864042Y-74974060D01*
X-864042Y-74974060D02*
X-1006900Y-74831203D01*
X-1006900Y-74831203D02*
X-1078328Y-74616917D01*
X-1078328Y-74616917D02*
X-1078328Y-74474060D01*
X-1078328Y-74474060D02*
X-1006900Y-74259774D01*
X-1006900Y-74259774D02*
X-935471Y-74188346D01*
X-935471Y-74188346D02*
X-435471Y-74188346D01*
X-435471Y-74188346D02*
X-435471Y-74474060D01*
X-1078328Y-73545489D02*
X421671Y-73545489D01*
X421671Y-73545489D02*
X-1078328Y-72688346D01*
X-1078328Y-72688346D02*
X421671Y-72688346D01*
X-1078328Y-71974060D02*
X421671Y-71974060D01*
X421671Y-71974060D02*
X421671Y-71616917D01*
X421671Y-71616917D02*
X350242Y-71402631D01*
X350242Y-71402631D02*
X207385Y-71259774D01*
X207385Y-71259774D02*
X64528Y-71188345D01*
X64528Y-71188345D02*
X-221185Y-71116917D01*
X-221185Y-71116917D02*
X-435471Y-71116917D01*
X-435471Y-71116917D02*
X-721185Y-71188345D01*
X-721185Y-71188345D02*
X-864042Y-71259774D01*
X-864042Y-71259774D02*
X-1006900Y-71402631D01*
X-1006900Y-71402631D02*
X-1078328Y-71616917D01*
X-1078328Y-71616917D02*
X-1078328Y-71974060D01*
X-1993244Y-75188346D02*
X-1993244Y-74259774D01*
X-1993244Y-74259774D02*
X-2564673Y-74759774D01*
X-2564673Y-74759774D02*
X-2564673Y-74545489D01*
X-2564673Y-74545489D02*
X-2636101Y-74402632D01*
X-2636101Y-74402632D02*
X-2707530Y-74331203D01*
X-2707530Y-74331203D02*
X-2850387Y-74259774D01*
X-2850387Y-74259774D02*
X-3207530Y-74259774D01*
X-3207530Y-74259774D02*
X-3350387Y-74331203D01*
X-3350387Y-74331203D02*
X-3421816Y-74402632D01*
X-3421816Y-74402632D02*
X-3493244Y-74545489D01*
X-3493244Y-74545489D02*
X-3493244Y-74974060D01*
X-3493244Y-74974060D02*
X-3421816Y-75116917D01*
X-3421816Y-75116917D02*
X-3350387Y-75188346D01*
X-1993244Y-73831203D02*
X-3493244Y-73331203D01*
X-3493244Y-73331203D02*
X-1993244Y-72831203D01*
X-1993244Y-72474061D02*
X-1993244Y-71545489D01*
X-1993244Y-71545489D02*
X-2564673Y-72045489D01*
X-2564673Y-72045489D02*
X-2564673Y-71831204D01*
X-2564673Y-71831204D02*
X-2636101Y-71688347D01*
X-2636101Y-71688347D02*
X-2707530Y-71616918D01*
X-2707530Y-71616918D02*
X-2850387Y-71545489D01*
X-2850387Y-71545489D02*
X-3207530Y-71545489D01*
X-3207530Y-71545489D02*
X-3350387Y-71616918D01*
X-3350387Y-71616918D02*
X-3421816Y-71688347D01*
X-3421816Y-71688347D02*
X-3493244Y-71831204D01*
X-3493244Y-71831204D02*
X-3493244Y-72259775D01*
X-3493244Y-72259775D02*
X-3421816Y-72402632D01*
X-3421816Y-72402632D02*
X-3350387Y-72474061D01*
D11*
X-865350Y-62199270D02*
X-1098684Y-62199270D01*
X-1198684Y-62618318D02*
X-865350Y-62618318D01*
X-865350Y-62618318D02*
X-865350Y-61818318D01*
X-865350Y-61818318D02*
X-1198684Y-61818318D01*
X-1465350Y-62580223D02*
X-1565350Y-62618318D01*
X-1565350Y-62618318D02*
X-1732017Y-62618318D01*
X-1732017Y-62618318D02*
X-1798683Y-62580223D01*
X-1798683Y-62580223D02*
X-1832017Y-62542127D01*
X-1832017Y-62542127D02*
X-1865350Y-62465937D01*
X-1865350Y-62465937D02*
X-1865350Y-62389746D01*
X-1865350Y-62389746D02*
X-1832017Y-62313556D01*
X-1832017Y-62313556D02*
X-1798683Y-62275461D01*
X-1798683Y-62275461D02*
X-1732017Y-62237365D01*
X-1732017Y-62237365D02*
X-1598683Y-62199270D01*
X-1598683Y-62199270D02*
X-1532017Y-62161175D01*
X-1532017Y-62161175D02*
X-1498683Y-62123080D01*
X-1498683Y-62123080D02*
X-1465350Y-62046889D01*
X-1465350Y-62046889D02*
X-1465350Y-61970699D01*
X-1465350Y-61970699D02*
X-1498683Y-61894508D01*
X-1498683Y-61894508D02*
X-1532017Y-61856413D01*
X-1532017Y-61856413D02*
X-1598683Y-61818318D01*
X-1598683Y-61818318D02*
X-1765350Y-61818318D01*
X-1765350Y-61818318D02*
X-1865350Y-61856413D01*
X-2165350Y-62618318D02*
X-2165350Y-61818318D01*
X-2165350Y-61818318D02*
X-2432017Y-61818318D01*
X-2432017Y-61818318D02*
X-2498684Y-61856413D01*
X-2498684Y-61856413D02*
X-2532017Y-61894508D01*
X-2532017Y-61894508D02*
X-2565350Y-61970699D01*
X-2565350Y-61970699D02*
X-2565350Y-62084984D01*
X-2565350Y-62084984D02*
X-2532017Y-62161175D01*
X-2532017Y-62161175D02*
X-2498684Y-62199270D01*
X-2498684Y-62199270D02*
X-2432017Y-62237365D01*
X-2432017Y-62237365D02*
X-2165350Y-62237365D01*
X-2798684Y-61818318D02*
X-3232017Y-61818318D01*
X-3232017Y-61818318D02*
X-2998684Y-62123080D01*
X-2998684Y-62123080D02*
X-3098684Y-62123080D01*
X-3098684Y-62123080D02*
X-3165350Y-62161175D01*
X-3165350Y-62161175D02*
X-3198684Y-62199270D01*
X-3198684Y-62199270D02*
X-3232017Y-62275461D01*
X-3232017Y-62275461D02*
X-3232017Y-62465937D01*
X-3232017Y-62465937D02*
X-3198684Y-62542127D01*
X-3198684Y-62542127D02*
X-3165350Y-62580223D01*
X-3165350Y-62580223D02*
X-3098684Y-62618318D01*
X-3098684Y-62618318D02*
X-2898684Y-62618318D01*
X-2898684Y-62618318D02*
X-2832017Y-62580223D01*
X-2832017Y-62580223D02*
X-2798684Y-62542127D01*
X-3498684Y-61894508D02*
X-3532017Y-61856413D01*
X-3532017Y-61856413D02*
X-3598684Y-61818318D01*
X-3598684Y-61818318D02*
X-3765351Y-61818318D01*
X-3765351Y-61818318D02*
X-3832017Y-61856413D01*
X-3832017Y-61856413D02*
X-3865351Y-61894508D01*
X-3865351Y-61894508D02*
X-3898684Y-61970699D01*
X-3898684Y-61970699D02*
X-3898684Y-62046889D01*
X-3898684Y-62046889D02*
X-3865351Y-62161175D01*
X-3865351Y-62161175D02*
X-3465351Y-62618318D01*
X-3465351Y-62618318D02*
X-3898684Y-62618318D01*
X-1098684Y-63487225D02*
X-865350Y-63487225D01*
X-865350Y-63906273D02*
X-865350Y-63106273D01*
X-865350Y-63106273D02*
X-1198684Y-63106273D01*
X-1565350Y-63906273D02*
X-1498684Y-63868178D01*
X-1498684Y-63868178D02*
X-1465350Y-63791987D01*
X-1465350Y-63791987D02*
X-1465350Y-63106273D01*
X-2132017Y-63906273D02*
X-2132017Y-63487225D01*
X-2132017Y-63487225D02*
X-2098684Y-63411035D01*
X-2098684Y-63411035D02*
X-2032017Y-63372939D01*
X-2032017Y-63372939D02*
X-1898684Y-63372939D01*
X-1898684Y-63372939D02*
X-1832017Y-63411035D01*
X-2132017Y-63868178D02*
X-2065351Y-63906273D01*
X-2065351Y-63906273D02*
X-1898684Y-63906273D01*
X-1898684Y-63906273D02*
X-1832017Y-63868178D01*
X-1832017Y-63868178D02*
X-1798684Y-63791987D01*
X-1798684Y-63791987D02*
X-1798684Y-63715797D01*
X-1798684Y-63715797D02*
X-1832017Y-63639606D01*
X-1832017Y-63639606D02*
X-1898684Y-63601511D01*
X-1898684Y-63601511D02*
X-2065351Y-63601511D01*
X-2065351Y-63601511D02*
X-2132017Y-63563416D01*
X-2432017Y-63868178D02*
X-2498684Y-63906273D01*
X-2498684Y-63906273D02*
X-2632017Y-63906273D01*
X-2632017Y-63906273D02*
X-2698684Y-63868178D01*
X-2698684Y-63868178D02*
X-2732017Y-63791987D01*
X-2732017Y-63791987D02*
X-2732017Y-63753892D01*
X-2732017Y-63753892D02*
X-2698684Y-63677701D01*
X-2698684Y-63677701D02*
X-2632017Y-63639606D01*
X-2632017Y-63639606D02*
X-2532017Y-63639606D01*
X-2532017Y-63639606D02*
X-2465350Y-63601511D01*
X-2465350Y-63601511D02*
X-2432017Y-63525320D01*
X-2432017Y-63525320D02*
X-2432017Y-63487225D01*
X-2432017Y-63487225D02*
X-2465350Y-63411035D01*
X-2465350Y-63411035D02*
X-2532017Y-63372939D01*
X-2532017Y-63372939D02*
X-2632017Y-63372939D01*
X-2632017Y-63372939D02*
X-2698684Y-63411035D01*
X-3032017Y-63906273D02*
X-3032017Y-63106273D01*
X-3332017Y-63906273D02*
X-3332017Y-63487225D01*
X-3332017Y-63487225D02*
X-3298684Y-63411035D01*
X-3298684Y-63411035D02*
X-3232017Y-63372939D01*
X-3232017Y-63372939D02*
X-3132017Y-63372939D01*
X-3132017Y-63372939D02*
X-3065351Y-63411035D01*
X-3065351Y-63411035D02*
X-3032017Y-63449130D01*
X-3932017Y-63868178D02*
X-3865350Y-63906273D01*
X-3865350Y-63906273D02*
X-3732017Y-63906273D01*
X-3732017Y-63906273D02*
X-3665350Y-63868178D01*
X-3665350Y-63868178D02*
X-3632017Y-63791987D01*
X-3632017Y-63791987D02*
X-3632017Y-63487225D01*
X-3632017Y-63487225D02*
X-3665350Y-63411035D01*
X-3665350Y-63411035D02*
X-3732017Y-63372939D01*
X-3732017Y-63372939D02*
X-3865350Y-63372939D01*
X-3865350Y-63372939D02*
X-3932017Y-63411035D01*
X-3932017Y-63411035D02*
X-3965350Y-63487225D01*
X-3965350Y-63487225D02*
X-3965350Y-63563416D01*
X-3965350Y-63563416D02*
X-3632017Y-63639606D01*
X-4265350Y-63906273D02*
X-4265350Y-63372939D01*
X-4265350Y-63525320D02*
X-4298684Y-63449130D01*
X-4298684Y-63449130D02*
X-4332017Y-63411035D01*
X-4332017Y-63411035D02*
X-4398684Y-63372939D01*
X-4398684Y-63372939D02*
X-4465350Y-63372939D01*
%LPC*%
D12*
%TO.C,J3*%
X-6250000Y-57375000D03*
D13*
X-3750000Y-57375000D03*
X-1250000Y-57375000D03*
X1250000Y-57375000D03*
X3750000Y-57375000D03*
X6250000Y-57375000D03*
%TD*%
D14*
%TO.C,J2*%
X-6350000Y-52900000D03*
D15*
X-3810000Y-52900000D03*
X-1270000Y-52900000D03*
X1270000Y-52900000D03*
X3810000Y-52900000D03*
X6350000Y-52900000D03*
%TD*%
D16*
%TO.C,J1*%
X2400000Y-69200000D03*
X-140000Y-69200000D03*
X-2680000Y-69200000D03*
%TD*%
D17*
%TO.C,USBC1*%
X-2890000Y-76090000D03*
X2890000Y-76090000D03*
D18*
X-4320000Y-75590000D03*
D19*
X-4320000Y-79770000D03*
X4320000Y-79770000D03*
D18*
X4320000Y-75590000D03*
%TD*%
%LPD*%
M02*
