%TF.GenerationSoftware,KiCad,Pcbnew,9.0.7*%
%TF.CreationDate,2026-01-30T17:11:28+01:00*%
%TF.ProjectId,bobby-flasher,626f6262-792d-4666-9c61-736865722e6b,rev?*%
%TF.SameCoordinates,Original*%
%TF.FileFunction,Copper,L1,Top*%
%TF.FilePolarity,Positive*%
%FSLAX46Y46*%
G04 Gerber Fmt 4.6, Leading zero omitted, Abs format (unit mm)*
G04 Created by KiCad (PCBNEW 9.0.7) date 2026-01-30 17:11:28*
%MOMM*%
%LPD*%
G01*
G04 APERTURE LIST*
G04 Aperture macros list*
%AMRoundRect*
0 Rectangle with rounded corners*
0 $1 Rounding radius*
0 $2 $3 $4 $5 $6 $7 $8 $9 X,Y pos of 4 corners*
0 Add a 4 corners polygon primitive as box body*
4,1,4,$2,$3,$4,$5,$6,$7,$8,$9,$2,$3,0*
0 Add four circle primitives for the rounded corners*
1,1,$1+$1,$2,$3*
1,1,$1+$1,$4,$5*
1,1,$1+$1,$6,$7*
1,1,$1+$1,$8,$9*
0 Add four rect primitives between the rounded corners*
20,1,$1+$1,$2,$3,$4,$5,0*
20,1,$1+$1,$4,$5,$6,$7,0*
20,1,$1+$1,$6,$7,$8,$9,0*
20,1,$1+$1,$8,$9,$2,$3,0*%
G04 Aperture macros list end*
%TA.AperFunction,SMDPad,CuDef*%
%ADD10RoundRect,0.375000X-0.375000X0.625000X-0.375000X-0.625000X0.375000X-0.625000X0.375000X0.625000X0*%
%TD*%
%TA.AperFunction,SMDPad,CuDef*%
%ADD11RoundRect,0.500000X-1.400000X0.500000X-1.400000X-0.500000X1.400000X-0.500000X1.400000X0.500000X0*%
%TD*%
%TA.AperFunction,ComponentPad*%
%ADD12RoundRect,0.250000X-0.600000X-0.725000X0.600000X-0.725000X0.600000X0.725000X-0.600000X0.725000X0*%
%TD*%
%TA.AperFunction,ComponentPad*%
%ADD13O,1.700000X1.950000*%
%TD*%
%TA.AperFunction,SMDPad,CuDef*%
%ADD14RoundRect,0.150000X0.150000X-0.825000X0.150000X0.825000X-0.150000X0.825000X-0.150000X-0.825000X0*%
%TD*%
%TA.AperFunction,SMDPad,CuDef*%
%ADD15RoundRect,0.150000X-0.150000X0.587500X-0.150000X-0.587500X0.150000X-0.587500X0.150000X0.587500X0*%
%TD*%
%TA.AperFunction,SMDPad,CuDef*%
%ADD16RoundRect,0.218750X0.256250X-0.218750X0.256250X0.218750X-0.256250X0.218750X-0.256250X-0.218750X0*%
%TD*%
%TA.AperFunction,SMDPad,CuDef*%
%ADD17RoundRect,0.135000X-0.185000X0.135000X-0.185000X-0.135000X0.185000X-0.135000X0.185000X0.135000X0*%
%TD*%
%TA.AperFunction,SMDPad,CuDef*%
%ADD18RoundRect,0.135000X0.135000X0.185000X-0.135000X0.185000X-0.135000X-0.185000X0.135000X-0.185000X0*%
%TD*%
%TA.AperFunction,SMDPad,CuDef*%
%ADD19RoundRect,0.135000X-0.135000X-0.185000X0.135000X-0.185000X0.135000X0.185000X-0.135000X0.185000X0*%
%TD*%
%TA.AperFunction,SMDPad,CuDef*%
%ADD20RoundRect,0.140000X-0.140000X-0.170000X0.140000X-0.170000X0.140000X0.170000X-0.140000X0.170000X0*%
%TD*%
%TA.AperFunction,SMDPad,CuDef*%
%ADD21RoundRect,0.140000X-0.170000X0.140000X-0.170000X-0.140000X0.170000X-0.140000X0.170000X0.140000X0*%
%TD*%
%TA.AperFunction,SMDPad,CuDef*%
%ADD22RoundRect,0.140000X0.140000X0.170000X-0.140000X0.170000X-0.140000X-0.170000X0.140000X-0.170000X0*%
%TD*%
%TA.AperFunction,SMDPad,CuDef*%
%ADD23RoundRect,0.225000X0.225000X0.250000X-0.225000X0.250000X-0.225000X-0.250000X0.225000X-0.250000X0*%
%TD*%
%TA.AperFunction,SMDPad,CuDef*%
%ADD24RoundRect,0.225000X-0.225000X-0.250000X0.225000X-0.250000X0.225000X0.250000X-0.225000X0.250000X0*%
%TD*%
%TA.AperFunction,ComponentPad*%
%ADD25R,1.700000X1.700000*%
%TD*%
%TA.AperFunction,ComponentPad*%
%ADD26O,1.700000X1.700000*%
%TD*%
%TA.AperFunction,ComponentPad*%
%ADD27O,1.000000X2.100000*%
%TD*%
%TA.AperFunction,ComponentPad*%
%ADD28O,1.000000X1.800000*%
%TD*%
%TA.AperFunction,SMDPad,CuDef*%
%ADD29R,0.600000X1.150000*%
%TD*%
%TA.AperFunction,SMDPad,CuDef*%
%ADD30R,0.300000X1.150000*%
%TD*%
%TA.AperFunction,ViaPad*%
%ADD31C,0.500000*%
%TD*%
%TA.AperFunction,Conductor*%
%ADD32C,0.250000*%
%TD*%
%TA.AperFunction,Conductor*%
%ADD33C,0.200000*%
%TD*%
G04 APERTURE END LIST*
D10*
%TO.P,U2,1,GND*%
%TO.N,GND*%
X-2900000Y-65350000D03*
%TO.P,U2,2,VO*%
%TO.N,+3V3*%
X-5200000Y-65350000D03*
D11*
X-5200000Y-71650000D03*
D10*
%TO.P,U2,3,VI*%
%TO.N,+5V*%
X-7500000Y-65350000D03*
%TD*%
D12*
%TO.P,J3,1,Pin_1*%
%TO.N,GND*%
X-6250000Y-57375000D03*
D13*
%TO.P,J3,2,Pin_2*%
%TO.N,ESP_RX*%
X-3750000Y-57375000D03*
%TO.P,J3,3,Pin_3*%
%TO.N,ESP_TX*%
X-1250000Y-57375000D03*
%TO.P,J3,4,Pin_4*%
%TO.N,EN*%
X1250000Y-57375000D03*
%TO.P,J3,5,Pin_5*%
%TO.N,IO0*%
X3750000Y-57375000D03*
%TO.P,J3,6,Pin_6*%
%TO.N,+5V*%
X6250000Y-57375000D03*
%TD*%
D14*
%TO.P,U1,1,GND*%
%TO.N,GND*%
X-1045000Y-71675000D03*
%TO.P,U1,2,TXD*%
%TO.N,ESP_RX*%
X225000Y-71675000D03*
%TO.P,U1,3,RXD*%
%TO.N,ESP_TX*%
X1495000Y-71675000D03*
%TO.P,U1,4,V3*%
%TO.N,Net-(U1-V3)*%
X2765000Y-71675000D03*
%TO.P,U1,5,UD+*%
%TO.N,USB_DP*%
X4035000Y-71675000D03*
%TO.P,U1,6,UD-*%
%TO.N,USB_DN*%
X5305000Y-71675000D03*
%TO.P,U1,7,VBUS*%
%TO.N,+5V*%
X6575000Y-71675000D03*
%TO.P,U1,8,~{ACT}*%
%TO.N,unconnected-(U1-~{ACT}-Pad8)*%
X7845000Y-71675000D03*
%TO.P,U1,9,~{DCD}*%
%TO.N,unconnected-(U1-~{DCD}-Pad9)*%
X7845000Y-66725000D03*
%TO.P,U1,10,~{DTR}/TNOW*%
%TO.N,DTR*%
X6575000Y-66725000D03*
%TO.P,U1,11,~{RTS}*%
%TO.N,RTS*%
X5305000Y-66725000D03*
%TO.P,U1,12,~{DSR}*%
%TO.N,unconnected-(U1-~{DSR}-Pad12)*%
X4035000Y-66725000D03*
%TO.P,U1,13,~{CTS}*%
%TO.N,unconnected-(U1-~{CTS}-Pad13)*%
X2765000Y-66725000D03*
%TO.P,U1,14,~{RI}*%
%TO.N,unconnected-(U1-~{RI}-Pad14)*%
X1495000Y-66725000D03*
%TO.P,U1,15,VIO*%
%TO.N,+3V3*%
X225000Y-66725000D03*
%TO.P,U1,16,VDD5*%
%TO.N,+5V*%
X-1045000Y-66725000D03*
%TD*%
D15*
%TO.P,Q2,1,B*%
%TO.N,Net-(Q2-B)*%
X7850000Y-62262500D03*
%TO.P,Q2,2,E*%
%TO.N,DTR*%
X5950000Y-62262500D03*
%TO.P,Q2,3,C*%
%TO.N,IO0*%
X6900000Y-64137500D03*
%TD*%
%TO.P,Q1,1,B*%
%TO.N,Net-(Q1-B)*%
X4450000Y-62262500D03*
%TO.P,Q1,2,E*%
%TO.N,RTS*%
X2550000Y-62262500D03*
%TO.P,Q1,3,C*%
%TO.N,EN*%
X3500000Y-64137500D03*
%TD*%
D16*
%TO.P,D3,1,K*%
%TO.N,ESP_RX*%
X6100000Y-80175000D03*
%TO.P,D3,2,A*%
%TO.N,Net-(D3-A)*%
X6100000Y-78600000D03*
%TD*%
%TO.P,D1,1,K*%
%TO.N,GND*%
X-6100000Y-80187500D03*
%TO.P,D1,2,A*%
%TO.N,Net-(D1-A)*%
X-6100000Y-78612500D03*
%TD*%
%TO.P,D2,1,K*%
%TO.N,GND*%
X-7700000Y-80187500D03*
%TO.P,D2,2,A*%
%TO.N,Net-(D2-A)*%
X-7700000Y-78612500D03*
%TD*%
%TO.P,D4,1,K*%
%TO.N,ESP_TX*%
X7700000Y-80187500D03*
%TO.P,D4,2,A*%
%TO.N,Net-(D4-A)*%
X7700000Y-78612500D03*
%TD*%
D17*
%TO.P,R6,1*%
%TO.N,+5V*%
X-7000000Y-73690000D03*
%TO.P,R6,2*%
%TO.N,Net-(D1-A)*%
X-7000000Y-74710000D03*
%TD*%
%TO.P,R2,1*%
%TO.N,ESP_RX*%
X7000000Y-73690000D03*
%TO.P,R2,2*%
%TO.N,+3V3*%
X7000000Y-74710000D03*
%TD*%
%TO.P,R8,1*%
%TO.N,+3V3*%
X6000000Y-73690000D03*
%TO.P,R8,2*%
%TO.N,Net-(D3-A)*%
X6000000Y-74710000D03*
%TD*%
D18*
%TO.P,R3,1*%
%TO.N,GND*%
X2260000Y-73600000D03*
%TO.P,R3,2*%
%TO.N,Net-(USBC1-CC2)*%
X1240000Y-73600000D03*
%TD*%
D17*
%TO.P,R9,1*%
%TO.N,+3V3*%
X8000000Y-73690000D03*
%TO.P,R9,2*%
%TO.N,Net-(D4-A)*%
X8000000Y-74710000D03*
%TD*%
D18*
%TO.P,R10,1*%
%TO.N,DTR*%
X410000Y-64900000D03*
%TO.P,R10,2*%
%TO.N,+3V3*%
X-610000Y-64900000D03*
%TD*%
%TO.P,R5,1*%
%TO.N,RTS*%
X5539008Y-64797970D03*
%TO.P,R5,2*%
%TO.N,Net-(Q2-B)*%
X4519008Y-64797970D03*
%TD*%
D19*
%TO.P,R4,1*%
%TO.N,DTR*%
X1290000Y-64900000D03*
%TO.P,R4,2*%
%TO.N,Net-(Q1-B)*%
X2310000Y-64900000D03*
%TD*%
D17*
%TO.P,R7,1*%
%TO.N,+3V3*%
X-8000000Y-73690000D03*
%TO.P,R7,2*%
%TO.N,Net-(D2-A)*%
X-8000000Y-74710000D03*
%TD*%
%TO.P,R1,1*%
%TO.N,Net-(USBC1-CC1)*%
X-6000000Y-73690000D03*
%TO.P,R1,2*%
%TO.N,GND*%
X-6000000Y-74710000D03*
%TD*%
D20*
%TO.P,C3,1*%
%TO.N,GND*%
X3170000Y-73600000D03*
%TO.P,C3,2*%
%TO.N,Net-(U1-V3)*%
X4130000Y-73600000D03*
%TD*%
%TO.P,C1,1*%
%TO.N,GND*%
X-7580000Y-61800000D03*
%TO.P,C1,2*%
%TO.N,+5V*%
X-6620000Y-61800000D03*
%TD*%
D21*
%TO.P,C4,1*%
%TO.N,GND*%
X-1900000Y-62120000D03*
%TO.P,C4,2*%
%TO.N,+5V*%
X-1900000Y-63080000D03*
%TD*%
D22*
%TO.P,C6,1*%
%TO.N,GND*%
X-3520000Y-61800000D03*
%TO.P,C6,2*%
%TO.N,+3V3*%
X-4480000Y-61800000D03*
%TD*%
D23*
%TO.P,C8,1*%
%TO.N,GND*%
X975000Y-62100000D03*
%TO.P,C8,2*%
%TO.N,EN*%
X-575000Y-62100000D03*
%TD*%
D24*
%TO.P,C2,1*%
%TO.N,GND*%
X-7875000Y-63100000D03*
%TO.P,C2,2*%
%TO.N,+5V*%
X-6325000Y-63100000D03*
%TD*%
%TO.P,C5,1*%
%TO.N,+3V3*%
X-4775000Y-63100000D03*
%TO.P,C5,2*%
%TO.N,GND*%
X-3225000Y-63100000D03*
%TD*%
%TO.P,C7,1*%
%TO.N,GND*%
X-575000Y-63600000D03*
%TO.P,C7,2*%
%TO.N,+3V3*%
X975000Y-63600000D03*
%TD*%
D25*
%TO.P,J2,1,Pin_1*%
%TO.N,GND*%
X-6350000Y-52900000D03*
D26*
%TO.P,J2,2,Pin_2*%
%TO.N,ESP_RX*%
X-3810000Y-52900000D03*
%TO.P,J2,3,Pin_3*%
%TO.N,ESP_TX*%
X-1270000Y-52900000D03*
%TO.P,J2,4,Pin_4*%
%TO.N,EN*%
X1270000Y-52900000D03*
%TO.P,J2,5,Pin_5*%
%TO.N,IO0*%
X3810000Y-52900000D03*
%TO.P,J2,6,Pin_6*%
%TO.N,+5V*%
X6350000Y-52900000D03*
%TD*%
D27*
%TO.P,USBC1,1,SHIELD*%
%TO.N,GND*%
X-4320000Y-75590000D03*
D28*
%TO.P,USBC1,2,SHIELD*%
X-4320000Y-79770000D03*
%TO.P,USBC1,3,SHIELD*%
X4320000Y-79770000D03*
D27*
%TO.P,USBC1,4,SHIELD*%
X4320000Y-75590000D03*
D29*
%TO.P,USBC1,A1-B12,GND*%
X-3200000Y-75030000D03*
%TO.P,USBC1,A4-B9,VBUS*%
%TO.N,+5V*%
X-2400000Y-75030000D03*
D30*
%TO.P,USBC1,A5,CC1*%
%TO.N,Net-(USBC1-CC1)*%
X-1250000Y-75030000D03*
%TO.P,USBC1,A6,DP1*%
%TO.N,USB_DP*%
X-250000Y-75030000D03*
%TO.P,USBC1,A7,DN1*%
%TO.N,USB_DN*%
X250000Y-75030000D03*
%TO.P,USBC1,A8,SBU1*%
%TO.N,unconnected-(USBC1-SBU1-PadA8)*%
X1250000Y-75030000D03*
D29*
%TO.P,USBC1,B1-A12,GND*%
%TO.N,GND*%
X3200000Y-75030000D03*
%TO.P,USBC1,B4-A9,VBUS*%
%TO.N,+5V*%
X2400000Y-75030000D03*
D30*
%TO.P,USBC1,B5,CC2*%
%TO.N,Net-(USBC1-CC2)*%
X1750000Y-75030000D03*
%TO.P,USBC1,B6,DP2*%
%TO.N,USB_DP*%
X750000Y-75030000D03*
%TO.P,USBC1,B7,DN2*%
%TO.N,USB_DN*%
X-750000Y-75030000D03*
%TO.P,USBC1,B8,SBU2*%
%TO.N,unconnected-(USBC1-SBU2-PadB8)*%
X-1750000Y-75030000D03*
%TD*%
D31*
%TO.N,GND*%
X2450000Y-58675000D03*
X4700000Y-60575000D03*
X0Y-59050000D03*
X3275000Y-60350000D03*
X-6100000Y-67050000D03*
X2500000Y-54900000D03*
X-5550000Y-61900000D03*
X-7800000Y-67050000D03*
X-2500000Y-61900000D03*
X-6000000Y-76000000D03*
X-4300000Y-67950000D03*
X0Y-54700000D03*
X-4400000Y-77800000D03*
X7450000Y-59500000D03*
X-1525000Y-76325000D03*
X2050000Y-78500000D03*
X-7850000Y-70925000D03*
X125000Y-80475000D03*
X-2450000Y-71700000D03*
X-39737Y-77919210D03*
X-7850000Y-69550000D03*
X-3500000Y-63975000D03*
X-5250000Y-54850000D03*
X-6700000Y-59500000D03*
X-3000000Y-66950000D03*
X6125000Y-60850000D03*
X-650000Y-73525000D03*
X7550000Y-55550000D03*
X2575000Y-80475000D03*
X-300000Y-60550000D03*
X-6100000Y-69600000D03*
X-2100000Y-59050000D03*
X-2200000Y-66850000D03*
X-4850000Y-59150000D03*
X-2525000Y-80425000D03*
X5050000Y-54950000D03*
X-7900000Y-60950000D03*
X4381635Y-77950000D03*
X-7650000Y-54900000D03*
X-2350000Y-54700000D03*
%TO.N,+5V*%
X1450000Y-76500000D03*
X-6800000Y-73100000D03*
X-2300000Y-63800000D03*
X6600000Y-70200000D03*
X-1700000Y-65500000D03*
X-7087500Y-63862500D03*
X-2400000Y-74050000D03*
%TO.N,+3V3*%
X-1500000Y-61100000D03*
X7250000Y-68900000D03*
X-4950000Y-69600000D03*
X-1200000Y-64900000D03*
%TO.N,ESP_RX*%
X-4200000Y-63950000D03*
X5300000Y-79400000D03*
X7000000Y-73150000D03*
%TO.N,ESP_TX*%
X6900000Y-79400000D03*
X5500000Y-70100000D03*
X2150000Y-59650000D03*
%TO.N,EN*%
X2550000Y-63600000D03*
X1250000Y-60850000D03*
%TO.N,DTR*%
X6400000Y-65275000D03*
X6200000Y-68950000D03*
%TD*%
D32*
%TO.N,GND*%
X2260000Y-73600000D02*
X3170000Y-73600000D01*
X-3520000Y-62805000D02*
X-3225000Y-63100000D01*
X-3225000Y-63700000D02*
X-3500000Y-63975000D01*
X-575000Y-63438070D02*
X-575000Y-63600000D01*
X-3200000Y-75030000D02*
X-3760000Y-75030000D01*
X-7580000Y-62805000D02*
X-7875000Y-63100000D01*
X-4320000Y-79770000D02*
X-5682500Y-79770000D01*
X-2500000Y-61900000D02*
X-2120000Y-61900000D01*
X-2900000Y-65350000D02*
X-3500000Y-64750000D01*
X-3500000Y-64750000D02*
X-3500000Y-63975000D01*
X-3760000Y-75030000D02*
X-4320000Y-75590000D01*
X-2500000Y-62375000D02*
X-2500000Y-61900000D01*
X4320000Y-75590000D02*
X3760000Y-75590000D01*
X-7580000Y-61800000D02*
X-7580000Y-61270000D01*
X-3520000Y-61800000D02*
X-3520000Y-62805000D01*
X925000Y-62100000D02*
X-575000Y-63600000D01*
X975000Y-62100000D02*
X925000Y-62100000D01*
X-7580000Y-61270000D02*
X-7900000Y-60950000D01*
X-1893070Y-62120000D02*
X-575000Y-63438070D01*
X-5682500Y-79770000D02*
X-6100000Y-80187500D01*
X-2120000Y-61900000D02*
X-1900000Y-62120000D01*
X-7580000Y-61800000D02*
X-7580000Y-62805000D01*
X-3225000Y-63100000D02*
X-3225000Y-63700000D01*
X-1900000Y-62120000D02*
X-1893070Y-62120000D01*
X-3225000Y-63100000D02*
X-2500000Y-62375000D01*
X3760000Y-75590000D02*
X3200000Y-75030000D01*
%TO.N,+5V*%
X6250000Y-57375000D02*
X4950000Y-56075000D01*
X-7000000Y-73250000D02*
X-7000000Y-73690000D01*
D33*
X2400000Y-75030000D02*
X2400000Y-75550000D01*
D32*
X-2400000Y-75030000D02*
X-2400000Y-74050000D01*
X-8000000Y-59900000D02*
X-7500000Y-60400000D01*
X-6800000Y-73100000D02*
X-6950000Y-73250000D01*
X-1700000Y-66070000D02*
X-1700000Y-65500000D01*
X-2279304Y-63779304D02*
X-2300000Y-63800000D01*
X6575000Y-70225000D02*
X6600000Y-70200000D01*
X-7575000Y-56075000D02*
X-8000000Y-56500000D01*
X-1900000Y-63371195D02*
X-2279304Y-63750499D01*
X-6950000Y-73250000D02*
X-7000000Y-73250000D01*
X-2279304Y-63750499D02*
X-2279304Y-63779304D01*
X-6620000Y-60680000D02*
X-6620000Y-61800000D01*
X-7500000Y-64275000D02*
X-7087500Y-63862500D01*
X-6620000Y-61800000D02*
X-6620000Y-62805000D01*
X-6620000Y-62805000D02*
X-6325000Y-63100000D01*
X-1900000Y-63080000D02*
X-1900000Y-63371195D01*
X-7500000Y-60400000D02*
X-6900000Y-60400000D01*
X-7087500Y-63862500D02*
X-6325000Y-63100000D01*
X-7500000Y-65350000D02*
X-7500000Y-64275000D01*
X4950000Y-56075000D02*
X-7575000Y-56075000D01*
X-1045000Y-66725000D02*
X-1700000Y-66070000D01*
X-6900000Y-60400000D02*
X-6620000Y-60680000D01*
X-8000000Y-56500000D02*
X-8000000Y-59900000D01*
D33*
X2400000Y-75550000D02*
X1450000Y-76500000D01*
D32*
X6575000Y-71675000D02*
X6575000Y-70225000D01*
%TO.N,Net-(U1-V3)*%
X4130000Y-73600000D02*
X4660000Y-73070000D01*
X4660000Y-73070000D02*
X4660000Y-70653249D01*
X4306751Y-70300000D02*
X3763249Y-70300000D01*
X2765000Y-71298249D02*
X2765000Y-71675000D01*
X4660000Y-70653249D02*
X4306751Y-70300000D01*
X3763249Y-70300000D02*
X2765000Y-71298249D01*
%TO.N,+3V3*%
X-1565000Y-61165000D02*
X-1500000Y-61100000D01*
X6000000Y-73710000D02*
X7000000Y-74710000D01*
X-8000000Y-72100000D02*
X-7550000Y-71650000D01*
X8470000Y-73220000D02*
X8470000Y-71550000D01*
X225000Y-66725000D02*
X225000Y-65735000D01*
X975000Y-63600000D02*
X677138Y-63600000D01*
X-4480000Y-61792391D02*
X-3852609Y-61165000D01*
X6000000Y-73690000D02*
X6000000Y-73710000D01*
X-4480000Y-62805000D02*
X-4775000Y-63100000D01*
X-5200000Y-65350000D02*
X-5200000Y-69350000D01*
X-7550000Y-71650000D02*
X-5200000Y-71650000D01*
X8000000Y-73690000D02*
X8470000Y-73220000D01*
X225000Y-65735000D02*
X-610000Y-64900000D01*
X8000000Y-73690000D02*
X8000000Y-73710000D01*
X-8000000Y-73690000D02*
X-8000000Y-72100000D01*
X-4950000Y-69600000D02*
X-5200000Y-69850000D01*
X-622862Y-64900000D02*
X-1200000Y-64900000D01*
X-5200000Y-69350000D02*
X-4950000Y-69600000D01*
X-4480000Y-61800000D02*
X-4480000Y-62805000D01*
X8470000Y-71550000D02*
X8470000Y-70120000D01*
X-4480000Y-61800000D02*
X-4480000Y-61792391D01*
X-4775000Y-64925000D02*
X-5200000Y-65350000D01*
X8000000Y-73710000D02*
X7000000Y-74710000D01*
X8470000Y-70120000D02*
X7250000Y-68900000D01*
X-610000Y-64900000D02*
X-1200000Y-64900000D01*
X-4775000Y-63100000D02*
X-4775000Y-64925000D01*
X-3852609Y-61165000D02*
X-1565000Y-61165000D01*
X-5200000Y-69850000D02*
X-5200000Y-71650000D01*
X677138Y-63600000D02*
X-622862Y-64900000D01*
%TO.N,ESP_RX*%
X7200000Y-69850000D02*
X7200000Y-72950000D01*
X4679129Y-69400998D02*
X4803131Y-69525000D01*
X-1275000Y-69525000D02*
X-4050000Y-66750000D01*
X-4074501Y-64075499D02*
X-4200000Y-63950000D01*
X300000Y-71600000D02*
X300000Y-70000000D01*
X6075000Y-80175000D02*
X5300000Y-79400000D01*
X4803131Y-69525000D02*
X6875000Y-69525000D01*
X225000Y-71675000D02*
X300000Y-71600000D01*
X775000Y-69525000D02*
X-1275000Y-69525000D01*
X6875000Y-69525000D02*
X7200000Y-69850000D01*
X6100000Y-80175000D02*
X6075000Y-80175000D01*
X7200000Y-72950000D02*
X7000000Y-73150000D01*
X-4050000Y-66750000D02*
X-4074501Y-66725499D01*
X7000000Y-73150000D02*
X7000000Y-73690000D01*
X-4074501Y-66725499D02*
X-4074501Y-64075499D01*
X300000Y-70000000D02*
X775000Y-69525000D01*
X775000Y-69525000D02*
X899002Y-69400998D01*
X899002Y-69400998D02*
X4679129Y-69400998D01*
%TO.N,ESP_TX*%
X763498Y-58674520D02*
X75480Y-57986502D01*
X4492940Y-69850499D02*
X1949501Y-69850499D01*
X2150000Y-59650000D02*
X1174520Y-58674520D01*
X5500000Y-70100000D02*
X4742441Y-70100000D01*
X4742441Y-70100000D02*
X4492940Y-69850499D01*
X1495000Y-70305000D02*
X1495000Y-71675000D01*
X7687500Y-80187500D02*
X6900000Y-79400000D01*
X75480Y-57986502D02*
X75480Y-57575480D01*
X75480Y-57575480D02*
X-125000Y-57375000D01*
X1949501Y-69850499D02*
X1495000Y-70305000D01*
X1174520Y-58674520D02*
X763498Y-58674520D01*
X-125000Y-57375000D02*
X-1250000Y-57375000D01*
X7700000Y-80187500D02*
X7687500Y-80187500D01*
%TO.N,EN*%
X675000Y-60850000D02*
X1250000Y-60850000D01*
X-575000Y-62100000D02*
X675000Y-60850000D01*
X3150000Y-64200000D02*
X2550000Y-63600000D01*
X3500000Y-64200000D02*
X3150000Y-64200000D01*
%TO.N,IO0*%
X6900000Y-60525000D02*
X6900000Y-64137500D01*
X3750000Y-57375000D02*
X6900000Y-60525000D01*
%TO.N,Net-(D1-A)*%
X-7000000Y-77712500D02*
X-6100000Y-78612500D01*
X-7000000Y-74710000D02*
X-7000000Y-77712500D01*
%TO.N,Net-(D2-A)*%
X-8000000Y-74710000D02*
X-8000000Y-78312500D01*
X-8000000Y-78312500D02*
X-7700000Y-78612500D01*
%TO.N,DTR*%
X6575000Y-66725000D02*
X6575000Y-65450000D01*
X6250000Y-65125000D02*
X6250000Y-62562500D01*
X850000Y-67726751D02*
X2073249Y-68950000D01*
X850000Y-65723249D02*
X850000Y-67726751D01*
X410000Y-64900000D02*
X1290000Y-64900000D01*
X2073249Y-68950000D02*
X6200000Y-68950000D01*
X1290000Y-65283249D02*
X1290000Y-64900000D01*
X6575000Y-65450000D02*
X6400000Y-65275000D01*
X1290000Y-65283249D02*
X850000Y-65723249D01*
X6250000Y-62562500D02*
X5950000Y-62262500D01*
X6400000Y-65275000D02*
X6250000Y-65125000D01*
%TO.N,Net-(D3-A)*%
X6100000Y-78600000D02*
X6100000Y-74810000D01*
X6100000Y-74810000D02*
X6000000Y-74710000D01*
%TO.N,RTS*%
X5505891Y-63405891D02*
X5505891Y-66524109D01*
X5505891Y-66524109D02*
X5305000Y-66725000D01*
X3425480Y-63075480D02*
X3854408Y-63075480D01*
X2550000Y-62200000D02*
X3425480Y-63075480D01*
X5424520Y-63324520D02*
X5505891Y-63405891D01*
X3854408Y-63075480D02*
X4103448Y-63324520D01*
X4103448Y-63324520D02*
X5424520Y-63324520D01*
%TO.N,Net-(D4-A)*%
X8000000Y-78312500D02*
X7700000Y-78612500D01*
X8000000Y-74710000D02*
X8000000Y-78312500D01*
D33*
%TO.N,USB_DP*%
X750000Y-72950000D02*
X295000Y-73405000D01*
X4035000Y-71675000D02*
X4035000Y-72016396D01*
X700000Y-74155000D02*
X750000Y-74205000D01*
X295000Y-73405000D02*
X295000Y-74155000D01*
X-250000Y-75030000D02*
X-250000Y-74205000D01*
X295000Y-74155000D02*
X700000Y-74155000D01*
X4035000Y-72016396D02*
X3101396Y-72950000D01*
X750000Y-74205000D02*
X750000Y-75030000D01*
X-250000Y-74205000D02*
X-200000Y-74155000D01*
X3101396Y-72950000D02*
X750000Y-72950000D01*
X-200000Y-74155000D02*
X295000Y-74155000D01*
%TO.N,USB_DN*%
X250000Y-75030000D02*
X250000Y-75855000D01*
X-750000Y-75750000D02*
X-750000Y-75030000D01*
X1050000Y-77050000D02*
X-95000Y-75905000D01*
X-95000Y-75905000D02*
X-255000Y-75905000D01*
X5305000Y-76520000D02*
X4775000Y-77050000D01*
X5305000Y-71675000D02*
X5305000Y-76520000D01*
X200000Y-75905000D02*
X-255000Y-75905000D01*
X250000Y-75855000D02*
X200000Y-75905000D01*
X-255000Y-75905000D02*
X-595000Y-75905000D01*
X-595000Y-75905000D02*
X-750000Y-75750000D01*
X4775000Y-77050000D02*
X1050000Y-77050000D01*
D32*
%TO.N,Net-(Q1-B)*%
X1900000Y-64490000D02*
X2310000Y-64900000D01*
X1900000Y-61400000D02*
X1900000Y-64490000D01*
X2200000Y-61100000D02*
X1900000Y-61400000D01*
X3350000Y-61100000D02*
X2200000Y-61100000D01*
X4450000Y-62200000D02*
X3350000Y-61100000D01*
%TO.N,Net-(Q2-B)*%
X4679000Y-67751322D02*
X4679000Y-65701968D01*
X4679000Y-65701968D02*
X4550000Y-65572968D01*
X4550000Y-65572968D02*
X4550000Y-64828962D01*
X6223678Y-68026000D02*
X6222198Y-68024520D01*
X4953678Y-68026000D02*
X4679000Y-67751322D01*
X4550000Y-64828962D02*
X4519008Y-64797970D01*
X7850000Y-65077678D02*
X8471000Y-65698678D01*
X8471000Y-67751322D02*
X8196322Y-68026000D01*
X5656322Y-68026000D02*
X4953678Y-68026000D01*
X5657802Y-68024520D02*
X5656322Y-68026000D01*
X8471000Y-65698678D02*
X8471000Y-67751322D01*
X7850000Y-62200000D02*
X7850000Y-65077678D01*
X8196322Y-68026000D02*
X6223678Y-68026000D01*
X6222198Y-68024520D02*
X5657802Y-68024520D01*
%TO.N,Net-(USBC1-CC1)*%
X-1250000Y-75030000D02*
X-1250000Y-74155000D01*
X-5610000Y-73300000D02*
X-6000000Y-73690000D01*
X-2105000Y-73300000D02*
X-5610000Y-73300000D01*
X-1250000Y-74155000D02*
X-2105000Y-73300000D01*
%TO.N,Net-(USBC1-CC2)*%
X1750000Y-74250000D02*
X1750000Y-75030000D01*
X1240000Y-73600000D02*
X1240000Y-73740000D01*
X1240000Y-73740000D02*
X1750000Y-74250000D01*
%TD*%
%TA.AperFunction,Conductor*%
%TO.N,GND*%
G36*
X-5803879Y-74730002D02*
G01*
X-5757386Y-74783658D01*
X-5746000Y-74836000D01*
X-5746000Y-75487679D01*
X-5745999Y-75487679D01*
X-5713614Y-75485132D01*
X-5557602Y-75439806D01*
X-5438834Y-75369566D01*
X-5418851Y-75350311D01*
X-5360528Y-75336000D01*
X-4620000Y-75336000D01*
X-4620000Y-75844000D01*
X-5328000Y-75844000D01*
X-5328000Y-76239277D01*
X-5327999Y-76239281D01*
X-5289262Y-76434023D01*
X-5289260Y-76434028D01*
X-5213277Y-76617466D01*
X-5102967Y-76782557D01*
X-5102962Y-76782564D01*
X-4962564Y-76922962D01*
X-4962557Y-76922967D01*
X-4797466Y-77033277D01*
X-4614028Y-77109260D01*
X-4614023Y-77109262D01*
X-4574000Y-77117223D01*
X-4574000Y-76300071D01*
X-4560060Y-76324216D01*
X-4504205Y-76380071D01*
X-4435796Y-76419567D01*
X-4359496Y-76440011D01*
X-4280504Y-76440011D01*
X-4204204Y-76419567D01*
X-4135795Y-76380071D01*
X-4079940Y-76324216D01*
X-4066000Y-76300071D01*
X-4066000Y-77117223D01*
X-4065999Y-77117223D01*
X-4025976Y-77109262D01*
X-4025971Y-77109260D01*
X-3842533Y-77033277D01*
X-3677442Y-76922967D01*
X-3677435Y-76922962D01*
X-3537037Y-76782564D01*
X-3537032Y-76782557D01*
X-3426722Y-76617467D01*
X-3423936Y-76610741D01*
X-3379386Y-76555461D01*
X-3312022Y-76533042D01*
X-3244528Y-76549843D01*
X-3243366Y-76550513D01*
X-3243365Y-76550515D01*
X-3112135Y-76626281D01*
X-2965766Y-76665500D01*
X-2965764Y-76665500D01*
X-2814236Y-76665500D01*
X-2814234Y-76665500D01*
X-2667865Y-76626281D01*
X-2628877Y-76603771D01*
X-2536638Y-76550517D01*
X-2536636Y-76550516D01*
X-2536635Y-76550515D01*
X-2536633Y-76550513D01*
X-2536628Y-76550509D01*
X-2429490Y-76443371D01*
X-2429482Y-76443361D01*
X-2353721Y-76312139D01*
X-2353718Y-76312132D01*
X-2330499Y-76225474D01*
X-2314500Y-76165766D01*
X-2314500Y-76031499D01*
X-2312525Y-76024773D01*
X-2313761Y-76017875D01*
X-2302652Y-75991150D01*
X-2294498Y-75963378D01*
X-2289200Y-75958787D01*
X-2286511Y-75952317D01*
X-2262718Y-75935841D01*
X-2240842Y-75916885D01*
X-2232508Y-75914921D01*
X-2228143Y-75911898D01*
X-2201273Y-75907560D01*
X-2192842Y-75905574D01*
X-2190667Y-75905499D01*
X-2055136Y-75905499D01*
X-2030009Y-75902585D01*
X-2023560Y-75899737D01*
X-2004341Y-75899075D01*
X-1987396Y-75903422D01*
X-1979627Y-75903422D01*
X-1979404Y-75901493D01*
X-1969991Y-75902584D01*
X-1969991Y-75902585D01*
X-1944865Y-75905500D01*
X-1555136Y-75905499D01*
X-1530009Y-75902585D01*
X-1530008Y-75902584D01*
X-1520593Y-75901493D01*
X-1520369Y-75903420D01*
X-1479627Y-75903422D01*
X-1479404Y-75901493D01*
X-1469991Y-75902584D01*
X-1469991Y-75902585D01*
X-1444865Y-75905500D01*
X-1195425Y-75905499D01*
X-1127306Y-75925501D01*
X-1086306Y-75968500D01*
X-1070480Y-75995913D01*
X-840913Y-76225480D01*
X-749588Y-76278207D01*
X-647727Y-76305500D01*
X-542273Y-76305500D01*
X-313083Y-76305500D01*
X-244962Y-76325502D01*
X-223992Y-76342400D01*
X725119Y-77291511D01*
X725140Y-77291534D01*
X804080Y-77370474D01*
X804085Y-77370478D01*
X804087Y-77370480D01*
X895413Y-77423207D01*
X997274Y-77450501D01*
X997276Y-77450501D01*
X1110445Y-77450501D01*
X1110461Y-77450500D01*
X4827725Y-77450500D01*
X4827727Y-77450500D01*
X4929588Y-77423207D01*
X5020913Y-77370480D01*
X5099893Y-77291500D01*
X5459405Y-76931989D01*
X5521717Y-76897963D01*
X5592532Y-76903028D01*
X5649368Y-76945575D01*
X5674179Y-77012095D01*
X5674500Y-77021084D01*
X5674500Y-77804072D01*
X5654498Y-77872193D01*
X5600842Y-77918686D01*
X5594724Y-77921287D01*
X5586868Y-77924384D01*
X5586864Y-77924387D01*
X5473135Y-78010630D01*
X5386884Y-78124369D01*
X5334520Y-78257153D01*
X5324500Y-78340594D01*
X5324500Y-78645232D01*
X5304498Y-78713353D01*
X5250842Y-78759846D01*
X5180568Y-78769950D01*
X5115988Y-78740456D01*
X5107459Y-78731697D01*
X5107342Y-78731815D01*
X4962559Y-78587033D01*
X4962557Y-78587032D01*
X4797467Y-78476722D01*
X4614020Y-78400736D01*
X4614015Y-78400735D01*
X4574000Y-78392774D01*
X4574000Y-79209940D01*
X4560060Y-79185796D01*
X4504205Y-79129941D01*
X4435796Y-79090445D01*
X4359496Y-79070001D01*
X4280504Y-79070001D01*
X4204204Y-79090445D01*
X4135795Y-79129941D01*
X4079940Y-79185796D01*
X4066000Y-79209940D01*
X4066000Y-78392775D01*
X4065999Y-78392774D01*
X4025984Y-78400735D01*
X4025979Y-78400736D01*
X3842532Y-78476722D01*
X3677442Y-78587032D01*
X3677435Y-78587037D01*
X3537037Y-78727435D01*
X3537032Y-78727442D01*
X3426722Y-78892533D01*
X3350739Y-79075971D01*
X3350737Y-79075976D01*
X3312000Y-79270718D01*
X3312000Y-79516000D01*
X4020000Y-79516000D01*
X4020000Y-80024000D01*
X3312000Y-80024000D01*
X3312000Y-80269281D01*
X3350737Y-80464023D01*
X3350739Y-80464028D01*
X3426722Y-80647466D01*
X3530979Y-80803498D01*
X3552194Y-80871251D01*
X3533411Y-80939718D01*
X3480594Y-80987161D01*
X3426214Y-80999500D01*
X-3426214Y-80999500D01*
X-3494335Y-80979498D01*
X-3540828Y-80925842D01*
X-3550932Y-80855568D01*
X-3530979Y-80803498D01*
X-3426722Y-80647466D01*
X-3350739Y-80464028D01*
X-3350737Y-80464023D01*
X-3312000Y-80269281D01*
X-3312000Y-80024000D01*
X-4020000Y-80024000D01*
X-4020000Y-79516000D01*
X-3312000Y-79516000D01*
X-3312000Y-79270718D01*
X-3350737Y-79075976D01*
X-3350739Y-79075971D01*
X-3426722Y-78892533D01*
X-3537032Y-78727442D01*
X-3537037Y-78727435D01*
X-3677435Y-78587037D01*
X-3677442Y-78587032D01*
X-3842532Y-78476722D01*
X-4025979Y-78400736D01*
X-4025984Y-78400735D01*
X-4065999Y-78392774D01*
X-4066000Y-78392775D01*
X-4066000Y-79209940D01*
X-4079940Y-79185796D01*
X-4135795Y-79129941D01*
X-4204204Y-79090445D01*
X-4280504Y-79070001D01*
X-4359496Y-79070001D01*
X-4435796Y-79090445D01*
X-4504205Y-79129941D01*
X-4560060Y-79185796D01*
X-4574000Y-79209940D01*
X-4574000Y-78392774D01*
X-4614015Y-78400735D01*
X-4614020Y-78400736D01*
X-4797467Y-78476722D01*
X-4962557Y-78587032D01*
X-4962564Y-78587037D01*
X-5107342Y-78731815D01*
X-5108765Y-78730391D01*
X-5159796Y-78765141D01*
X-5230767Y-78767031D01*
X-5291494Y-78730251D01*
X-5322696Y-78666478D01*
X-5324500Y-78645233D01*
X-5324500Y-78353094D01*
X-5334520Y-78269653D01*
X-5386884Y-78136869D01*
X-5473133Y-78023133D01*
X-5489621Y-78010630D01*
X-5586868Y-77936885D01*
X-5586869Y-77936884D01*
X-5719653Y-77884520D01*
X-5719652Y-77884520D01*
X-5803094Y-77874500D01*
X-5803098Y-77874500D01*
X-6184062Y-77874500D01*
X-6252183Y-77854498D01*
X-6273158Y-77837595D01*
X-6537596Y-77573156D01*
X-6571621Y-77510844D01*
X-6574500Y-77484061D01*
X-6574500Y-75569243D01*
X-6554498Y-75501122D01*
X-6500842Y-75454629D01*
X-6430568Y-75444525D01*
X-6413347Y-75448246D01*
X-6286385Y-75485132D01*
X-6254000Y-75487679D01*
X-6254000Y-74836000D01*
X-6233998Y-74767879D01*
X-6180342Y-74721386D01*
X-6128000Y-74710000D01*
X-5872000Y-74710000D01*
X-5803879Y-74730002D01*
G37*
%TD.AperFunction*%
%TA.AperFunction,Conductor*%
G36*
X-6157879Y-79953502D02*
G01*
X-6111386Y-80007158D01*
X-6100000Y-80059500D01*
X-6100000Y-80315500D01*
X-6120002Y-80383621D01*
X-6173658Y-80430114D01*
X-6226000Y-80441500D01*
X-7574000Y-80441500D01*
X-7642121Y-80421498D01*
X-7688614Y-80367842D01*
X-7700000Y-80315500D01*
X-7700000Y-80059500D01*
X-7679998Y-79991379D01*
X-7626342Y-79944886D01*
X-7574000Y-79933500D01*
X-6226000Y-79933500D01*
X-6157879Y-79953502D01*
G37*
%TD.AperFunction*%
%TA.AperFunction,Conductor*%
G36*
X3330273Y-73609476D02*
G01*
X3362837Y-73617962D01*
X3364196Y-73619436D01*
X3366121Y-73620002D01*
X3388151Y-73645427D01*
X3410954Y-73670166D01*
X3411782Y-73672698D01*
X3412614Y-73673658D01*
X3413639Y-73678370D01*
X3422109Y-73704251D01*
X3452109Y-73875442D01*
X3454000Y-73897191D01*
X3454000Y-74904000D01*
X3433998Y-74972121D01*
X3380342Y-75018614D01*
X3328000Y-75030000D01*
X3126499Y-75030000D01*
X3058378Y-75009998D01*
X3011885Y-74956342D01*
X3000499Y-74904000D01*
X3000499Y-74410140D01*
X3000499Y-74410136D01*
X2997585Y-74385009D01*
X2952206Y-74282235D01*
X2952206Y-74282234D01*
X2945608Y-74272603D01*
X2946813Y-74271777D01*
X2918879Y-74220621D01*
X2916000Y-74193838D01*
X2916000Y-73726000D01*
X2936002Y-73657879D01*
X2989658Y-73611386D01*
X3042000Y-73600000D01*
X3298000Y-73600000D01*
X3330273Y-73609476D01*
G37*
%TD.AperFunction*%
%TA.AperFunction,Conductor*%
G36*
X-3628038Y-73745502D02*
G01*
X-3581545Y-73799158D01*
X-3571441Y-73869432D01*
X-3600935Y-73934012D01*
X-3652127Y-73969556D01*
X-3745964Y-74004555D01*
X-3745965Y-74004555D01*
X-3845186Y-74078832D01*
X-3911706Y-74103643D01*
X-3968912Y-74094373D01*
X-4025971Y-74070738D01*
X-4025982Y-74070735D01*
X-4065999Y-74062774D01*
X-4066000Y-74062775D01*
X-4066000Y-74879928D01*
X-4079940Y-74855784D01*
X-4135795Y-74799929D01*
X-4204204Y-74760433D01*
X-4280504Y-74739989D01*
X-4359496Y-74739989D01*
X-4435796Y-74760433D01*
X-4504205Y-74799929D01*
X-4560060Y-74855784D01*
X-4574000Y-74879928D01*
X-4574000Y-74062774D01*
X-4614015Y-74070735D01*
X-4614020Y-74070736D01*
X-4797467Y-74146722D01*
X-4962557Y-74257032D01*
X-4962559Y-74257033D01*
X-5032099Y-74326572D01*
X-5094412Y-74360597D01*
X-5165227Y-74355531D01*
X-5222063Y-74312984D01*
X-5229647Y-74301616D01*
X-5302891Y-74177768D01*
X-5375921Y-74104738D01*
X-5379907Y-74097437D01*
X-5386634Y-74092546D01*
X-5396671Y-74066735D01*
X-5409946Y-74042425D01*
X-5410015Y-74032423D01*
X-5412367Y-74026377D01*
X-5410177Y-74009044D01*
X-5410306Y-73990573D01*
X-5408593Y-73982138D01*
X-5382259Y-73906879D01*
X-5379500Y-73877457D01*
X-5379500Y-73838837D01*
X-5376981Y-73826430D01*
X-5366076Y-73805782D01*
X-5359498Y-73783379D01*
X-5349811Y-73774985D01*
X-5343825Y-73763651D01*
X-5323489Y-73752177D01*
X-5305842Y-73736886D01*
X-5290454Y-73733538D01*
X-5281992Y-73728764D01*
X-5271326Y-73729377D01*
X-5253500Y-73725500D01*
X-3696159Y-73725500D01*
X-3628038Y-73745502D01*
G37*
%TD.AperFunction*%
%TA.AperFunction,Conductor*%
G36*
X-4565988Y-66971142D02*
G01*
X-4539381Y-67003364D01*
X-4490509Y-67088015D01*
X-4388015Y-67190509D01*
X-4262485Y-67262984D01*
X-4126085Y-67299532D01*
X-4069606Y-67332141D01*
X-1615485Y-69786263D01*
X-1536263Y-69865485D01*
X-1439237Y-69921503D01*
X-1331018Y-69950500D01*
X-1331011Y-69950500D01*
X-1325208Y-69951264D01*
X-1260279Y-69979983D01*
X-1221184Y-70039246D01*
X-1220335Y-70110237D01*
X-1258002Y-70170418D01*
X-1306493Y-70197184D01*
X-1458401Y-70241318D01*
X-1601501Y-70325948D01*
X-1601503Y-70325949D01*
X-1719050Y-70443496D01*
X-1719051Y-70443498D01*
X-1803681Y-70586598D01*
X-1850065Y-70746250D01*
X-1853000Y-70783543D01*
X-1853000Y-71421000D01*
X-1171000Y-71421000D01*
X-1102879Y-71441002D01*
X-1056386Y-71494658D01*
X-1045000Y-71547000D01*
X-1045000Y-71675000D01*
X-917000Y-71675000D01*
X-848879Y-71695002D01*
X-802386Y-71748658D01*
X-791000Y-71801000D01*
X-791000Y-73154991D01*
X-631600Y-73108681D01*
X-488497Y-73024051D01*
X-370949Y-72906503D01*
X-370946Y-72906499D01*
X-369623Y-72904262D01*
X-368128Y-72902866D01*
X-366089Y-72900237D01*
X-365664Y-72900566D01*
X-317730Y-72855810D01*
X-247879Y-72843105D01*
X-204877Y-72855676D01*
X-195124Y-72860546D01*
X-137882Y-72902793D01*
X-46487Y-72934773D01*
X-39353Y-72938336D01*
X-18961Y-72957285D01*
X3660Y-72973510D01*
X6670Y-72981104D01*
X12655Y-72986666D01*
X19565Y-73013633D01*
X29823Y-73039510D01*
X28249Y-73047525D01*
X30278Y-73055440D01*
X21511Y-73081862D01*
X16151Y-73109178D01*
X9385Y-73118409D01*
X7921Y-73122825D01*
X3584Y-73126326D01*
X-6551Y-73140157D01*
X-25474Y-73159080D01*
X-25482Y-73159090D01*
X-31210Y-73169011D01*
X-78207Y-73250412D01*
X-100368Y-73333121D01*
X-105024Y-73350500D01*
X-105499Y-73352271D01*
X-105500Y-73352273D01*
X-105500Y-73628499D01*
X-125502Y-73696620D01*
X-179158Y-73743113D01*
X-207175Y-73752129D01*
X-219221Y-73754499D01*
X-252727Y-73754499D01*
X-341204Y-73778207D01*
X-345307Y-73779306D01*
X-345325Y-73779310D01*
X-354577Y-73781790D01*
X-354580Y-73781791D01*
X-354587Y-73781793D01*
X-354589Y-73781794D01*
X-354591Y-73781795D01*
X-445909Y-73834517D01*
X-445912Y-73834519D01*
X-445913Y-73834520D01*
X-495913Y-73884520D01*
X-515630Y-73904237D01*
X-545405Y-73934012D01*
X-570478Y-73959085D01*
X-570482Y-73959090D01*
X-617486Y-74040503D01*
X-668869Y-74089496D01*
X-738582Y-74102932D01*
X-804493Y-74076546D01*
X-845675Y-74018713D01*
X-848311Y-74010116D01*
X-853495Y-73990769D01*
X-853499Y-73990758D01*
X-909512Y-73893740D01*
X-909516Y-73893735D01*
X-968735Y-73834517D01*
X-988737Y-73814515D01*
X-1444278Y-73358974D01*
X-1478303Y-73296662D01*
X-1473238Y-73225846D01*
X-1430691Y-73169011D01*
X-1364171Y-73144200D01*
X-1320028Y-73148882D01*
X-1299000Y-73154991D01*
X-1299000Y-71929000D01*
X-1852999Y-71929000D01*
X-1852999Y-72566456D01*
X-1850065Y-72603749D01*
X-1810358Y-72740419D01*
X-1810561Y-72811416D01*
X-1849114Y-72871032D01*
X-1913779Y-72900341D01*
X-1963965Y-72897280D01*
X-2048982Y-72874500D01*
X-2048983Y-72874500D01*
X-2879591Y-72874500D01*
X-2947712Y-72854498D01*
X-2994205Y-72800842D01*
X-3004309Y-72730568D01*
X-3002792Y-72723242D01*
X-2999500Y-72694870D01*
X-2999500Y-70605140D01*
X-2999501Y-70605133D01*
X-3002414Y-70580009D01*
X-3002416Y-70580005D01*
X-3047793Y-70477234D01*
X-3127232Y-70397795D01*
X-3127234Y-70397794D01*
X-3230010Y-70352414D01*
X-3230009Y-70352414D01*
X-3255129Y-70349500D01*
X-3255135Y-70349500D01*
X-4648500Y-70349500D01*
X-4657325Y-70346908D01*
X-4666432Y-70348218D01*
X-4690857Y-70337062D01*
X-4716621Y-70329498D01*
X-4722645Y-70322544D01*
X-4731012Y-70318724D01*
X-4745526Y-70296138D01*
X-4763114Y-70275842D01*
X-4765438Y-70265155D01*
X-4769396Y-70258998D01*
X-4774500Y-70223500D01*
X-4774500Y-70207083D01*
X-4754498Y-70138962D01*
X-4711500Y-70097964D01*
X-4701734Y-70092326D01*
X-4611985Y-70040509D01*
X-4611983Y-70040507D01*
X-4611978Y-70040503D01*
X-4509496Y-69938021D01*
X-4509488Y-69938011D01*
X-4437016Y-69812485D01*
X-4419671Y-69747752D01*
X-4399500Y-69672475D01*
X-4399500Y-69527526D01*
X-4399499Y-69527526D01*
X-4437016Y-69387514D01*
X-4509488Y-69261988D01*
X-4509496Y-69261978D01*
X-4611978Y-69159496D01*
X-4611985Y-69159490D01*
X-4711501Y-69102035D01*
X-4760494Y-69050652D01*
X-4774500Y-68992916D01*
X-4774500Y-67066366D01*
X-4754498Y-66998245D01*
X-4700842Y-66951752D01*
X-4630568Y-66941648D01*
X-4565988Y-66971142D01*
G37*
%TD.AperFunction*%
%TA.AperFunction,Conductor*%
G36*
X-6283221Y-66393137D02*
G01*
X-6236055Y-66446202D01*
X-6234740Y-66449081D01*
X-6202206Y-66522765D01*
X-6122765Y-66602206D01*
X-6019991Y-66647585D01*
X-5994865Y-66650500D01*
X-5751499Y-66650499D01*
X-5683380Y-66670501D01*
X-5636887Y-66724156D01*
X-5625500Y-66776499D01*
X-5625500Y-69293982D01*
X-5625500Y-69406018D01*
X-5596503Y-69514237D01*
X-5583360Y-69537000D01*
X-5566622Y-69605994D01*
X-5583360Y-69662999D01*
X-5596503Y-69685763D01*
X-5625500Y-69793982D01*
X-5625500Y-69793983D01*
X-5625500Y-70223500D01*
X-5645502Y-70291621D01*
X-5699158Y-70338114D01*
X-5751500Y-70349500D01*
X-7144859Y-70349500D01*
X-7144866Y-70349501D01*
X-7169990Y-70352414D01*
X-7169994Y-70352416D01*
X-7272765Y-70397793D01*
X-7352204Y-70477232D01*
X-7352205Y-70477234D01*
X-7352206Y-70477235D01*
X-7397585Y-70580009D01*
X-7399860Y-70599623D01*
X-7400499Y-70605129D01*
X-7400500Y-70605132D01*
X-7400500Y-71098500D01*
X-7420502Y-71166621D01*
X-7474158Y-71213114D01*
X-7526500Y-71224500D01*
X-7606018Y-71224500D01*
X-7685236Y-71245726D01*
X-7714234Y-71253496D01*
X-7714235Y-71253496D01*
X-7714237Y-71253497D01*
X-7714238Y-71253498D01*
X-7714241Y-71253499D01*
X-7811259Y-71309512D01*
X-7811261Y-71309514D01*
X-7811263Y-71309515D01*
X-8261263Y-71759515D01*
X-8340485Y-71838737D01*
X-8396503Y-71935763D01*
X-8425500Y-72043982D01*
X-8425500Y-72043983D01*
X-8425500Y-73127625D01*
X-8426930Y-73132497D01*
X-8425885Y-73137467D01*
X-8436832Y-73166220D01*
X-8445502Y-73195746D01*
X-8449833Y-73200366D01*
X-8451147Y-73203817D01*
X-8476678Y-73229004D01*
X-8498678Y-73245241D01*
X-8565365Y-73269599D01*
X-8634635Y-73254037D01*
X-8684495Y-73203495D01*
X-8699500Y-73143862D01*
X-8699500Y-66629662D01*
X-8679498Y-66561541D01*
X-8625842Y-66515048D01*
X-8555568Y-66504944D01*
X-8490988Y-66534438D01*
X-8484405Y-66540567D01*
X-8444844Y-66580127D01*
X-8422765Y-66602206D01*
X-8319991Y-66647585D01*
X-8294865Y-66650500D01*
X-6705136Y-66650499D01*
X-6680009Y-66647585D01*
X-6639417Y-66629662D01*
X-6577234Y-66602206D01*
X-6497795Y-66522767D01*
X-6497794Y-66522765D01*
X-6465264Y-66449091D01*
X-6419451Y-66394854D01*
X-6351588Y-66373995D01*
X-6283221Y-66393137D01*
G37*
%TD.AperFunction*%
%TA.AperFunction,Conductor*%
G36*
X-2703879Y-65370002D02*
G01*
X-2657386Y-65423658D01*
X-2646000Y-65476000D01*
X-2646000Y-66858000D01*
X-2101415Y-66858000D01*
X-2101402Y-66857999D01*
X-2040906Y-66851494D01*
X-1904035Y-66800444D01*
X-1904033Y-66800443D01*
X-1847010Y-66757755D01*
X-1780490Y-66732943D01*
X-1711116Y-66748034D01*
X-1660913Y-66798235D01*
X-1645500Y-66858622D01*
X-1645500Y-67604266D01*
X-1642646Y-67634699D01*
X-1605439Y-67741032D01*
X-1597793Y-67762881D01*
X-1597791Y-67762885D01*
X-1564981Y-67807341D01*
X-1517150Y-67872150D01*
X-1407882Y-67952793D01*
X-1279699Y-67997646D01*
X-1249266Y-68000500D01*
X-1249264Y-68000500D01*
X-840736Y-68000500D01*
X-840734Y-68000500D01*
X-810301Y-67997646D01*
X-764229Y-67981525D01*
X-682118Y-67952793D01*
X-682114Y-67952791D01*
X-572851Y-67872152D01*
X-511380Y-67788860D01*
X-454835Y-67745928D01*
X-384055Y-67740381D01*
X-321513Y-67773982D01*
X-308623Y-67788856D01*
X-247150Y-67872150D01*
X-247148Y-67872150D01*
X-247148Y-67872152D01*
X-188333Y-67915559D01*
X-137882Y-67952793D01*
X-9699Y-67997646D01*
X20734Y-68000500D01*
X20736Y-68000500D01*
X429264Y-68000500D01*
X429266Y-68000500D01*
X429269Y-68000499D01*
X429280Y-68000499D01*
X455071Y-67998080D01*
X524763Y-68011632D01*
X555934Y-68034433D01*
X1281906Y-68760404D01*
X1315930Y-68822715D01*
X1310866Y-68893530D01*
X1268319Y-68950366D01*
X1201799Y-68975177D01*
X1192810Y-68975498D01*
X955020Y-68975498D01*
X842983Y-68975498D01*
X784991Y-68991036D01*
X734767Y-69004494D01*
X734760Y-69004497D01*
X637742Y-69060510D01*
X637732Y-69060518D01*
X635656Y-69062595D01*
X633472Y-69063787D01*
X631187Y-69065541D01*
X630913Y-69065184D01*
X573344Y-69096621D01*
X546561Y-69099500D01*
X-1046562Y-69099500D01*
X-1114683Y-69079498D01*
X-1135657Y-69062595D01*
X-3158030Y-67040221D01*
X-3192056Y-66977909D01*
X-3186991Y-66907093D01*
X-3158030Y-66862031D01*
X-3154000Y-66858001D01*
X-3154000Y-65476000D01*
X-3133998Y-65407879D01*
X-3080342Y-65361386D01*
X-3028000Y-65350000D01*
X-2772000Y-65350000D01*
X-2703879Y-65370002D01*
G37*
%TD.AperFunction*%
%TA.AperFunction,Conductor*%
G36*
X2537221Y-57647398D02*
G01*
X2596393Y-57686631D01*
X2624448Y-57748063D01*
X2625562Y-57755095D01*
X2627829Y-57769411D01*
X2683787Y-57941634D01*
X2683789Y-57941639D01*
X2766004Y-58102994D01*
X2872447Y-58249501D01*
X2872449Y-58249503D01*
X2872451Y-58249506D01*
X3000493Y-58377548D01*
X3000496Y-58377550D01*
X3000499Y-58377553D01*
X3147006Y-58483996D01*
X3308361Y-58566211D01*
X3480591Y-58622171D01*
X3659454Y-58650500D01*
X3659457Y-58650500D01*
X3840543Y-58650500D01*
X3840546Y-58650500D01*
X4019409Y-58622171D01*
X4191639Y-58566211D01*
X4207997Y-58557876D01*
X4277768Y-58544768D01*
X4343554Y-58571464D01*
X4354297Y-58581045D01*
X6437595Y-60664343D01*
X6471621Y-60726655D01*
X6474500Y-60753438D01*
X6474500Y-61151179D01*
X6454498Y-61219300D01*
X6400842Y-61265793D01*
X6330568Y-61275897D01*
X6306885Y-61270108D01*
X6184704Y-61227355D01*
X6184700Y-61227354D01*
X6154266Y-61224500D01*
X5745734Y-61224500D01*
X5745733Y-61224500D01*
X5715299Y-61227354D01*
X5715295Y-61227355D01*
X5587118Y-61272206D01*
X5587114Y-61272208D01*
X5477849Y-61352849D01*
X5397208Y-61462114D01*
X5397206Y-61462118D01*
X5352355Y-61590295D01*
X5352354Y-61590299D01*
X5349500Y-61620733D01*
X5349500Y-62773020D01*
X5346908Y-62781845D01*
X5348218Y-62790952D01*
X5337062Y-62815377D01*
X5329498Y-62841141D01*
X5322544Y-62847165D01*
X5318724Y-62855532D01*
X5296138Y-62870046D01*
X5275842Y-62887634D01*
X5265155Y-62889958D01*
X5258998Y-62893916D01*
X5223500Y-62899020D01*
X5176500Y-62899020D01*
X5108379Y-62879018D01*
X5061886Y-62825362D01*
X5050500Y-62773020D01*
X5050500Y-61620735D01*
X5050500Y-61620734D01*
X5047646Y-61590301D01*
X5039143Y-61566002D01*
X5002793Y-61462118D01*
X5002791Y-61462114D01*
X4922150Y-61352849D01*
X4812885Y-61272208D01*
X4812881Y-61272206D01*
X4684704Y-61227355D01*
X4684700Y-61227354D01*
X4654266Y-61224500D01*
X4245734Y-61224500D01*
X4245733Y-61224500D01*
X4215299Y-61227354D01*
X4215294Y-61227355D01*
X4189130Y-61236510D01*
X4118226Y-61240128D01*
X4058424Y-61206676D01*
X3611263Y-60759515D01*
X3611261Y-60759514D01*
X3611259Y-60759512D01*
X3514241Y-60703499D01*
X3514238Y-60703498D01*
X3514237Y-60703497D01*
X3514235Y-60703496D01*
X3514234Y-60703496D01*
X3485236Y-60695726D01*
X3406018Y-60674500D01*
X2256018Y-60674500D01*
X2143982Y-60674500D01*
X2085990Y-60690038D01*
X2035765Y-60703496D01*
X2035760Y-60703498D01*
X1957046Y-60748944D01*
X1888051Y-60765681D01*
X1820959Y-60742460D01*
X1777072Y-60686653D01*
X1772343Y-60672443D01*
X1762984Y-60637515D01*
X1705825Y-60538514D01*
X1690511Y-60511988D01*
X1690503Y-60511978D01*
X1588021Y-60409496D01*
X1588011Y-60409488D01*
X1462485Y-60337016D01*
X1322475Y-60299500D01*
X1177525Y-60299500D01*
X1084185Y-60324510D01*
X1037514Y-60337016D01*
X915227Y-60407619D01*
X852227Y-60424500D01*
X731018Y-60424500D01*
X618982Y-60424500D01*
X560990Y-60440038D01*
X510765Y-60453496D01*
X510758Y-60453499D01*
X413740Y-60509512D01*
X413734Y-60509517D01*
X196597Y-60726655D01*
X-364344Y-61287596D01*
X-426655Y-61321620D01*
X-453438Y-61324500D01*
X-826029Y-61324500D01*
X-894150Y-61304498D01*
X-940643Y-61250842D01*
X-950747Y-61180568D01*
X-950241Y-61178105D01*
X-949500Y-61172473D01*
X-949500Y-61027526D01*
X-949499Y-61027526D01*
X-987016Y-60887514D01*
X-1059488Y-60761988D01*
X-1059496Y-60761978D01*
X-1161978Y-60659496D01*
X-1161988Y-60659488D01*
X-1287514Y-60587016D01*
X-1334185Y-60574510D01*
X-1427525Y-60549500D01*
X-1572475Y-60549500D01*
X-1712485Y-60587016D01*
X-1838011Y-60659488D01*
X-1838014Y-60659490D01*
X-1838015Y-60659491D01*
X-1881120Y-60702596D01*
X-1943430Y-60736620D01*
X-1970214Y-60739500D01*
X-3796590Y-60739500D01*
X-3908627Y-60739500D01*
X-3983313Y-60759512D01*
X-4016843Y-60768496D01*
X-4016844Y-60768496D01*
X-4016846Y-60768497D01*
X-4016847Y-60768498D01*
X-4016850Y-60768499D01*
X-4113868Y-60824512D01*
X-4113870Y-60824514D01*
X-4113872Y-60824515D01*
X-4441953Y-61152596D01*
X-4504264Y-61186620D01*
X-4531047Y-61189500D01*
X-4673068Y-61189500D01*
X-4702819Y-61192290D01*
X-4702824Y-61192291D01*
X-4828153Y-61236146D01*
X-4828158Y-61236148D01*
X-4934999Y-61315000D01*
X-5013851Y-61421841D01*
X-5013853Y-61421846D01*
X-5050123Y-61525500D01*
X-5057710Y-61547181D01*
X-5060500Y-61576934D01*
X-5060500Y-62023066D01*
X-5057710Y-62052819D01*
X-5017603Y-62167434D01*
X-5013984Y-62238337D01*
X-5049273Y-62299942D01*
X-5112265Y-62332690D01*
X-5121502Y-62334149D01*
X-5125586Y-62334639D01*
X-5125590Y-62334640D01*
X-5259974Y-62387635D01*
X-5259978Y-62387638D01*
X-5375078Y-62474921D01*
X-5449603Y-62573196D01*
X-5506702Y-62615389D01*
X-5577548Y-62620014D01*
X-5639647Y-62585602D01*
X-5650397Y-62573196D01*
X-5724921Y-62474921D01*
X-5840021Y-62387638D01*
X-5840025Y-62387635D01*
X-5974410Y-62334640D01*
X-5978499Y-62334149D01*
X-5981573Y-62332830D01*
X-5982239Y-62332662D01*
X-5982212Y-62332556D01*
X-6043746Y-62306163D01*
X-6083506Y-62247343D01*
X-6085153Y-62176366D01*
X-6082395Y-62167433D01*
X-6042291Y-62052824D01*
X-6042290Y-62052819D01*
X-6039500Y-62023068D01*
X-6039500Y-61576931D01*
X-6042290Y-61547180D01*
X-6042291Y-61547175D01*
X-6086146Y-61421846D01*
X-6086150Y-61421841D01*
X-6165001Y-61315001D01*
X-6165002Y-61315000D01*
X-6169880Y-61308390D01*
X-6194237Y-61241702D01*
X-6194500Y-61233569D01*
X-6194500Y-60623983D01*
X-6223496Y-60515765D01*
X-6223499Y-60515758D01*
X-6279512Y-60418740D01*
X-6279516Y-60418735D01*
X-6337494Y-60360758D01*
X-6358737Y-60339515D01*
X-6536993Y-60161259D01*
X-6638734Y-60059517D01*
X-6638740Y-60059512D01*
X-6735758Y-60003499D01*
X-6735765Y-60003496D01*
X-6793558Y-59988011D01*
X-6843982Y-59974500D01*
X-6843984Y-59974500D01*
X-7271562Y-59974500D01*
X-7301477Y-59965716D01*
X-7331947Y-59959088D01*
X-7337042Y-59955273D01*
X-7339683Y-59954498D01*
X-7360657Y-59937595D01*
X-7537595Y-59760657D01*
X-7571621Y-59698345D01*
X-7574500Y-59671562D01*
X-7574500Y-58751665D01*
X-7554498Y-58683544D01*
X-7500842Y-58637051D01*
X-7430568Y-58626947D01*
X-7365988Y-58656441D01*
X-7359405Y-58662570D01*
X-7323345Y-58698629D01*
X-7323339Y-58698634D01*
X-7172525Y-58791657D01*
X-7004321Y-58847393D01*
X-7004318Y-58847394D01*
X-6900516Y-58857999D01*
X-6900517Y-58858000D01*
X-6504000Y-58858000D01*
X-6504000Y-57776836D01*
X-6433343Y-57817630D01*
X-6312535Y-57850000D01*
X-6187465Y-57850000D01*
X-6066657Y-57817630D01*
X-5996000Y-57776836D01*
X-5996000Y-58858000D01*
X-5599483Y-58858000D01*
X-5599483Y-58857999D01*
X-5495681Y-58847394D01*
X-5495678Y-58847393D01*
X-5327474Y-58791657D01*
X-5176660Y-58698634D01*
X-5176654Y-58698629D01*
X-5051370Y-58573345D01*
X-5051365Y-58573339D01*
X-4958342Y-58422525D01*
X-4902606Y-58254321D01*
X-4902605Y-58254318D01*
X-4901771Y-58246152D01*
X-4874949Y-58180418D01*
X-4816845Y-58139619D01*
X-4745908Y-58136711D01*
X-4684659Y-58172616D01*
X-4674496Y-58184888D01*
X-4627553Y-58249501D01*
X-4499501Y-58377553D01*
X-4352994Y-58483996D01*
X-4191639Y-58566211D01*
X-4019409Y-58622171D01*
X-3840546Y-58650500D01*
X-3840543Y-58650500D01*
X-3659457Y-58650500D01*
X-3659454Y-58650500D01*
X-3480591Y-58622171D01*
X-3308361Y-58566211D01*
X-3147006Y-58483996D01*
X-3000499Y-58377553D01*
X-3000496Y-58377550D01*
X-3000493Y-58377548D01*
X-2872451Y-58249506D01*
X-2872449Y-58249503D01*
X-2872447Y-58249501D01*
X-2766004Y-58102994D01*
X-2683789Y-57941639D01*
X-2683787Y-57941634D01*
X-2627829Y-57769411D01*
X-2625562Y-57755095D01*
X-2624448Y-57748063D01*
X-2594037Y-57683911D01*
X-2533769Y-57646384D01*
X-2462779Y-57647398D01*
X-2403607Y-57686631D01*
X-2375551Y-57748063D01*
X-2372171Y-57769409D01*
X-2316211Y-57941639D01*
X-2233996Y-58102994D01*
X-2127553Y-58249501D01*
X-1999501Y-58377553D01*
X-1852994Y-58483996D01*
X-1691639Y-58566211D01*
X-1519409Y-58622171D01*
X-1340546Y-58650500D01*
X-1340543Y-58650500D01*
X-1159457Y-58650500D01*
X-1159454Y-58650500D01*
X-980591Y-58622171D01*
X-808361Y-58566211D01*
X-647006Y-58483996D01*
X-500499Y-58377553D01*
X-500496Y-58377550D01*
X-500493Y-58377548D01*
X-406952Y-58284007D01*
X-344640Y-58249981D01*
X-273825Y-58255046D01*
X-228766Y-58284003D01*
X423013Y-58935783D01*
X502235Y-59015005D01*
X599261Y-59071023D01*
X707479Y-59100020D01*
X707480Y-59100020D01*
X946082Y-59100020D01*
X1014203Y-59120022D01*
X1035177Y-59136925D01*
X1567856Y-59669604D01*
X1600467Y-59726087D01*
X1637014Y-59862482D01*
X1709488Y-59988011D01*
X1709496Y-59988021D01*
X1811978Y-60090503D01*
X1811983Y-60090507D01*
X1811985Y-60090509D01*
X1937515Y-60162984D01*
X2077525Y-60200500D01*
X2077527Y-60200500D01*
X2222473Y-60200500D01*
X2222475Y-60200500D01*
X2362485Y-60162984D01*
X2488015Y-60090509D01*
X2590509Y-59988015D01*
X2662984Y-59862485D01*
X2700500Y-59722475D01*
X2700500Y-59577525D01*
X2662984Y-59437515D01*
X2590509Y-59311985D01*
X2590507Y-59311983D01*
X2590503Y-59311978D01*
X2488021Y-59209496D01*
X2488011Y-59209488D01*
X2362482Y-59137014D01*
X2226087Y-59100467D01*
X2169604Y-59067856D01*
X1798580Y-58696832D01*
X1764554Y-58634520D01*
X1769619Y-58563705D01*
X1812166Y-58506869D01*
X1830462Y-58495476D01*
X1852994Y-58483996D01*
X1999501Y-58377553D01*
X2127553Y-58249501D01*
X2233996Y-58102994D01*
X2316211Y-57941639D01*
X2372171Y-57769409D01*
X2375551Y-57748063D01*
X2405963Y-57683911D01*
X2466231Y-57646384D01*
X2537221Y-57647398D01*
G37*
%TD.AperFunction*%
%TA.AperFunction,Conductor*%
G36*
X7705474Y-51600979D02*
G01*
X7707189Y-51601129D01*
X7851474Y-51613752D01*
X7865006Y-51615684D01*
X7894188Y-51621489D01*
X7902177Y-51623352D01*
X8026804Y-51656746D01*
X8042393Y-51662037D01*
X8059199Y-51668998D01*
X8064187Y-51671193D01*
X8095631Y-51685856D01*
X8189759Y-51729749D01*
X8208780Y-51740731D01*
X8222475Y-51750320D01*
X8333437Y-51828017D01*
X8333439Y-51828018D01*
X8350262Y-51842135D01*
X8457863Y-51949736D01*
X8471981Y-51966560D01*
X8559268Y-52091219D01*
X8570250Y-52110240D01*
X8628801Y-52235803D01*
X8631014Y-52240832D01*
X8637955Y-52257588D01*
X8643254Y-52273199D01*
X8676645Y-52397819D01*
X8678517Y-52405847D01*
X8684307Y-52434954D01*
X8686248Y-52448553D01*
X8699020Y-52594524D01*
X8699500Y-52605507D01*
X8699500Y-61582845D01*
X8679498Y-61650966D01*
X8625842Y-61697459D01*
X8555568Y-61707563D01*
X8490988Y-61678069D01*
X8452604Y-61618343D01*
X8448051Y-61594610D01*
X8447647Y-61590308D01*
X8447646Y-61590305D01*
X8447646Y-61590301D01*
X8439143Y-61566002D01*
X8402793Y-61462118D01*
X8402791Y-61462114D01*
X8322150Y-61352849D01*
X8212885Y-61272208D01*
X8212881Y-61272206D01*
X8084704Y-61227355D01*
X8084700Y-61227354D01*
X8054266Y-61224500D01*
X7645734Y-61224500D01*
X7645733Y-61224500D01*
X7615299Y-61227354D01*
X7615295Y-61227355D01*
X7493115Y-61270108D01*
X7422211Y-61273728D01*
X7360606Y-61238438D01*
X7327859Y-61175445D01*
X7325500Y-61151179D01*
X7325500Y-60468983D01*
X7321351Y-60453497D01*
X7296503Y-60360763D01*
X7240485Y-60263737D01*
X7161263Y-60184515D01*
X5786326Y-58809578D01*
X5752300Y-58747266D01*
X5757365Y-58676451D01*
X5799912Y-58619615D01*
X5866432Y-58594804D01*
X5914353Y-58600649D01*
X5980591Y-58622171D01*
X6159454Y-58650500D01*
X6159457Y-58650500D01*
X6340543Y-58650500D01*
X6340546Y-58650500D01*
X6519409Y-58622171D01*
X6691639Y-58566211D01*
X6852994Y-58483996D01*
X6999501Y-58377553D01*
X7127553Y-58249501D01*
X7233996Y-58102994D01*
X7316211Y-57941639D01*
X7372171Y-57769409D01*
X7400500Y-57590546D01*
X7400500Y-57159454D01*
X7372171Y-56980591D01*
X7316211Y-56808361D01*
X7233996Y-56647006D01*
X7127553Y-56500499D01*
X7127550Y-56500496D01*
X7127548Y-56500493D01*
X6999506Y-56372451D01*
X6999503Y-56372449D01*
X6999501Y-56372447D01*
X6852994Y-56266004D01*
X6691639Y-56183789D01*
X6691636Y-56183788D01*
X6691634Y-56183787D01*
X6519412Y-56127830D01*
X6519409Y-56127829D01*
X6340546Y-56099500D01*
X6159454Y-56099500D01*
X5980591Y-56127829D01*
X5980585Y-56127830D01*
X5808367Y-56183786D01*
X5808363Y-56183787D01*
X5791995Y-56192127D01*
X5722218Y-56205229D01*
X5656434Y-56178526D01*
X5645709Y-56168961D01*
X5211263Y-55734515D01*
X5211261Y-55734514D01*
X5211259Y-55734512D01*
X5114241Y-55678499D01*
X5114238Y-55678498D01*
X5114237Y-55678497D01*
X5114235Y-55678496D01*
X5114234Y-55678496D01*
X5085236Y-55670726D01*
X5006018Y-55649500D01*
X-7518981Y-55649500D01*
X-7631018Y-55649500D01*
X-7710236Y-55670726D01*
X-7739234Y-55678496D01*
X-7739235Y-55678496D01*
X-7739237Y-55678497D01*
X-7739238Y-55678498D01*
X-7739241Y-55678499D01*
X-7836259Y-55734512D01*
X-7836261Y-55734514D01*
X-7836263Y-55734515D01*
X-8261263Y-56159515D01*
X-8340485Y-56238737D01*
X-8396503Y-56335763D01*
X-8425500Y-56443982D01*
X-8425500Y-59843982D01*
X-8425500Y-59956018D01*
X-8396503Y-60064237D01*
X-8340485Y-60161263D01*
X-7840485Y-60661263D01*
X-7761263Y-60740485D01*
X-7735988Y-60755077D01*
X-7726159Y-60763924D01*
X-7714194Y-60783334D01*
X-7698459Y-60799837D01*
X-7695926Y-60812973D01*
X-7688907Y-60824362D01*
X-7689336Y-60847159D01*
X-7685020Y-60869550D01*
X-7689992Y-60881971D01*
X-7690244Y-60895346D01*
X-7702929Y-60914291D01*
X-7711404Y-60935462D01*
X-7722301Y-60943222D01*
X-7729745Y-60954339D01*
X-7750662Y-60963419D01*
X-7769235Y-60976646D01*
X-7792160Y-60981434D01*
X-7794870Y-60982611D01*
X-7796510Y-60982343D01*
X-7800559Y-60983189D01*
X-7822168Y-60984890D01*
X-7822177Y-60984892D01*
X-7979401Y-61030570D01*
X-8120318Y-61113908D01*
X-8120325Y-61113914D01*
X-8236085Y-61229674D01*
X-8236091Y-61229681D01*
X-8319429Y-61370599D01*
X-8365109Y-61527826D01*
X-8366539Y-61545999D01*
X-8366539Y-61546000D01*
X-7706000Y-61546000D01*
X-7637879Y-61566002D01*
X-7591386Y-61619658D01*
X-7580000Y-61672000D01*
X-7580000Y-61928000D01*
X-7600002Y-61996121D01*
X-7653658Y-62042614D01*
X-7706000Y-62054000D01*
X-8366539Y-62054000D01*
X-8365133Y-62071870D01*
X-8379730Y-62141350D01*
X-8424599Y-62188994D01*
X-8507354Y-62240037D01*
X-8575833Y-62258774D01*
X-8643572Y-62237514D01*
X-8689063Y-62183007D01*
X-8699500Y-62132796D01*
X-8699500Y-52605495D01*
X-8699020Y-52594512D01*
X-8686123Y-52447116D01*
X-8684183Y-52433521D01*
X-8679143Y-52408180D01*
X-8677270Y-52400147D01*
X-8642941Y-52272030D01*
X-8637644Y-52256426D01*
X-8632545Y-52244115D01*
X-8630330Y-52239080D01*
X-8570251Y-52110239D01*
X-8559270Y-52091220D01*
X-8471982Y-51966560D01*
X-8457864Y-51949736D01*
X-8350263Y-51842135D01*
X-8333439Y-51828017D01*
X-8208780Y-51740730D01*
X-8189759Y-51729748D01*
X-8060881Y-51669651D01*
X-8055905Y-51667462D01*
X-8043568Y-51662352D01*
X-8027977Y-51657060D01*
X-7899814Y-51622719D01*
X-7891866Y-51620866D01*
X-7866470Y-51615814D01*
X-7852890Y-51613877D01*
X-7764653Y-51606157D01*
X-7695048Y-51620145D01*
X-7644056Y-51669544D01*
X-7627865Y-51738670D01*
X-7647914Y-51795146D01*
X-7646125Y-51796124D01*
X-7650444Y-51804035D01*
X-7701494Y-51940906D01*
X-7707999Y-52001402D01*
X-7708000Y-52001414D01*
X-7708000Y-52646000D01*
X-6780703Y-52646000D01*
X-6815925Y-52707007D01*
X-6850000Y-52834174D01*
X-6850000Y-52965826D01*
X-6815925Y-53092993D01*
X-6780703Y-53154000D01*
X-7708000Y-53154000D01*
X-7708000Y-53798585D01*
X-7707999Y-53798597D01*
X-7701494Y-53859093D01*
X-7650444Y-53995964D01*
X-7650444Y-53995965D01*
X-7562904Y-54112904D01*
X-7445965Y-54200444D01*
X-7309093Y-54251494D01*
X-7248597Y-54257999D01*
X-7248585Y-54258000D01*
X-6604000Y-54258000D01*
X-6604000Y-53330702D01*
X-6542993Y-53365925D01*
X-6415826Y-53400000D01*
X-6284174Y-53400000D01*
X-6157007Y-53365925D01*
X-6096000Y-53330702D01*
X-6096000Y-54258000D01*
X-5451415Y-54258000D01*
X-5451402Y-54257999D01*
X-5390906Y-54251494D01*
X-5254035Y-54200444D01*
X-5254034Y-54200444D01*
X-5137095Y-54112904D01*
X-5049555Y-53995965D01*
X-5049555Y-53995964D01*
X-4998505Y-53859093D01*
X-4992000Y-53798597D01*
X-4992000Y-53618253D01*
X-4971998Y-53550132D01*
X-4918342Y-53503639D01*
X-4848068Y-53493535D01*
X-4783488Y-53523029D01*
X-4764064Y-53544191D01*
X-4687553Y-53649501D01*
X-4559501Y-53777553D01*
X-4412994Y-53883996D01*
X-4251639Y-53966211D01*
X-4079409Y-54022171D01*
X-3900546Y-54050500D01*
X-3900543Y-54050500D01*
X-3719457Y-54050500D01*
X-3719454Y-54050500D01*
X-3540591Y-54022171D01*
X-3368361Y-53966211D01*
X-3207006Y-53883996D01*
X-3060499Y-53777553D01*
X-3060496Y-53777550D01*
X-3060493Y-53777548D01*
X-2932451Y-53649506D01*
X-2932449Y-53649503D01*
X-2932447Y-53649501D01*
X-2840560Y-53523029D01*
X-2826006Y-53502997D01*
X-2826004Y-53502994D01*
X-2743789Y-53341639D01*
X-2687829Y-53169409D01*
X-2664448Y-53021787D01*
X-2634037Y-52957636D01*
X-2573768Y-52920109D01*
X-2502779Y-52921123D01*
X-2443607Y-52960356D01*
X-2415551Y-53021786D01*
X-2392171Y-53169409D01*
X-2336211Y-53341639D01*
X-2253996Y-53502994D01*
X-2147553Y-53649501D01*
X-2019501Y-53777553D01*
X-1872994Y-53883996D01*
X-1711639Y-53966211D01*
X-1539409Y-54022171D01*
X-1360546Y-54050500D01*
X-1360543Y-54050500D01*
X-1179457Y-54050500D01*
X-1179454Y-54050500D01*
X-1000591Y-54022171D01*
X-828361Y-53966211D01*
X-667006Y-53883996D01*
X-520499Y-53777553D01*
X-520496Y-53777550D01*
X-520493Y-53777548D01*
X-392451Y-53649506D01*
X-392449Y-53649503D01*
X-392447Y-53649501D01*
X-300560Y-53523029D01*
X-286006Y-53502997D01*
X-286004Y-53502994D01*
X-203789Y-53341639D01*
X-147829Y-53169409D01*
X-124448Y-53021787D01*
X-94037Y-52957636D01*
X-33768Y-52920109D01*
X37221Y-52921123D01*
X96393Y-52960356D01*
X124448Y-53021786D01*
X147829Y-53169409D01*
X203789Y-53341639D01*
X286004Y-53502994D01*
X286006Y-53502997D01*
X300560Y-53523029D01*
X392447Y-53649501D01*
X392449Y-53649503D01*
X392451Y-53649506D01*
X520493Y-53777548D01*
X520496Y-53777550D01*
X520499Y-53777553D01*
X667006Y-53883996D01*
X828361Y-53966211D01*
X1000591Y-54022171D01*
X1179454Y-54050500D01*
X1179457Y-54050500D01*
X1360543Y-54050500D01*
X1360546Y-54050500D01*
X1539409Y-54022171D01*
X1711639Y-53966211D01*
X1872994Y-53883996D01*
X2019501Y-53777553D01*
X2147553Y-53649501D01*
X2253996Y-53502994D01*
X2336211Y-53341639D01*
X2392171Y-53169409D01*
X2415551Y-53021787D01*
X2445963Y-52957636D01*
X2506232Y-52920109D01*
X2577221Y-52921123D01*
X2636393Y-52960356D01*
X2664448Y-53021786D01*
X2687829Y-53169409D01*
X2743789Y-53341639D01*
X2826004Y-53502994D01*
X2826006Y-53502997D01*
X2840560Y-53523029D01*
X2932447Y-53649501D01*
X2932449Y-53649503D01*
X2932451Y-53649506D01*
X3060493Y-53777548D01*
X3060496Y-53777550D01*
X3060499Y-53777553D01*
X3207006Y-53883996D01*
X3368361Y-53966211D01*
X3540591Y-54022171D01*
X3719454Y-54050500D01*
X3719457Y-54050500D01*
X3900543Y-54050500D01*
X3900546Y-54050500D01*
X4079409Y-54022171D01*
X4251639Y-53966211D01*
X4412994Y-53883996D01*
X4559501Y-53777553D01*
X4687553Y-53649501D01*
X4793996Y-53502994D01*
X4876211Y-53341639D01*
X4932171Y-53169409D01*
X4955551Y-53021787D01*
X4985963Y-52957636D01*
X5046232Y-52920109D01*
X5117221Y-52921123D01*
X5176393Y-52960356D01*
X5204448Y-53021786D01*
X5227829Y-53169409D01*
X5283789Y-53341639D01*
X5366004Y-53502994D01*
X5366006Y-53502997D01*
X5380560Y-53523029D01*
X5472447Y-53649501D01*
X5472449Y-53649503D01*
X5472451Y-53649506D01*
X5600493Y-53777548D01*
X5600496Y-53777550D01*
X5600499Y-53777553D01*
X5747006Y-53883996D01*
X5908361Y-53966211D01*
X6080591Y-54022171D01*
X6259454Y-54050500D01*
X6259457Y-54050500D01*
X6440543Y-54050500D01*
X6440546Y-54050500D01*
X6619409Y-54022171D01*
X6791639Y-53966211D01*
X6952994Y-53883996D01*
X7099501Y-53777553D01*
X7227553Y-53649501D01*
X7333996Y-53502994D01*
X7416211Y-53341639D01*
X7472171Y-53169409D01*
X7500500Y-52990546D01*
X7500500Y-52809454D01*
X7472171Y-52630591D01*
X7416211Y-52458361D01*
X7333996Y-52297006D01*
X7227553Y-52150499D01*
X7227550Y-52150496D01*
X7227548Y-52150493D01*
X7099506Y-52022451D01*
X7099503Y-52022449D01*
X7099501Y-52022447D01*
X6952994Y-51916004D01*
X6801407Y-51838766D01*
X6749793Y-51790018D01*
X6732727Y-51721103D01*
X6755628Y-51653902D01*
X6811226Y-51609750D01*
X6858611Y-51600500D01*
X7694494Y-51600500D01*
X7705474Y-51600979D01*
G37*
%TD.AperFunction*%
%TD*%
M02*
