%TF.GenerationSoftware,KiCad,Pcbnew,(6.0.0)*%
%TF.CreationDate,2022-08-06T00:01:37+02:00*%
%TF.ProjectId,bobby-flasher,626f6262-792d-4666-9c61-736865722e6b,rev?*%
%TF.SameCoordinates,Original*%
%TF.FileFunction,Soldermask,Bot*%
%TF.FilePolarity,Negative*%
%FSLAX46Y46*%
G04 Gerber Fmt 4.6, Leading zero omitted, Abs format (unit mm)*
G04 Created by KiCad (PCBNEW (6.0.0)) date 2022-08-06 00:01:37*
%MOMM*%
%LPD*%
G01*
G04 APERTURE LIST*
G04 Aperture macros list*
%AMRoundRect*
0 Rectangle with rounded corners*
0 $1 Rounding radius*
0 $2 $3 $4 $5 $6 $7 $8 $9 X,Y pos of 4 corners*
0 Add a 4 corners polygon primitive as box body*
4,1,4,$2,$3,$4,$5,$6,$7,$8,$9,$2,$3,0*
0 Add four circle primitives for the rounded corners*
1,1,$1+$1,$2,$3*
1,1,$1+$1,$4,$5*
1,1,$1+$1,$6,$7*
1,1,$1+$1,$8,$9*
0 Add four rect primitives between the rounded corners*
20,1,$1+$1,$2,$3,$4,$5,0*
20,1,$1+$1,$4,$5,$6,$7,0*
20,1,$1+$1,$6,$7,$8,$9,0*
20,1,$1+$1,$8,$9,$2,$3,0*%
G04 Aperture macros list end*
%ADD10R,1.700000X1.700000*%
%ADD11O,1.700000X1.700000*%
%ADD12C,0.650000*%
%ADD13O,1.000000X2.100000*%
%ADD14O,1.000000X1.800000*%
%ADD15RoundRect,0.250000X-0.600000X-0.725000X0.600000X-0.725000X0.600000X0.725000X-0.600000X0.725000X0*%
%ADD16O,1.700000X1.950000*%
%ADD17R,1.700000X3.000000*%
%ADD18C,0.500000*%
G04 APERTURE END LIST*
D10*
%TO.C,J2*%
X-6350000Y-52900000D03*
D11*
X-3810000Y-52900000D03*
X-1270000Y-52900000D03*
X1270000Y-52900000D03*
X3810000Y-52900000D03*
X6350000Y-52900000D03*
%TD*%
D12*
%TO.C,USBC1*%
X-2890000Y-76090000D03*
X2890000Y-76090000D03*
D13*
X-4320000Y-75590000D03*
D14*
X-4320000Y-79770000D03*
X4320000Y-79770000D03*
D13*
X4320000Y-75590000D03*
%TD*%
D15*
%TO.C,J3*%
X-6250000Y-57375000D03*
D16*
X-3750000Y-57375000D03*
X-1250000Y-57375000D03*
X1250000Y-57375000D03*
X3750000Y-57375000D03*
X6250000Y-57375000D03*
%TD*%
D17*
%TO.C,J1*%
X2400000Y-69200000D03*
X-140000Y-69200000D03*
X-2680000Y-69200000D03*
%TD*%
D18*
X4100000Y-68300000D03*
X3400000Y-65400000D03*
X6900000Y-62900000D03*
X4700000Y-63900000D03*
X4400000Y-60600000D03*
X-1574579Y-61574579D03*
X1250000Y-60850000D03*
X-6100000Y-67050000D03*
X2500000Y-54900000D03*
X-5550000Y-61900000D03*
X-7800000Y-67050000D03*
X-2500000Y-61900000D03*
X-6000000Y-76000000D03*
X-4300000Y-67950000D03*
X0Y-54700000D03*
X-2250000Y-78000000D03*
X7450000Y-59500000D03*
X2050000Y-78500000D03*
X-2450000Y-71700000D03*
X-7850000Y-69550000D03*
X-3225000Y-63975000D03*
X-5250000Y-54850000D03*
X-6700000Y-59500000D03*
X-3000000Y-66950000D03*
X7550000Y-55550000D03*
X-300000Y-60550000D03*
X-6100000Y-69600000D03*
X-2100000Y-59050000D03*
X-2200000Y-66850000D03*
X-4850000Y-59150000D03*
X5050000Y-54950000D03*
X-7900000Y-60950000D03*
X-7650000Y-54900000D03*
X-2350000Y-54700000D03*
X1450000Y-76500000D03*
X-6800000Y-73100000D03*
X6600000Y-70200000D03*
X-400000Y-65500000D03*
X-7087500Y-63862500D03*
X-2400000Y-74050000D03*
X7250000Y-68900000D03*
X-4950000Y-69600000D03*
X400000Y-64400000D03*
X-4000000Y-63950000D03*
X5300000Y-79400000D03*
X-4050000Y-66750000D03*
X7000000Y-73150000D03*
X6900000Y-79400000D03*
X5500000Y-70100000D03*
X2150000Y-59650000D03*
X2550000Y-63600000D03*
X6575000Y-65325000D03*
X6200000Y-68950000D03*
M02*
