%TF.GenerationSoftware,KiCad,Pcbnew,(6.0.0)*%
%TF.CreationDate,2022-08-06T00:01:37+02:00*%
%TF.ProjectId,bobby-flasher,626f6262-792d-4666-9c61-736865722e6b,rev?*%
%TF.SameCoordinates,Original*%
%TF.FileFunction,Copper,L1,Top*%
%TF.FilePolarity,Positive*%
%FSLAX46Y46*%
G04 Gerber Fmt 4.6, Leading zero omitted, Abs format (unit mm)*
G04 Created by KiCad (PCBNEW (6.0.0)) date 2022-08-06 00:01:37*
%MOMM*%
%LPD*%
G01*
G04 APERTURE LIST*
G04 Aperture macros list*
%AMRoundRect*
0 Rectangle with rounded corners*
0 $1 Rounding radius*
0 $2 $3 $4 $5 $6 $7 $8 $9 X,Y pos of 4 corners*
0 Add a 4 corners polygon primitive as box body*
4,1,4,$2,$3,$4,$5,$6,$7,$8,$9,$2,$3,0*
0 Add four circle primitives for the rounded corners*
1,1,$1+$1,$2,$3*
1,1,$1+$1,$4,$5*
1,1,$1+$1,$6,$7*
1,1,$1+$1,$8,$9*
0 Add four rect primitives between the rounded corners*
20,1,$1+$1,$2,$3,$4,$5,0*
20,1,$1+$1,$4,$5,$6,$7,0*
20,1,$1+$1,$6,$7,$8,$9,0*
20,1,$1+$1,$8,$9,$2,$3,0*%
G04 Aperture macros list end*
%TA.AperFunction,SMDPad,CuDef*%
%ADD10RoundRect,0.150000X-0.150000X0.587500X-0.150000X-0.587500X0.150000X-0.587500X0.150000X0.587500X0*%
%TD*%
%TA.AperFunction,SMDPad,CuDef*%
%ADD11RoundRect,0.225000X0.225000X0.250000X-0.225000X0.250000X-0.225000X-0.250000X0.225000X-0.250000X0*%
%TD*%
%TA.AperFunction,SMDPad,CuDef*%
%ADD12RoundRect,0.135000X-0.185000X0.135000X-0.185000X-0.135000X0.185000X-0.135000X0.185000X0.135000X0*%
%TD*%
%TA.AperFunction,SMDPad,CuDef*%
%ADD13R,1.500000X2.000000*%
%TD*%
%TA.AperFunction,SMDPad,CuDef*%
%ADD14R,3.800000X2.000000*%
%TD*%
%TA.AperFunction,SMDPad,CuDef*%
%ADD15RoundRect,0.140000X-0.140000X-0.170000X0.140000X-0.170000X0.140000X0.170000X-0.140000X0.170000X0*%
%TD*%
%TA.AperFunction,SMDPad,CuDef*%
%ADD16RoundRect,0.150000X0.150000X-0.825000X0.150000X0.825000X-0.150000X0.825000X-0.150000X-0.825000X0*%
%TD*%
%TA.AperFunction,SMDPad,CuDef*%
%ADD17RoundRect,0.218750X0.256250X-0.218750X0.256250X0.218750X-0.256250X0.218750X-0.256250X-0.218750X0*%
%TD*%
%TA.AperFunction,SMDPad,CuDef*%
%ADD18RoundRect,0.225000X-0.225000X-0.250000X0.225000X-0.250000X0.225000X0.250000X-0.225000X0.250000X0*%
%TD*%
%TA.AperFunction,SMDPad,CuDef*%
%ADD19RoundRect,0.135000X0.135000X0.185000X-0.135000X0.185000X-0.135000X-0.185000X0.135000X-0.185000X0*%
%TD*%
%TA.AperFunction,ComponentPad*%
%ADD20R,1.700000X1.700000*%
%TD*%
%TA.AperFunction,ComponentPad*%
%ADD21O,1.700000X1.700000*%
%TD*%
%TA.AperFunction,ComponentPad*%
%ADD22C,0.650000*%
%TD*%
%TA.AperFunction,ComponentPad*%
%ADD23O,1.000000X2.100000*%
%TD*%
%TA.AperFunction,ComponentPad*%
%ADD24O,1.000000X1.800000*%
%TD*%
%TA.AperFunction,SMDPad,CuDef*%
%ADD25R,0.600000X1.150000*%
%TD*%
%TA.AperFunction,SMDPad,CuDef*%
%ADD26R,0.300000X1.150000*%
%TD*%
%TA.AperFunction,SMDPad,CuDef*%
%ADD27RoundRect,0.140000X-0.170000X0.140000X-0.170000X-0.140000X0.170000X-0.140000X0.170000X0.140000X0*%
%TD*%
%TA.AperFunction,ComponentPad*%
%ADD28RoundRect,0.250000X-0.600000X-0.725000X0.600000X-0.725000X0.600000X0.725000X-0.600000X0.725000X0*%
%TD*%
%TA.AperFunction,ComponentPad*%
%ADD29O,1.700000X1.950000*%
%TD*%
%TA.AperFunction,SMDPad,CuDef*%
%ADD30RoundRect,0.140000X0.140000X0.170000X-0.140000X0.170000X-0.140000X-0.170000X0.140000X-0.170000X0*%
%TD*%
%TA.AperFunction,SMDPad,CuDef*%
%ADD31RoundRect,0.135000X-0.135000X-0.185000X0.135000X-0.185000X0.135000X0.185000X-0.135000X0.185000X0*%
%TD*%
%TA.AperFunction,ViaPad*%
%ADD32C,0.500000*%
%TD*%
%TA.AperFunction,Conductor*%
%ADD33C,0.250000*%
%TD*%
%TA.AperFunction,Conductor*%
%ADD34C,0.200000*%
%TD*%
G04 APERTURE END LIST*
D10*
%TO.P,Q2,1,B*%
%TO.N,Net-(Q2-Pad1)*%
X7850000Y-62262500D03*
%TO.P,Q2,2,E*%
%TO.N,IO0*%
X5950000Y-62262500D03*
%TO.P,Q2,3,C*%
%TO.N,DTR*%
X6900000Y-64137500D03*
%TD*%
%TO.P,Q1,1,B*%
%TO.N,Net-(Q1-Pad1)*%
X4450000Y-62262500D03*
%TO.P,Q1,2,E*%
%TO.N,RTS*%
X2550000Y-62262500D03*
%TO.P,Q1,3,C*%
%TO.N,EN*%
X3500000Y-64137500D03*
%TD*%
D11*
%TO.P,C8,1*%
%TO.N,GND*%
X975000Y-62100000D03*
%TO.P,C8,2*%
%TO.N,EN*%
X-575000Y-62100000D03*
%TD*%
D12*
%TO.P,R6,1*%
%TO.N,+5V*%
X-7000000Y-73690000D03*
%TO.P,R6,2*%
%TO.N,Net-(D1-Pad2)*%
X-7000000Y-74710000D03*
%TD*%
%TO.P,R2,1*%
%TO.N,ESP_RX*%
X7000000Y-73690000D03*
%TO.P,R2,2*%
%TO.N,+3V3*%
X7000000Y-74710000D03*
%TD*%
D13*
%TO.P,U2,1,GND*%
%TO.N,GND*%
X-2900000Y-65350000D03*
%TO.P,U2,2,VO*%
%TO.N,+3V3*%
X-5200000Y-65350000D03*
D14*
X-5200000Y-71650000D03*
D13*
%TO.P,U2,3,VI*%
%TO.N,+5V*%
X-7500000Y-65350000D03*
%TD*%
D15*
%TO.P,C3,1*%
%TO.N,GND*%
X3170000Y-73600000D03*
%TO.P,C3,2*%
%TO.N,Net-(C3-Pad2)*%
X4130000Y-73600000D03*
%TD*%
D16*
%TO.P,U1,1,GND*%
%TO.N,GND*%
X-1045000Y-71675000D03*
%TO.P,U1,2,TXD*%
%TO.N,ESP_RX*%
X225000Y-71675000D03*
%TO.P,U1,3,RXD*%
%TO.N,ESP_TX*%
X1495000Y-71675000D03*
%TO.P,U1,4,V3*%
%TO.N,Net-(C3-Pad2)*%
X2765000Y-71675000D03*
%TO.P,U1,5,UD+*%
%TO.N,USB_DP*%
X4035000Y-71675000D03*
%TO.P,U1,6,UD-*%
%TO.N,USB_DN*%
X5305000Y-71675000D03*
%TO.P,U1,7,VBUS*%
%TO.N,+5V*%
X6575000Y-71675000D03*
%TO.P,U1,8,~{ACT}*%
%TO.N,unconnected-(U1-Pad8)*%
X7845000Y-71675000D03*
%TO.P,U1,9,~{DCD}*%
%TO.N,unconnected-(U1-Pad9)*%
X7845000Y-66725000D03*
%TO.P,U1,10,~{DTR}/TNOW*%
%TO.N,DTR*%
X6575000Y-66725000D03*
%TO.P,U1,11,~{RTS}*%
%TO.N,RTS*%
X5305000Y-66725000D03*
%TO.P,U1,12,~{DSR}*%
%TO.N,unconnected-(U1-Pad12)*%
X4035000Y-66725000D03*
%TO.P,U1,13,~{CTS}*%
%TO.N,unconnected-(U1-Pad13)*%
X2765000Y-66725000D03*
%TO.P,U1,14,~{RI}*%
%TO.N,unconnected-(U1-Pad14)*%
X1495000Y-66725000D03*
%TO.P,U1,15,VIO*%
%TO.N,+3V3*%
X225000Y-66725000D03*
%TO.P,U1,16,VDD5*%
%TO.N,+5V*%
X-1045000Y-66725000D03*
%TD*%
D12*
%TO.P,R8,1*%
%TO.N,+3V3*%
X6000000Y-73690000D03*
%TO.P,R8,2*%
%TO.N,Net-(D3-Pad2)*%
X6000000Y-74710000D03*
%TD*%
D17*
%TO.P,D3,1,K*%
%TO.N,ESP_RX*%
X6100000Y-80175000D03*
%TO.P,D3,2,A*%
%TO.N,Net-(D3-Pad2)*%
X6100000Y-78600000D03*
%TD*%
D18*
%TO.P,C2,1*%
%TO.N,GND*%
X-7875000Y-63100000D03*
%TO.P,C2,2*%
%TO.N,+5V*%
X-6325000Y-63100000D03*
%TD*%
D19*
%TO.P,R3,1*%
%TO.N,GND*%
X2260000Y-73600000D03*
%TO.P,R3,2*%
%TO.N,Net-(R3-Pad2)*%
X1240000Y-73600000D03*
%TD*%
D15*
%TO.P,C1,1*%
%TO.N,GND*%
X-7580000Y-61800000D03*
%TO.P,C1,2*%
%TO.N,+5V*%
X-6620000Y-61800000D03*
%TD*%
D18*
%TO.P,C5,1*%
%TO.N,+3V3*%
X-4775000Y-63100000D03*
%TO.P,C5,2*%
%TO.N,GND*%
X-3225000Y-63100000D03*
%TD*%
D20*
%TO.P,J2,1,Pin_1*%
%TO.N,GND*%
X-6350000Y-52900000D03*
D21*
%TO.P,J2,2,Pin_2*%
%TO.N,ESP_RX*%
X-3810000Y-52900000D03*
%TO.P,J2,3,Pin_3*%
%TO.N,ESP_TX*%
X-1270000Y-52900000D03*
%TO.P,J2,4,Pin_4*%
%TO.N,EN*%
X1270000Y-52900000D03*
%TO.P,J2,5,Pin_5*%
%TO.N,IO0*%
X3810000Y-52900000D03*
%TO.P,J2,6,Pin_6*%
%TO.N,+5V*%
X6350000Y-52900000D03*
%TD*%
D17*
%TO.P,D1,1,K*%
%TO.N,GND*%
X-6100000Y-80187500D03*
%TO.P,D1,2,A*%
%TO.N,Net-(D1-Pad2)*%
X-6100000Y-78612500D03*
%TD*%
D12*
%TO.P,R9,1*%
%TO.N,+3V3*%
X8000000Y-73690000D03*
%TO.P,R9,2*%
%TO.N,Net-(D4-Pad2)*%
X8000000Y-74710000D03*
%TD*%
D22*
%TO.P,USBC1,*%
%TO.N,*%
X-2890000Y-76090000D03*
X2890000Y-76090000D03*
D23*
%TO.P,USBC1,1,SHIELD*%
%TO.N,GND*%
X-4320000Y-75590000D03*
D24*
%TO.P,USBC1,2,SHIELD*%
X-4320000Y-79770000D03*
%TO.P,USBC1,3,SHIELD*%
X4320000Y-79770000D03*
D23*
%TO.P,USBC1,4,SHIELD*%
X4320000Y-75590000D03*
D25*
%TO.P,USBC1,A1-B12,GND*%
X-3200000Y-75030000D03*
%TO.P,USBC1,A4-B9,VBUS*%
%TO.N,+5V*%
X-2400000Y-75030000D03*
D26*
%TO.P,USBC1,A5,CC1*%
%TO.N,Net-(R1-Pad1)*%
X-1250000Y-75030000D03*
%TO.P,USBC1,A6,DP1*%
%TO.N,USB_DP*%
X-250000Y-75030000D03*
%TO.P,USBC1,A7,DN1*%
%TO.N,USB_DN*%
X250000Y-75030000D03*
%TO.P,USBC1,A8,SBU1*%
%TO.N,unconnected-(USBC1-PadA8)*%
X1250000Y-75030000D03*
D25*
%TO.P,USBC1,B1-A12,GND*%
%TO.N,GND*%
X3200000Y-75030000D03*
%TO.P,USBC1,B4-A9,VBUS*%
%TO.N,+5V*%
X2400000Y-75030000D03*
D26*
%TO.P,USBC1,B5,CC2*%
%TO.N,Net-(R3-Pad2)*%
X1750000Y-75030000D03*
%TO.P,USBC1,B6,DP2*%
%TO.N,USB_DP*%
X750000Y-75030000D03*
%TO.P,USBC1,B7,DN2*%
%TO.N,USB_DN*%
X-750000Y-75030000D03*
%TO.P,USBC1,B8,SBU2*%
%TO.N,unconnected-(USBC1-PadB8)*%
X-1750000Y-75030000D03*
%TD*%
D19*
%TO.P,R5,1*%
%TO.N,RTS*%
X5720000Y-64800000D03*
%TO.P,R5,2*%
%TO.N,Net-(Q2-Pad1)*%
X4700000Y-64800000D03*
%TD*%
D27*
%TO.P,C4,1*%
%TO.N,GND*%
X-1900000Y-62620000D03*
%TO.P,C4,2*%
%TO.N,+5V*%
X-1900000Y-63580000D03*
%TD*%
D17*
%TO.P,D2,1,K*%
%TO.N,GND*%
X-7700000Y-80187500D03*
%TO.P,D2,2,A*%
%TO.N,Net-(D2-Pad2)*%
X-7700000Y-78612500D03*
%TD*%
D28*
%TO.P,J3,1,Pin_1*%
%TO.N,GND*%
X-6250000Y-57375000D03*
D29*
%TO.P,J3,2,Pin_2*%
%TO.N,ESP_RX*%
X-3750000Y-57375000D03*
%TO.P,J3,3,Pin_3*%
%TO.N,ESP_TX*%
X-1250000Y-57375000D03*
%TO.P,J3,4,Pin_4*%
%TO.N,EN*%
X1250000Y-57375000D03*
%TO.P,J3,5,Pin_5*%
%TO.N,IO0*%
X3750000Y-57375000D03*
%TO.P,J3,6,Pin_6*%
%TO.N,+5V*%
X6250000Y-57375000D03*
%TD*%
D18*
%TO.P,C7,2*%
%TO.N,+3V3*%
X975000Y-63600000D03*
%TO.P,C7,1*%
%TO.N,GND*%
X-575000Y-63600000D03*
%TD*%
D30*
%TO.P,C6,1*%
%TO.N,GND*%
X-3520000Y-61800000D03*
%TO.P,C6,2*%
%TO.N,+3V3*%
X-4480000Y-61800000D03*
%TD*%
D31*
%TO.P,R4,1*%
%TO.N,DTR*%
X1290000Y-64800000D03*
%TO.P,R4,2*%
%TO.N,Net-(Q1-Pad1)*%
X2310000Y-64800000D03*
%TD*%
D17*
%TO.P,D4,1,K*%
%TO.N,ESP_TX*%
X7700000Y-80187500D03*
%TO.P,D4,2,A*%
%TO.N,Net-(D4-Pad2)*%
X7700000Y-78612500D03*
%TD*%
D12*
%TO.P,R7,1*%
%TO.N,+3V3*%
X-8000000Y-73690000D03*
%TO.P,R7,2*%
%TO.N,Net-(D2-Pad2)*%
X-8000000Y-74710000D03*
%TD*%
%TO.P,R1,1*%
%TO.N,Net-(R1-Pad1)*%
X-6000000Y-73690000D03*
%TO.P,R1,2*%
%TO.N,GND*%
X-6000000Y-74710000D03*
%TD*%
D32*
%TO.N,GND*%
X4100000Y-68300000D03*
X3400000Y-65400000D03*
X6900000Y-62900000D03*
X4700000Y-63900000D03*
X4400000Y-60600000D03*
%TO.N,+3V3*%
X-1574579Y-61574579D03*
%TO.N,EN*%
X1250000Y-60850000D03*
%TO.N,GND*%
X-6100000Y-67050000D03*
X2500000Y-54900000D03*
X-5550000Y-61900000D03*
X-7800000Y-67050000D03*
X-2500000Y-61900000D03*
X-6000000Y-76000000D03*
X-4300000Y-67950000D03*
X0Y-54700000D03*
X-2250000Y-78000000D03*
X7450000Y-59500000D03*
X2050000Y-78500000D03*
X-2450000Y-71700000D03*
X-7850000Y-69550000D03*
X-3225000Y-63975000D03*
X-5250000Y-54850000D03*
X-6700000Y-59500000D03*
X-3000000Y-66950000D03*
X7550000Y-55550000D03*
X-300000Y-60550000D03*
X-6100000Y-69600000D03*
X-2100000Y-59050000D03*
X-2200000Y-66850000D03*
X-4850000Y-59150000D03*
X5050000Y-54950000D03*
X-7900000Y-60950000D03*
X-7650000Y-54900000D03*
X-2350000Y-54700000D03*
%TO.N,+5V*%
X1450000Y-76500000D03*
X-6800000Y-73100000D03*
X6600000Y-70200000D03*
X-400000Y-65500000D03*
X-7087500Y-63862500D03*
X-2400000Y-74050000D03*
%TO.N,+3V3*%
X7250000Y-68900000D03*
X-4950000Y-69600000D03*
X400000Y-64400000D03*
%TO.N,ESP_RX*%
X-4000000Y-63950000D03*
X5300000Y-79400000D03*
X-4050000Y-66750000D03*
X7000000Y-73150000D03*
%TO.N,ESP_TX*%
X6900000Y-79400000D03*
X5500000Y-70100000D03*
X2150000Y-59650000D03*
%TO.N,EN*%
X2550000Y-63600000D03*
%TO.N,DTR*%
X6575000Y-65325000D03*
X6200000Y-68950000D03*
%TD*%
D33*
%TO.N,RTS*%
X5720000Y-63620000D02*
X5720000Y-64800000D01*
X5424520Y-63324520D02*
X5720000Y-63620000D01*
X3854408Y-63075480D02*
X4103448Y-63324520D01*
X4103448Y-63324520D02*
X5424520Y-63324520D01*
X3425480Y-63075480D02*
X3854408Y-63075480D01*
X2550000Y-62200000D02*
X3425480Y-63075480D01*
%TO.N,Net-(Q1-Pad1)*%
X1900000Y-64390000D02*
X2310000Y-64800000D01*
X1900000Y-61400000D02*
X1900000Y-64390000D01*
X2200000Y-61100000D02*
X1900000Y-61400000D01*
X3350000Y-61100000D02*
X2200000Y-61100000D01*
X4450000Y-62200000D02*
X3350000Y-61100000D01*
%TO.N,+3V3*%
X975000Y-63825000D02*
X400000Y-64400000D01*
X975000Y-63600000D02*
X975000Y-63825000D01*
X225000Y-66725000D02*
X225000Y-64575000D01*
X225000Y-64575000D02*
X400000Y-64400000D01*
%TO.N,+5V*%
X-400000Y-65450000D02*
X-400000Y-65500000D01*
X-1045000Y-64805000D02*
X-400000Y-65450000D01*
%TO.N,ESP_TX*%
X763498Y-58674520D02*
X75480Y-57986502D01*
X75480Y-57986502D02*
X75480Y-57575480D01*
X-125000Y-57375000D02*
X-1250000Y-57375000D01*
X1174520Y-58674520D02*
X763498Y-58674520D01*
X2150000Y-59650000D02*
X1174520Y-58674520D01*
X75480Y-57575480D02*
X-125000Y-57375000D01*
%TO.N,EN*%
X675000Y-60850000D02*
X1250000Y-60850000D01*
X-575000Y-62100000D02*
X675000Y-60850000D01*
%TO.N,GND*%
X925000Y-62100000D02*
X-575000Y-63600000D01*
X975000Y-62100000D02*
X925000Y-62100000D01*
X-575000Y-63600000D02*
X-1555000Y-62620000D01*
X-1555000Y-62620000D02*
X-1900000Y-62620000D01*
%TO.N,+3V3*%
X-2087391Y-61165000D02*
X-1679701Y-61572690D01*
X-1679701Y-61572690D02*
X-1576467Y-61572690D01*
%TO.N,GND*%
X-2500000Y-62375000D02*
X-2500000Y-61900000D01*
X-3225000Y-63100000D02*
X-2500000Y-62375000D01*
X-1880000Y-62520000D02*
X-2500000Y-61900000D01*
X-1700000Y-62520000D02*
X-1880000Y-62520000D01*
X-3520000Y-62805000D02*
X-3225000Y-63100000D01*
X-3200000Y-75030000D02*
X-3760000Y-75030000D01*
X-3225000Y-63100000D02*
X-3225000Y-63975000D01*
X-7580000Y-62805000D02*
X-7875000Y-63100000D01*
X-4320000Y-79770000D02*
X-5682500Y-79770000D01*
X-3760000Y-75030000D02*
X-4320000Y-75590000D01*
X4320000Y-75590000D02*
X3760000Y-75590000D01*
X-7580000Y-61800000D02*
X-7580000Y-61270000D01*
X-3225000Y-65025000D02*
X-2900000Y-65350000D01*
X-3520000Y-61800000D02*
X-3520000Y-62805000D01*
X-7580000Y-61270000D02*
X-7900000Y-60950000D01*
X-5682500Y-79770000D02*
X-6100000Y-80187500D01*
X-7580000Y-61800000D02*
X-7580000Y-62805000D01*
X-3225000Y-63975000D02*
X-3225000Y-65025000D01*
X3760000Y-75590000D02*
X3200000Y-75030000D01*
%TO.N,+5V*%
X6250000Y-57375000D02*
X4950000Y-56075000D01*
X-7000000Y-73250000D02*
X-7000000Y-73690000D01*
X-1700000Y-64150000D02*
X-1700000Y-63480000D01*
D34*
X2400000Y-75030000D02*
X2400000Y-75550000D01*
D33*
X-2400000Y-75030000D02*
X-2400000Y-74050000D01*
X-8000000Y-59900000D02*
X-7500000Y-60400000D01*
X-6800000Y-73100000D02*
X-6950000Y-73250000D01*
X6575000Y-70225000D02*
X6600000Y-70200000D01*
X-7575000Y-56075000D02*
X-8000000Y-56500000D01*
X-6950000Y-73250000D02*
X-7000000Y-73250000D01*
X-1045000Y-66725000D02*
X-1045000Y-64805000D01*
X-6620000Y-60680000D02*
X-6620000Y-61800000D01*
X-7500000Y-64275000D02*
X-7087500Y-63862500D01*
X-6620000Y-61800000D02*
X-6620000Y-62805000D01*
X-6620000Y-62805000D02*
X-6325000Y-63100000D01*
X-7500000Y-60400000D02*
X-6900000Y-60400000D01*
X-1045000Y-64805000D02*
X-1700000Y-64150000D01*
X-7087500Y-63862500D02*
X-6325000Y-63100000D01*
X-7500000Y-65350000D02*
X-7500000Y-64275000D01*
X4950000Y-56075000D02*
X-7575000Y-56075000D01*
X-6900000Y-60400000D02*
X-6620000Y-60680000D01*
X-8000000Y-56500000D02*
X-8000000Y-59900000D01*
D34*
X2400000Y-75550000D02*
X1450000Y-76500000D01*
D33*
X6575000Y-71675000D02*
X6575000Y-70225000D01*
%TO.N,Net-(C3-Pad2)*%
X4130000Y-73600000D02*
X4660000Y-73070000D01*
X4660000Y-73070000D02*
X4660000Y-70653249D01*
X4306751Y-70300000D02*
X3763249Y-70300000D01*
X2765000Y-71298249D02*
X2765000Y-71675000D01*
X4660000Y-70653249D02*
X4306751Y-70300000D01*
X3763249Y-70300000D02*
X2765000Y-71298249D01*
%TO.N,+3V3*%
X6000000Y-73710000D02*
X7000000Y-74710000D01*
X-8000000Y-72100000D02*
X-7550000Y-71650000D01*
X8470000Y-73220000D02*
X8470000Y-71550000D01*
X-3852609Y-61165000D02*
X-4480000Y-61792391D01*
X6000000Y-73690000D02*
X6000000Y-73710000D01*
X-4480000Y-62805000D02*
X-4775000Y-63100000D01*
X-5200000Y-65350000D02*
X-5200000Y-69350000D01*
X-7550000Y-71650000D02*
X-5200000Y-71650000D01*
X-2087391Y-61165000D02*
X-3852609Y-61165000D01*
X8000000Y-73690000D02*
X8470000Y-73220000D01*
X8000000Y-73690000D02*
X8000000Y-73710000D01*
X-8000000Y-73690000D02*
X-8000000Y-72100000D01*
X-4950000Y-69600000D02*
X-5200000Y-69850000D01*
X-4480000Y-61792391D02*
X-4480000Y-61800000D01*
X-5200000Y-69350000D02*
X-4950000Y-69600000D01*
X-4480000Y-61800000D02*
X-4480000Y-62805000D01*
X8470000Y-71550000D02*
X8470000Y-70120000D01*
X-4775000Y-64925000D02*
X-5200000Y-65350000D01*
X8000000Y-73710000D02*
X7000000Y-74710000D01*
X8470000Y-70120000D02*
X7250000Y-68900000D01*
X-4775000Y-63100000D02*
X-4775000Y-64925000D01*
X-5200000Y-69850000D02*
X-5200000Y-71650000D01*
%TO.N,ESP_RX*%
X7200000Y-69850000D02*
X7200000Y-72950000D01*
X4679129Y-69400998D02*
X4803131Y-69525000D01*
X-1275000Y-69525000D02*
X-4050000Y-66750000D01*
X-4000000Y-66700000D02*
X-4000000Y-63950000D01*
X300000Y-71600000D02*
X300000Y-70000000D01*
X6075000Y-80175000D02*
X5300000Y-79400000D01*
X4803131Y-69525000D02*
X6875000Y-69525000D01*
X225000Y-71675000D02*
X300000Y-71600000D01*
X775000Y-69525000D02*
X-1275000Y-69525000D01*
X6875000Y-69525000D02*
X7200000Y-69850000D01*
X6100000Y-80175000D02*
X6075000Y-80175000D01*
X7200000Y-72950000D02*
X7000000Y-73150000D01*
X7000000Y-73150000D02*
X7000000Y-73690000D01*
X-4050000Y-66750000D02*
X-4000000Y-66700000D01*
X300000Y-70000000D02*
X775000Y-69525000D01*
X775000Y-69525000D02*
X899002Y-69400998D01*
X899002Y-69400998D02*
X4679129Y-69400998D01*
%TO.N,ESP_TX*%
X4492940Y-69850499D02*
X1949501Y-69850499D01*
X5500000Y-70100000D02*
X4742441Y-70100000D01*
X4742441Y-70100000D02*
X4492940Y-69850499D01*
X1495000Y-70305000D02*
X1495000Y-71675000D01*
X7687500Y-80187500D02*
X6900000Y-79400000D01*
X1949501Y-69850499D02*
X1495000Y-70305000D01*
X7700000Y-80187500D02*
X7687500Y-80187500D01*
%TO.N,EN*%
X3150000Y-64200000D02*
X2550000Y-63600000D01*
X3500000Y-64200000D02*
X3150000Y-64200000D01*
%TO.N,IO0*%
X3750000Y-57375000D02*
X5950000Y-59575000D01*
X5950000Y-59575000D02*
X5950000Y-62200000D01*
%TO.N,Net-(R1-Pad1)*%
X-1250000Y-75030000D02*
X-1250000Y-74155000D01*
X-5610000Y-73300000D02*
X-6000000Y-73690000D01*
X-2105000Y-73300000D02*
X-5610000Y-73300000D01*
X-1250000Y-74155000D02*
X-2105000Y-73300000D01*
%TO.N,Net-(R3-Pad2)*%
X1750000Y-74250000D02*
X1750000Y-75030000D01*
X1240000Y-73600000D02*
X1240000Y-73740000D01*
X1240000Y-73740000D02*
X1750000Y-74250000D01*
%TO.N,DTR*%
X1290000Y-64800000D02*
X1290000Y-65283249D01*
X2073249Y-68950000D02*
X6200000Y-68950000D01*
X850000Y-65723249D02*
X850000Y-66800000D01*
X6575000Y-66725000D02*
X6575000Y-65325000D01*
X850000Y-66800000D02*
X850000Y-67726751D01*
X1290000Y-65283249D02*
X850000Y-65723249D01*
X6575000Y-65025000D02*
X6900000Y-64700000D01*
X850000Y-67726751D02*
X2073249Y-68950000D01*
X6575000Y-65325000D02*
X6575000Y-65025000D01*
X6900000Y-64700000D02*
X6900000Y-64200000D01*
%TO.N,RTS*%
X5720000Y-64800000D02*
X5720000Y-66310000D01*
X5720000Y-66310000D02*
X5305000Y-66725000D01*
%TO.N,Net-(Q2-Pad1)*%
X4680000Y-64820000D02*
X4680000Y-68130000D01*
X7200000Y-68150000D02*
X7200000Y-65600000D01*
X7200000Y-65600000D02*
X7850000Y-64950000D01*
X4700000Y-64800000D02*
X4680000Y-64820000D01*
X4850000Y-68300000D02*
X7050000Y-68300000D01*
X7050000Y-68300000D02*
X7200000Y-68150000D01*
X4680000Y-68130000D02*
X4850000Y-68300000D01*
X7850000Y-64950000D02*
X7850000Y-62200000D01*
D34*
%TO.N,USB_DP*%
X750000Y-72950000D02*
X295000Y-73405000D01*
X4035000Y-71675000D02*
X4035000Y-72016396D01*
X700000Y-74155000D02*
X750000Y-74205000D01*
X295000Y-73405000D02*
X295000Y-74155000D01*
X-250000Y-75030000D02*
X-250000Y-74205000D01*
X295000Y-74155000D02*
X700000Y-74155000D01*
X4035000Y-72016396D02*
X3101396Y-72950000D01*
X750000Y-74205000D02*
X750000Y-75030000D01*
X-250000Y-74205000D02*
X-200000Y-74155000D01*
X3101396Y-72950000D02*
X750000Y-72950000D01*
X-200000Y-74155000D02*
X295000Y-74155000D01*
%TO.N,USB_DN*%
X250000Y-75030000D02*
X250000Y-75855000D01*
X-750000Y-75750000D02*
X-750000Y-75030000D01*
X4750000Y-77350000D02*
X150000Y-77350000D01*
X-255000Y-76945000D02*
X-255000Y-75905000D01*
X5305000Y-71675000D02*
X5305000Y-76795000D01*
X200000Y-75905000D02*
X-255000Y-75905000D01*
X250000Y-75855000D02*
X200000Y-75905000D01*
X-255000Y-75905000D02*
X-595000Y-75905000D01*
X-595000Y-75905000D02*
X-750000Y-75750000D01*
X150000Y-77350000D02*
X-255000Y-76945000D01*
X5305000Y-76795000D02*
X4750000Y-77350000D01*
D33*
%TO.N,Net-(D1-Pad2)*%
X-7000000Y-77712500D02*
X-6100000Y-78612500D01*
X-7000000Y-74710000D02*
X-7000000Y-77712500D01*
%TO.N,Net-(D2-Pad2)*%
X-8000000Y-74710000D02*
X-8000000Y-78312500D01*
X-8000000Y-78312500D02*
X-7700000Y-78612500D01*
%TO.N,Net-(D3-Pad2)*%
X6100000Y-78600000D02*
X6100000Y-74810000D01*
X6100000Y-74810000D02*
X6000000Y-74710000D01*
%TO.N,Net-(D4-Pad2)*%
X8000000Y-78312500D02*
X7700000Y-78612500D01*
X8000000Y-74710000D02*
X8000000Y-78312500D01*
%TD*%
%TA.AperFunction,Conductor*%
%TO.N,GND*%
G36*
X-3628286Y-73745502D02*
G01*
X-3581793Y-73799158D01*
X-3571689Y-73869432D01*
X-3601183Y-73934012D01*
X-3652177Y-73969482D01*
X-3738054Y-74001676D01*
X-3753648Y-74010214D01*
X-3843735Y-74077730D01*
X-3910241Y-74102578D01*
X-3956559Y-74097269D01*
X-4048692Y-74068750D01*
X-4062795Y-74068544D01*
X-4066000Y-74075299D01*
X-4066000Y-75317885D01*
X-4061525Y-75333124D01*
X-4060135Y-75334329D01*
X-4052452Y-75336000D01*
X-3398000Y-75336000D01*
X-3329879Y-75356002D01*
X-3283386Y-75409658D01*
X-3272000Y-75462000D01*
X-3272000Y-75535854D01*
X-3292002Y-75603975D01*
X-3315171Y-75630803D01*
X-3352525Y-75663389D01*
X-3352529Y-75663393D01*
X-3358251Y-75668385D01*
X-3362618Y-75674599D01*
X-3362621Y-75674602D01*
X-3444040Y-75790450D01*
X-3499574Y-75834682D01*
X-3547127Y-75844000D01*
X-4047885Y-75844000D01*
X-4063124Y-75848475D01*
X-4064329Y-75849865D01*
X-4066000Y-75857548D01*
X-4066000Y-77097924D01*
X-4062027Y-77111455D01*
X-4054232Y-77112575D01*
X-3946479Y-77080862D01*
X-3935111Y-77076269D01*
X-3770846Y-76990393D01*
X-3760585Y-76983679D01*
X-3616127Y-76867532D01*
X-3607368Y-76858954D01*
X-3488222Y-76716961D01*
X-3481298Y-76706848D01*
X-3444598Y-76640092D01*
X-3394252Y-76590033D01*
X-3324835Y-76575140D01*
X-3261192Y-76598088D01*
X-3260622Y-76598493D01*
X-3255002Y-76603607D01*
X-3248327Y-76607231D01*
X-3248326Y-76607232D01*
X-3128630Y-76672222D01*
X-3128628Y-76672223D01*
X-3121953Y-76675847D01*
X-3114604Y-76677775D01*
X-2982864Y-76712336D01*
X-2982862Y-76712336D01*
X-2975514Y-76714264D01*
X-2895438Y-76715522D01*
X-2831734Y-76716523D01*
X-2831731Y-76716523D01*
X-2824137Y-76716642D01*
X-2676563Y-76682843D01*
X-2591561Y-76640092D01*
X-2548094Y-76618231D01*
X-2548091Y-76618229D01*
X-2541311Y-76614819D01*
X-2426190Y-76516495D01*
X-2337844Y-76393550D01*
X-2281376Y-76253080D01*
X-2260044Y-76103196D01*
X-2259906Y-76090000D01*
X-2265154Y-76046635D01*
X-2253479Y-75976606D01*
X-2205797Y-75924004D01*
X-2140066Y-75905500D01*
X-2055354Y-75905500D01*
X-2051650Y-75905059D01*
X-2051647Y-75905059D01*
X-2048360Y-75904668D01*
X-2029154Y-75902382D01*
X-2028436Y-75902063D01*
X-1971463Y-75902004D01*
X-1970327Y-75902506D01*
X-1960913Y-75903604D01*
X-1960911Y-75903604D01*
X-1956876Y-75904074D01*
X-1944646Y-75905500D01*
X-1555354Y-75905500D01*
X-1551650Y-75905059D01*
X-1551647Y-75905059D01*
X-1548360Y-75904668D01*
X-1529154Y-75902382D01*
X-1528436Y-75902063D01*
X-1471463Y-75902004D01*
X-1470327Y-75902506D01*
X-1460913Y-75903604D01*
X-1460911Y-75903604D01*
X-1456876Y-75904074D01*
X-1444646Y-75905500D01*
X-1197473Y-75905500D01*
X-1129352Y-75925502D01*
X-1085207Y-75974296D01*
X-1078050Y-75988342D01*
X-1055497Y-76010895D01*
X-1055484Y-76010909D01*
X-923050Y-76143342D01*
X-833342Y-76233050D01*
X-824506Y-76237552D01*
X-824505Y-76237553D01*
X-813741Y-76243038D01*
X-796884Y-76253368D01*
X-787115Y-76260466D01*
X-787112Y-76260467D01*
X-779090Y-76266296D01*
X-758166Y-76273095D01*
X-739909Y-76280657D01*
X-732651Y-76284355D01*
X-724300Y-76288610D01*
X-672684Y-76337356D01*
X-655500Y-76400878D01*
X-655500Y-77008433D01*
X-652436Y-77017864D01*
X-652435Y-77017868D01*
X-648703Y-77029353D01*
X-644087Y-77048578D01*
X-642926Y-77055905D01*
X-640646Y-77070304D01*
X-636145Y-77079137D01*
X-636144Y-77079141D01*
X-630659Y-77089906D01*
X-623095Y-77108166D01*
X-616296Y-77129090D01*
X-603361Y-77146893D01*
X-593035Y-77163745D01*
X-583050Y-77183342D01*
X-560497Y-77205895D01*
X-560484Y-77205909D01*
X-178050Y-77588342D01*
X-88342Y-77678050D01*
X-79506Y-77682552D01*
X-79505Y-77682553D01*
X-68741Y-77688038D01*
X-51884Y-77698368D01*
X-34090Y-77711296D01*
X-13170Y-77718093D01*
X5093Y-77725658D01*
X15861Y-77731145D01*
X15865Y-77731146D01*
X24696Y-77735646D01*
X34485Y-77737197D01*
X34493Y-77737199D01*
X46427Y-77739089D01*
X65647Y-77743703D01*
X77133Y-77747435D01*
X77140Y-77747436D01*
X86567Y-77750499D01*
X118477Y-77750499D01*
X118481Y-77750500D01*
X4813433Y-77750500D01*
X4822864Y-77747436D01*
X4822868Y-77747435D01*
X4834353Y-77743703D01*
X4853578Y-77739087D01*
X4865512Y-77737197D01*
X4865513Y-77737197D01*
X4875304Y-77735646D01*
X4884137Y-77731145D01*
X4884141Y-77731144D01*
X4894906Y-77725659D01*
X4913166Y-77718095D01*
X4934090Y-77711296D01*
X4951893Y-77698361D01*
X4968745Y-77688035D01*
X4979502Y-77682554D01*
X4988342Y-77678050D01*
X5010905Y-77655487D01*
X5010909Y-77655484D01*
X5459405Y-77206988D01*
X5521717Y-77172962D01*
X5592532Y-77178027D01*
X5649368Y-77220574D01*
X5674179Y-77287094D01*
X5674500Y-77296083D01*
X5674500Y-77804129D01*
X5654498Y-77872250D01*
X5601247Y-77916045D01*
X5601921Y-77917240D01*
X5595166Y-77921046D01*
X5594878Y-77921283D01*
X5586452Y-77924619D01*
X5473133Y-78010633D01*
X5387119Y-78123952D01*
X5334747Y-78256227D01*
X5333774Y-78264264D01*
X5333774Y-78264266D01*
X5330061Y-78294950D01*
X5324500Y-78340906D01*
X5324500Y-78652858D01*
X5304498Y-78720979D01*
X5250842Y-78767472D01*
X5180568Y-78777576D01*
X5115988Y-78748082D01*
X5100857Y-78732494D01*
X5042603Y-78661067D01*
X5033959Y-78652363D01*
X4891144Y-78534216D01*
X4880973Y-78527356D01*
X4717924Y-78439196D01*
X4706619Y-78434444D01*
X4591308Y-78398750D01*
X4577205Y-78398544D01*
X4574000Y-78405299D01*
X4574000Y-79898000D01*
X4553998Y-79966121D01*
X4500342Y-80012614D01*
X4448000Y-80024000D01*
X3330115Y-80024000D01*
X3314876Y-80028475D01*
X3313671Y-80029865D01*
X3312000Y-80037548D01*
X3312000Y-80216657D01*
X3312301Y-80222805D01*
X3325812Y-80360603D01*
X3328195Y-80372638D01*
X3377995Y-80537582D01*
X3378536Y-80608576D01*
X3340609Y-80668593D01*
X3276254Y-80698577D01*
X3257373Y-80700000D01*
X-3258423Y-80700000D01*
X-3326544Y-80679998D01*
X-3373037Y-80626342D01*
X-3383141Y-80556068D01*
X-3378525Y-80535902D01*
X-3331120Y-80386462D01*
X-3328570Y-80374468D01*
X-3312393Y-80230239D01*
X-3312000Y-80223215D01*
X-3312000Y-80042115D01*
X-3316475Y-80026876D01*
X-3317865Y-80025671D01*
X-3325548Y-80024000D01*
X-4448000Y-80024000D01*
X-4516121Y-80003998D01*
X-4562614Y-79950342D01*
X-4574000Y-79898000D01*
X-4574000Y-79497885D01*
X-4066000Y-79497885D01*
X-4061525Y-79513124D01*
X-4060135Y-79514329D01*
X-4052452Y-79516000D01*
X-3330115Y-79516000D01*
X-3314876Y-79511525D01*
X-3313671Y-79510135D01*
X-3312000Y-79502452D01*
X-3312000Y-79497885D01*
X3312000Y-79497885D01*
X3316475Y-79513124D01*
X3317865Y-79514329D01*
X3325548Y-79516000D01*
X4047885Y-79516000D01*
X4063124Y-79511525D01*
X4064329Y-79510135D01*
X4066000Y-79502452D01*
X4066000Y-78412076D01*
X4062027Y-78398545D01*
X4054232Y-78397425D01*
X3946479Y-78429138D01*
X3935111Y-78433731D01*
X3770846Y-78519607D01*
X3760585Y-78526321D01*
X3616127Y-78642468D01*
X3607368Y-78651046D01*
X3488222Y-78793039D01*
X3481292Y-78803159D01*
X3391998Y-78965585D01*
X3387166Y-78976858D01*
X3331120Y-79153538D01*
X3328570Y-79165532D01*
X3312393Y-79309761D01*
X3312000Y-79316785D01*
X3312000Y-79497885D01*
X-3312000Y-79497885D01*
X-3312000Y-79323343D01*
X-3312301Y-79317195D01*
X-3325812Y-79179397D01*
X-3328195Y-79167362D01*
X-3381767Y-78989924D01*
X-3386441Y-78978584D01*
X-3473460Y-78814923D01*
X-3480249Y-78804706D01*
X-3597397Y-78661067D01*
X-3606041Y-78652363D01*
X-3748856Y-78534216D01*
X-3759027Y-78527356D01*
X-3922076Y-78439196D01*
X-3933381Y-78434444D01*
X-4048692Y-78398750D01*
X-4062795Y-78398544D01*
X-4066000Y-78405299D01*
X-4066000Y-79497885D01*
X-4574000Y-79497885D01*
X-4574000Y-78412076D01*
X-4577973Y-78398545D01*
X-4585768Y-78397425D01*
X-4693521Y-78429138D01*
X-4704889Y-78433731D01*
X-4869154Y-78519607D01*
X-4879415Y-78526321D01*
X-5023873Y-78642468D01*
X-5032632Y-78651046D01*
X-5101978Y-78733689D01*
X-5161088Y-78773016D01*
X-5232075Y-78774142D01*
X-5292403Y-78736711D01*
X-5322917Y-78672607D01*
X-5324500Y-78652698D01*
X-5324500Y-78353406D01*
X-5334747Y-78268727D01*
X-5387119Y-78136452D01*
X-5473133Y-78023133D01*
X-5586452Y-77937119D01*
X-5718727Y-77884747D01*
X-5726764Y-77883774D01*
X-5726766Y-77883774D01*
X-5757450Y-77880061D01*
X-5803406Y-77874500D01*
X-6184062Y-77874500D01*
X-6252183Y-77854498D01*
X-6273158Y-77837595D01*
X-6537596Y-77573156D01*
X-6571621Y-77510844D01*
X-6574500Y-77484061D01*
X-6574500Y-76186657D01*
X-5328000Y-76186657D01*
X-5327699Y-76192805D01*
X-5314188Y-76330603D01*
X-5311805Y-76342638D01*
X-5258233Y-76520076D01*
X-5253559Y-76531416D01*
X-5166540Y-76695077D01*
X-5159751Y-76705294D01*
X-5042603Y-76848933D01*
X-5033959Y-76857637D01*
X-4891144Y-76975784D01*
X-4880973Y-76982644D01*
X-4717924Y-77070804D01*
X-4706619Y-77075556D01*
X-4591308Y-77111250D01*
X-4577205Y-77111456D01*
X-4574000Y-77104701D01*
X-4574000Y-75862115D01*
X-4578475Y-75846876D01*
X-4579865Y-75845671D01*
X-4587548Y-75844000D01*
X-5309885Y-75844000D01*
X-5325124Y-75848475D01*
X-5326329Y-75849865D01*
X-5328000Y-75857548D01*
X-5328000Y-76186657D01*
X-6574500Y-76186657D01*
X-6574500Y-75569244D01*
X-6554498Y-75501123D01*
X-6500842Y-75454630D01*
X-6430568Y-75444526D01*
X-6413347Y-75448247D01*
X-6292564Y-75483337D01*
X-6279977Y-75485637D01*
X-6272057Y-75486260D01*
X-6256970Y-75483090D01*
X-6254000Y-75471626D01*
X-6254000Y-74582000D01*
X-6233998Y-74513879D01*
X-6180342Y-74467386D01*
X-6128000Y-74456000D01*
X-5872000Y-74456000D01*
X-5803879Y-74476002D01*
X-5757386Y-74529658D01*
X-5746000Y-74582000D01*
X-5746000Y-75469566D01*
X-5741656Y-75484361D01*
X-5729997Y-75486421D01*
X-5720023Y-75485637D01*
X-5707436Y-75483338D01*
X-5565217Y-75442019D01*
X-5550778Y-75435770D01*
X-5424593Y-75361144D01*
X-5421653Y-75358864D01*
X-5418929Y-75357794D01*
X-5417768Y-75357108D01*
X-5417657Y-75357295D01*
X-5355567Y-75332919D01*
X-5317648Y-75335305D01*
X-5314453Y-75336000D01*
X-4592115Y-75336000D01*
X-4576876Y-75331525D01*
X-4575671Y-75330135D01*
X-4574000Y-75322452D01*
X-4574000Y-74082076D01*
X-4577973Y-74068545D01*
X-4585768Y-74067425D01*
X-4693521Y-74099138D01*
X-4704889Y-74103731D01*
X-4869154Y-74189607D01*
X-4879415Y-74196321D01*
X-5023873Y-74312468D01*
X-5035306Y-74323664D01*
X-5097970Y-74357035D01*
X-5168729Y-74351230D01*
X-5225117Y-74308091D01*
X-5231917Y-74297780D01*
X-5298854Y-74184595D01*
X-5308501Y-74172159D01*
X-5375907Y-74104753D01*
X-5409933Y-74042441D01*
X-5405695Y-73973912D01*
X-5382382Y-73907526D01*
X-5381175Y-73894763D01*
X-5379779Y-73879986D01*
X-5379500Y-73877038D01*
X-5379500Y-73851500D01*
X-5359498Y-73783379D01*
X-5305842Y-73736886D01*
X-5253500Y-73725500D01*
X-3696407Y-73725500D01*
X-3628286Y-73745502D01*
G37*
%TD.AperFunction*%
%TA.AperFunction,Conductor*%
G36*
X-5903879Y-79953502D02*
G01*
X-5857386Y-80007158D01*
X-5846000Y-80059500D01*
X-5846000Y-80315500D01*
X-5866002Y-80383621D01*
X-5919658Y-80430114D01*
X-5972000Y-80441500D01*
X-7828000Y-80441500D01*
X-7896121Y-80421498D01*
X-7942614Y-80367842D01*
X-7954000Y-80315500D01*
X-7954000Y-80059500D01*
X-7933998Y-79991379D01*
X-7880342Y-79944886D01*
X-7828000Y-79933500D01*
X-5972000Y-79933500D01*
X-5903879Y-79953502D01*
G37*
%TD.AperFunction*%
%TA.AperFunction,Conductor*%
G36*
X4516121Y-75356002D02*
G01*
X4562614Y-75409658D01*
X4574000Y-75462000D01*
X4574000Y-75718000D01*
X4553998Y-75786121D01*
X4500342Y-75832614D01*
X4448000Y-75844000D01*
X3546244Y-75844000D01*
X3478123Y-75823998D01*
X3442404Y-75789367D01*
X3366942Y-75679569D01*
X3366938Y-75679564D01*
X3362640Y-75673311D01*
X3314181Y-75630135D01*
X3276626Y-75569886D01*
X3272000Y-75536059D01*
X3272000Y-75462000D01*
X3292002Y-75393879D01*
X3345658Y-75347386D01*
X3398000Y-75336000D01*
X4448000Y-75336000D01*
X4516121Y-75356002D01*
G37*
%TD.AperFunction*%
%TA.AperFunction,Conductor*%
G36*
X3366121Y-73366002D02*
G01*
X3412614Y-73419658D01*
X3424000Y-73472000D01*
X3424000Y-73888885D01*
X3435171Y-73926929D01*
X3448895Y-73948284D01*
X3454000Y-73983784D01*
X3454000Y-75158000D01*
X3433998Y-75226121D01*
X3380342Y-75272614D01*
X3328000Y-75284000D01*
X3126500Y-75284000D01*
X3058379Y-75263998D01*
X3011886Y-75210342D01*
X3000500Y-75158000D01*
X3000500Y-74410354D01*
X2997382Y-74384154D01*
X2970514Y-74323664D01*
X2956663Y-74292482D01*
X2951939Y-74281847D01*
X2943704Y-74273627D01*
X2938159Y-74265558D01*
X2916000Y-74194192D01*
X2916000Y-73872115D01*
X2911525Y-73856876D01*
X2910135Y-73855671D01*
X2902452Y-73854000D01*
X2132000Y-73854000D01*
X2063879Y-73833998D01*
X2017386Y-73780342D01*
X2006000Y-73728000D01*
X2006000Y-73476500D01*
X2026002Y-73408379D01*
X2079658Y-73361886D01*
X2132000Y-73350500D01*
X3164829Y-73350500D01*
X3174024Y-73347512D01*
X3193242Y-73346000D01*
X3298000Y-73346000D01*
X3366121Y-73366002D01*
G37*
%TD.AperFunction*%
%TA.AperFunction,Conductor*%
G36*
X-4565988Y-66977649D02*
G01*
X-4539889Y-67013844D01*
X-4538152Y-67012841D01*
X-4534022Y-67019994D01*
X-4530861Y-67027625D01*
X-4442621Y-67142621D01*
X-4327625Y-67230861D01*
X-4319996Y-67234021D01*
X-4201339Y-67283170D01*
X-4201336Y-67283171D01*
X-4193709Y-67286330D01*
X-4145952Y-67292617D01*
X-4081026Y-67321339D01*
X-4073304Y-67328444D01*
X-1528220Y-69873528D01*
X-1506844Y-69884419D01*
X-1489988Y-69894749D01*
X-1470581Y-69908850D01*
X-1447763Y-69916264D01*
X-1429502Y-69923827D01*
X-1408126Y-69934719D01*
X-1398335Y-69936270D01*
X-1398328Y-69936272D01*
X-1384431Y-69938473D01*
X-1365212Y-69943087D01*
X-1351826Y-69947436D01*
X-1351821Y-69947437D01*
X-1342393Y-69950500D01*
X-1332478Y-69950500D01*
X-1322899Y-69952017D01*
X-1258745Y-69982428D01*
X-1221217Y-70042695D01*
X-1222229Y-70113685D01*
X-1261461Y-70172857D01*
X-1307453Y-70197463D01*
X-1450790Y-70239107D01*
X-1465221Y-70245352D01*
X-1594678Y-70321911D01*
X-1607104Y-70331551D01*
X-1713449Y-70437896D01*
X-1723089Y-70450322D01*
X-1799648Y-70579779D01*
X-1805893Y-70594210D01*
X-1848269Y-70740065D01*
X-1850570Y-70752667D01*
X-1852807Y-70781084D01*
X-1853000Y-70786014D01*
X-1853000Y-71402885D01*
X-1848525Y-71418124D01*
X-1847135Y-71419329D01*
X-1839452Y-71421000D01*
X-917000Y-71421000D01*
X-848879Y-71441002D01*
X-802386Y-71494658D01*
X-791000Y-71547000D01*
X-791000Y-73136878D01*
X-787027Y-73150409D01*
X-779129Y-73151544D01*
X-639210Y-73110893D01*
X-624779Y-73104648D01*
X-495322Y-73028089D01*
X-482896Y-73018449D01*
X-376551Y-72912104D01*
X-362048Y-72893408D01*
X-359832Y-72895127D01*
X-317722Y-72855825D01*
X-247869Y-72843134D01*
X-186324Y-72867077D01*
X-145757Y-72897041D01*
X-145754Y-72897042D01*
X-138184Y-72902634D01*
X-53937Y-72932219D01*
X3709Y-72973662D01*
X29797Y-73039692D01*
X16046Y-73109344D01*
X726Y-73130225D01*
X1221Y-73130596D01*
X1218Y-73130600D01*
X-3758Y-73136337D01*
X-6590Y-73140197D01*
X-10484Y-73144091D01*
X-10487Y-73144095D01*
X-33050Y-73166658D01*
X-37554Y-73175498D01*
X-43035Y-73186255D01*
X-53361Y-73203107D01*
X-66296Y-73220910D01*
X-73093Y-73241830D01*
X-80659Y-73260094D01*
X-86144Y-73270859D01*
X-86145Y-73270863D01*
X-90646Y-73279696D01*
X-92197Y-73289487D01*
X-92197Y-73289488D01*
X-94087Y-73301422D01*
X-98703Y-73320647D01*
X-102435Y-73332132D01*
X-102436Y-73332136D01*
X-105500Y-73341567D01*
X-105500Y-73628500D01*
X-125502Y-73696621D01*
X-179158Y-73743114D01*
X-231500Y-73754500D01*
X-263433Y-73754500D01*
X-272864Y-73757564D01*
X-272868Y-73757565D01*
X-284353Y-73761297D01*
X-303578Y-73765913D01*
X-315512Y-73767803D01*
X-315513Y-73767803D01*
X-325304Y-73769354D01*
X-334137Y-73773855D01*
X-334141Y-73773856D01*
X-344908Y-73779342D01*
X-363168Y-73786906D01*
X-384089Y-73793704D01*
X-392112Y-73799533D01*
X-401887Y-73806635D01*
X-418742Y-73816963D01*
X-429501Y-73822445D01*
X-429503Y-73822446D01*
X-438342Y-73826950D01*
X-460905Y-73849513D01*
X-460909Y-73849516D01*
X-555484Y-73944091D01*
X-555487Y-73944095D01*
X-578050Y-73966658D01*
X-582554Y-73975498D01*
X-588035Y-73986255D01*
X-598361Y-74003107D01*
X-611296Y-74020910D01*
X-613988Y-74029195D01*
X-662276Y-74080322D01*
X-731191Y-74097388D01*
X-798392Y-74074487D01*
X-840204Y-74021836D01*
X-840281Y-74021875D01*
X-840281Y-74021874D01*
X-851173Y-74000498D01*
X-858736Y-73982237D01*
X-861442Y-73973910D01*
X-866150Y-73959419D01*
X-880251Y-73940011D01*
X-890583Y-73923152D01*
X-894853Y-73914770D01*
X-901472Y-73901780D01*
X-1444276Y-73358976D01*
X-1478302Y-73296664D01*
X-1473237Y-73225849D01*
X-1430690Y-73169013D01*
X-1364170Y-73144202D01*
X-1320028Y-73148884D01*
X-1316396Y-73149939D01*
X-1302294Y-73149899D01*
X-1299000Y-73142630D01*
X-1299000Y-71947115D01*
X-1303475Y-71931876D01*
X-1304865Y-71930671D01*
X-1312548Y-71929000D01*
X-1834884Y-71929000D01*
X-1850123Y-71933475D01*
X-1851328Y-71934865D01*
X-1852999Y-71942548D01*
X-1852999Y-72563984D01*
X-1852805Y-72568920D01*
X-1850570Y-72597336D01*
X-1848269Y-72609934D01*
X-1811315Y-72737129D01*
X-1811518Y-72808125D01*
X-1850071Y-72867741D01*
X-1914736Y-72897050D01*
X-1967659Y-72892428D01*
X-1971874Y-72890281D01*
X-1981665Y-72888730D01*
X-1981666Y-72888730D01*
X-1988618Y-72887629D01*
X-1995571Y-72886528D01*
X-2014790Y-72881914D01*
X-2037607Y-72874500D01*
X-2881045Y-72874500D01*
X-2949166Y-72854498D01*
X-2995659Y-72800842D01*
X-3005763Y-72730568D01*
X-3004651Y-72725205D01*
X-3002494Y-72720327D01*
X-2999500Y-72694646D01*
X-2999500Y-70605354D01*
X-3002618Y-70579154D01*
X-3026785Y-70524745D01*
X-3043337Y-70487482D01*
X-3048061Y-70476847D01*
X-3127287Y-70397759D01*
X-3137924Y-70393056D01*
X-3137926Y-70393055D01*
X-3197462Y-70366735D01*
X-3229673Y-70352494D01*
X-3255354Y-70349500D01*
X-4648500Y-70349500D01*
X-4716621Y-70329498D01*
X-4763114Y-70275842D01*
X-4774500Y-70223500D01*
X-4774500Y-70207353D01*
X-4754498Y-70139232D01*
X-4696717Y-70090944D01*
X-4680007Y-70084023D01*
X-4680002Y-70084020D01*
X-4672375Y-70080861D01*
X-4557379Y-69992621D01*
X-4469139Y-69877625D01*
X-4413670Y-69743709D01*
X-4394750Y-69600000D01*
X-4413670Y-69456291D01*
X-4469139Y-69322375D01*
X-4557379Y-69207379D01*
X-4672375Y-69119139D01*
X-4680002Y-69115980D01*
X-4680007Y-69115977D01*
X-4696717Y-69109056D01*
X-4751999Y-69064508D01*
X-4774500Y-68992647D01*
X-4774500Y-67072873D01*
X-4754498Y-67004752D01*
X-4700842Y-66958259D01*
X-4630568Y-66948155D01*
X-4565988Y-66977649D01*
G37*
%TD.AperFunction*%
%TA.AperFunction,Conductor*%
G36*
X-6283193Y-66393342D02*
G01*
X-6234872Y-66449010D01*
X-6206663Y-66512519D01*
X-6206661Y-66512521D01*
X-6201939Y-66523153D01*
X-6122713Y-66602241D01*
X-6112076Y-66606944D01*
X-6112074Y-66606945D01*
X-6052538Y-66633265D01*
X-6020327Y-66647506D01*
X-5994646Y-66650500D01*
X-5751500Y-66650500D01*
X-5683379Y-66670502D01*
X-5636886Y-66724158D01*
X-5625500Y-66776500D01*
X-5625500Y-69417393D01*
X-5618086Y-69440210D01*
X-5613472Y-69459429D01*
X-5609719Y-69483126D01*
X-5605216Y-69491963D01*
X-5605216Y-69491964D01*
X-5598828Y-69504502D01*
X-5591264Y-69522763D01*
X-5586914Y-69536151D01*
X-5586911Y-69536156D01*
X-5583849Y-69545581D01*
X-5582709Y-69547150D01*
X-5570423Y-69612577D01*
X-5581936Y-69651786D01*
X-5583849Y-69654419D01*
X-5586911Y-69663844D01*
X-5586914Y-69663849D01*
X-5591264Y-69677237D01*
X-5598828Y-69695498D01*
X-5609719Y-69716874D01*
X-5611270Y-69726668D01*
X-5613472Y-69740570D01*
X-5618086Y-69759790D01*
X-5625500Y-69782607D01*
X-5625500Y-70223500D01*
X-5645502Y-70291621D01*
X-5699158Y-70338114D01*
X-5751500Y-70349500D01*
X-7144646Y-70349500D01*
X-7148350Y-70349941D01*
X-7148353Y-70349941D01*
X-7155746Y-70350821D01*
X-7170846Y-70352618D01*
X-7179486Y-70356456D01*
X-7179487Y-70356456D01*
X-7219927Y-70374419D01*
X-7273153Y-70398061D01*
X-7352241Y-70477287D01*
X-7356944Y-70487924D01*
X-7356945Y-70487926D01*
X-7383265Y-70547462D01*
X-7397506Y-70579673D01*
X-7400500Y-70605354D01*
X-7400500Y-71098500D01*
X-7420502Y-71166621D01*
X-7474158Y-71213114D01*
X-7526500Y-71224500D01*
X-7617393Y-71224500D01*
X-7640210Y-71231914D01*
X-7659429Y-71236528D01*
X-7683126Y-71240281D01*
X-7691963Y-71244784D01*
X-7691964Y-71244784D01*
X-7704502Y-71251172D01*
X-7722763Y-71258736D01*
X-7736149Y-71263086D01*
X-7736150Y-71263087D01*
X-7745581Y-71266151D01*
X-7753601Y-71271978D01*
X-7753603Y-71271979D01*
X-7764988Y-71280251D01*
X-7781841Y-71290579D01*
X-7803220Y-71301472D01*
X-8184905Y-71683157D01*
X-8247217Y-71717182D01*
X-8318033Y-71712117D01*
X-8374868Y-71669570D01*
X-8399679Y-71603050D01*
X-8400000Y-71594061D01*
X-8400000Y-66776500D01*
X-8379998Y-66708379D01*
X-8326342Y-66661886D01*
X-8274000Y-66650500D01*
X-6705354Y-66650500D01*
X-6701650Y-66650059D01*
X-6701647Y-66650059D01*
X-6694254Y-66649179D01*
X-6679154Y-66647382D01*
X-6576847Y-66601939D01*
X-6497759Y-66522713D01*
X-6472415Y-66465388D01*
X-6465263Y-66449210D01*
X-6419424Y-66394994D01*
X-6351551Y-66374167D01*
X-6283193Y-66393342D01*
G37*
%TD.AperFunction*%
%TA.AperFunction,Conductor*%
G36*
X-2703879Y-65116002D02*
G01*
X-2657386Y-65169658D01*
X-2646000Y-65222000D01*
X-2646000Y-66839884D01*
X-2641525Y-66855123D01*
X-2640135Y-66856328D01*
X-2632452Y-66857999D01*
X-2105331Y-66857999D01*
X-2098510Y-66857629D01*
X-2047648Y-66852105D01*
X-2032396Y-66848479D01*
X-1911946Y-66803324D01*
X-1896351Y-66794786D01*
X-1847065Y-66757848D01*
X-1780558Y-66733000D01*
X-1711176Y-66748053D01*
X-1660946Y-66798227D01*
X-1645500Y-66858674D01*
X-1645500Y-67603834D01*
X-1642519Y-67635369D01*
X-1597634Y-67763184D01*
X-1592042Y-67770754D01*
X-1592041Y-67770757D01*
X-1578649Y-67788888D01*
X-1517150Y-67872150D01*
X-1509579Y-67877742D01*
X-1415757Y-67947041D01*
X-1415754Y-67947042D01*
X-1408184Y-67952634D01*
X-1280369Y-67997519D01*
X-1272723Y-67998242D01*
X-1272722Y-67998242D01*
X-1266752Y-67998806D01*
X-1248834Y-68000500D01*
X-841166Y-68000500D01*
X-823248Y-67998806D01*
X-817278Y-67998242D01*
X-817277Y-67998242D01*
X-809631Y-67997519D01*
X-681816Y-67952634D01*
X-674246Y-67947042D01*
X-674243Y-67947041D01*
X-580421Y-67877742D01*
X-572850Y-67872150D01*
X-567258Y-67864579D01*
X-567255Y-67864576D01*
X-511351Y-67788888D01*
X-454790Y-67745977D01*
X-384008Y-67740457D01*
X-321479Y-67774081D01*
X-308649Y-67788888D01*
X-252745Y-67864576D01*
X-252742Y-67864579D01*
X-247150Y-67872150D01*
X-239579Y-67877742D01*
X-145757Y-67947041D01*
X-145754Y-67947042D01*
X-138184Y-67952634D01*
X-10369Y-67997519D01*
X-2723Y-67998242D01*
X-2722Y-67998242D01*
X3248Y-67998806D01*
X21166Y-68000500D01*
X428834Y-68000500D01*
X431773Y-68000222D01*
X431777Y-68000222D01*
X437449Y-67999686D01*
X454927Y-67998033D01*
X524626Y-68011535D01*
X555880Y-68034379D01*
X1281904Y-68760403D01*
X1315930Y-68822715D01*
X1310865Y-68893530D01*
X1268318Y-68950366D01*
X1201798Y-68975177D01*
X1192809Y-68975498D01*
X831609Y-68975498D01*
X808792Y-68982912D01*
X789573Y-68987526D01*
X765876Y-68991279D01*
X757039Y-68995782D01*
X757038Y-68995782D01*
X744500Y-69002170D01*
X726239Y-69009734D01*
X712855Y-69014083D01*
X712852Y-69014085D01*
X703421Y-69017149D01*
X695398Y-69022978D01*
X684011Y-69031251D01*
X667165Y-69041575D01*
X645782Y-69052470D01*
X635657Y-69062595D01*
X630944Y-69065169D01*
X630748Y-69065311D01*
X630730Y-69065286D01*
X573345Y-69096621D01*
X546562Y-69099500D01*
X-1046562Y-69099500D01*
X-1114683Y-69079498D01*
X-1135657Y-69062595D01*
X-3161133Y-67037119D01*
X-3195159Y-66974807D01*
X-3190094Y-66903992D01*
X-3167262Y-66865511D01*
X-3155671Y-66852135D01*
X-3154000Y-66844452D01*
X-3154000Y-65222000D01*
X-3133998Y-65153879D01*
X-3080342Y-65107386D01*
X-3028000Y-65096000D01*
X-2772000Y-65096000D01*
X-2703879Y-65116002D01*
G37*
%TD.AperFunction*%
%TA.AperFunction,Conductor*%
G36*
X3488521Y-67774081D02*
G01*
X3501351Y-67788888D01*
X3557255Y-67864576D01*
X3557258Y-67864579D01*
X3562850Y-67872150D01*
X3570421Y-67877742D01*
X3664243Y-67947041D01*
X3664246Y-67947042D01*
X3671816Y-67952634D01*
X3799631Y-67997519D01*
X3807277Y-67998242D01*
X3807278Y-67998242D01*
X3813248Y-67998806D01*
X3831166Y-68000500D01*
X4128500Y-68000500D01*
X4196621Y-68020502D01*
X4243114Y-68074158D01*
X4254500Y-68126500D01*
X4254500Y-68197393D01*
X4261914Y-68220210D01*
X4266528Y-68239429D01*
X4270281Y-68263126D01*
X4274784Y-68271963D01*
X4274784Y-68271964D01*
X4281172Y-68284502D01*
X4288736Y-68302763D01*
X4293086Y-68316149D01*
X4296151Y-68325581D01*
X4301979Y-68333603D01*
X4305899Y-68341296D01*
X4319004Y-68411073D01*
X4292304Y-68476858D01*
X4234277Y-68517765D01*
X4193633Y-68524500D01*
X2301687Y-68524500D01*
X2233566Y-68504498D01*
X2212592Y-68487595D01*
X1857827Y-68132830D01*
X1823801Y-68070518D01*
X1828866Y-67999703D01*
X1872062Y-67942384D01*
X1959579Y-67877742D01*
X1967150Y-67872150D01*
X1972742Y-67864579D01*
X1972745Y-67864576D01*
X2028649Y-67788888D01*
X2085210Y-67745977D01*
X2155992Y-67740457D01*
X2218521Y-67774081D01*
X2231351Y-67788888D01*
X2287255Y-67864576D01*
X2287258Y-67864579D01*
X2292850Y-67872150D01*
X2300421Y-67877742D01*
X2394243Y-67947041D01*
X2394246Y-67947042D01*
X2401816Y-67952634D01*
X2529631Y-67997519D01*
X2537277Y-67998242D01*
X2537278Y-67998242D01*
X2543248Y-67998806D01*
X2561166Y-68000500D01*
X2968834Y-68000500D01*
X2986752Y-67998806D01*
X2992722Y-67998242D01*
X2992723Y-67998242D01*
X3000369Y-67997519D01*
X3128184Y-67952634D01*
X3135754Y-67947042D01*
X3135757Y-67947041D01*
X3229579Y-67877742D01*
X3237150Y-67872150D01*
X3242742Y-67864579D01*
X3242745Y-67864576D01*
X3298649Y-67788888D01*
X3355210Y-67745977D01*
X3425992Y-67740457D01*
X3488521Y-67774081D01*
G37*
%TD.AperFunction*%
%TA.AperFunction,Conductor*%
G36*
X4092434Y-65049878D02*
G01*
X4142313Y-65100401D01*
X4150219Y-65118317D01*
X4175773Y-65191085D01*
X4218286Y-65248643D01*
X4242668Y-65315318D01*
X4227132Y-65384594D01*
X4176608Y-65434473D01*
X4116934Y-65449500D01*
X3831166Y-65449500D01*
X3813248Y-65451194D01*
X3807278Y-65451758D01*
X3807277Y-65451758D01*
X3799631Y-65452481D01*
X3671816Y-65497366D01*
X3664246Y-65502958D01*
X3664243Y-65502959D01*
X3609499Y-65543394D01*
X3562850Y-65577850D01*
X3557258Y-65585421D01*
X3557255Y-65585424D01*
X3501351Y-65661112D01*
X3444790Y-65704023D01*
X3374008Y-65709543D01*
X3311479Y-65675919D01*
X3298649Y-65661112D01*
X3242745Y-65585424D01*
X3242742Y-65585421D01*
X3237150Y-65577850D01*
X3190501Y-65543394D01*
X3135757Y-65502959D01*
X3135754Y-65502958D01*
X3128184Y-65497366D01*
X3000369Y-65452481D01*
X2992723Y-65451758D01*
X2992722Y-65451758D01*
X2986752Y-65451194D01*
X2968834Y-65449500D01*
X2893066Y-65449500D01*
X2824945Y-65429498D01*
X2778452Y-65375842D01*
X2768348Y-65305568D01*
X2791714Y-65248643D01*
X2834227Y-65191085D01*
X2840493Y-65173242D01*
X2857719Y-65124191D01*
X2899162Y-65066546D01*
X2965192Y-65040458D01*
X3034844Y-65054209D01*
X3051457Y-65064587D01*
X3087171Y-65090966D01*
X3129243Y-65122041D01*
X3129246Y-65122042D01*
X3136816Y-65127634D01*
X3264631Y-65172519D01*
X3272277Y-65173242D01*
X3272278Y-65173242D01*
X3278248Y-65173806D01*
X3296166Y-65175500D01*
X3703834Y-65175500D01*
X3721752Y-65173806D01*
X3727722Y-65173242D01*
X3727723Y-65173242D01*
X3735369Y-65172519D01*
X3863184Y-65127634D01*
X3870754Y-65122042D01*
X3870757Y-65122041D01*
X3956480Y-65058724D01*
X4023159Y-65034341D01*
X4092434Y-65049878D01*
G37*
%TD.AperFunction*%
%TA.AperFunction,Conductor*%
G36*
X5236621Y-63770022D02*
G01*
X5283114Y-63823678D01*
X5294500Y-63876020D01*
X5294500Y-64163241D01*
X5274498Y-64231362D01*
X5220842Y-64277855D01*
X5150568Y-64287959D01*
X5093644Y-64264594D01*
X5041085Y-64225773D01*
X4962341Y-64198120D01*
X4924774Y-64184927D01*
X4924772Y-64184926D01*
X4917526Y-64182382D01*
X4909884Y-64181660D01*
X4909881Y-64181659D01*
X4899974Y-64180723D01*
X4887038Y-64179500D01*
X4512962Y-64179500D01*
X4500026Y-64180723D01*
X4490119Y-64181659D01*
X4490116Y-64181660D01*
X4482474Y-64182382D01*
X4475228Y-64184926D01*
X4475226Y-64184927D01*
X4437659Y-64198120D01*
X4358915Y-64225773D01*
X4301357Y-64268286D01*
X4234682Y-64292668D01*
X4165406Y-64277132D01*
X4115527Y-64226608D01*
X4100500Y-64166934D01*
X4100500Y-63876020D01*
X4120502Y-63807899D01*
X4174158Y-63761406D01*
X4226500Y-63750020D01*
X5168500Y-63750020D01*
X5236621Y-63770022D01*
G37*
%TD.AperFunction*%
%TA.AperFunction,Conductor*%
G36*
X7684608Y-51901914D02*
G01*
X7689145Y-51902714D01*
X7700000Y-51904628D01*
X7710857Y-51902714D01*
X7721368Y-51902714D01*
X7733715Y-51903321D01*
X7746988Y-51904628D01*
X7824214Y-51912234D01*
X7848437Y-51917052D01*
X7956009Y-51949683D01*
X7978820Y-51959132D01*
X8077960Y-52012124D01*
X8098491Y-52025843D01*
X8120533Y-52043932D01*
X8185382Y-52097152D01*
X8202847Y-52114617D01*
X8273915Y-52201213D01*
X8274155Y-52201506D01*
X8287876Y-52222040D01*
X8325090Y-52291662D01*
X8340867Y-52321178D01*
X8350317Y-52343991D01*
X8366096Y-52396007D01*
X8382948Y-52451561D01*
X8387766Y-52475786D01*
X8396679Y-52566282D01*
X8397286Y-52578632D01*
X8397286Y-52589143D01*
X8395372Y-52600000D01*
X8397286Y-52610855D01*
X8398086Y-52615392D01*
X8400000Y-52637271D01*
X8400000Y-61163579D01*
X8379998Y-61231700D01*
X8326342Y-61278193D01*
X8256068Y-61288297D01*
X8217936Y-61275876D01*
X8213184Y-61272366D01*
X8085369Y-61227481D01*
X8077723Y-61226758D01*
X8077722Y-61226758D01*
X8071752Y-61226194D01*
X8053834Y-61224500D01*
X7646166Y-61224500D01*
X7628248Y-61226194D01*
X7622278Y-61226758D01*
X7622277Y-61226758D01*
X7614631Y-61227481D01*
X7486816Y-61272366D01*
X7479246Y-61277958D01*
X7479243Y-61277959D01*
X7403507Y-61333899D01*
X7377850Y-61352850D01*
X7372258Y-61360421D01*
X7302959Y-61454243D01*
X7302958Y-61454246D01*
X7297366Y-61461816D01*
X7252481Y-61589631D01*
X7249500Y-61621166D01*
X7249500Y-62903834D01*
X7252481Y-62935369D01*
X7255025Y-62942613D01*
X7256365Y-62948721D01*
X7251426Y-63019546D01*
X7208980Y-63076457D01*
X7142504Y-63101386D01*
X7121438Y-63101164D01*
X7111220Y-63100198D01*
X7106777Y-63099778D01*
X7106773Y-63099778D01*
X7103834Y-63099500D01*
X6696166Y-63099500D01*
X6693227Y-63099778D01*
X6693223Y-63099778D01*
X6688780Y-63100198D01*
X6678566Y-63101164D01*
X6608867Y-63087662D01*
X6557530Y-63038621D01*
X6540856Y-62969610D01*
X6543635Y-62948721D01*
X6544975Y-62942613D01*
X6547519Y-62935369D01*
X6550500Y-62903834D01*
X6550500Y-61621166D01*
X6547519Y-61589631D01*
X6502634Y-61461816D01*
X6497042Y-61454246D01*
X6497041Y-61454243D01*
X6427742Y-61360421D01*
X6422150Y-61352850D01*
X6414579Y-61347258D01*
X6412405Y-61345084D01*
X6378379Y-61282772D01*
X6375500Y-61255989D01*
X6375500Y-59507607D01*
X6368086Y-59484790D01*
X6363472Y-59465570D01*
X6361270Y-59451668D01*
X6359719Y-59441874D01*
X6348828Y-59420498D01*
X6341264Y-59402237D01*
X6336915Y-59388853D01*
X6336913Y-59388850D01*
X6333849Y-59379419D01*
X6319747Y-59360009D01*
X6309423Y-59343163D01*
X6298528Y-59321780D01*
X5792685Y-58815937D01*
X5758659Y-58753625D01*
X5763724Y-58682810D01*
X5806271Y-58625974D01*
X5872791Y-58601163D01*
X5917181Y-58605989D01*
X5921840Y-58607848D01*
X5927498Y-58608973D01*
X5927500Y-58608974D01*
X6123558Y-58647972D01*
X6123560Y-58647972D01*
X6129225Y-58649099D01*
X6135000Y-58649175D01*
X6135004Y-58649175D01*
X6241024Y-58650563D01*
X6340654Y-58651867D01*
X6356321Y-58649175D01*
X6543350Y-58617038D01*
X6543351Y-58617038D01*
X6549047Y-58616059D01*
X6747425Y-58542873D01*
X6766316Y-58531634D01*
X6924179Y-58437716D01*
X6924180Y-58437715D01*
X6929144Y-58434762D01*
X7088119Y-58295345D01*
X7219024Y-58129292D01*
X7230049Y-58108338D01*
X7293219Y-57988270D01*
X7317477Y-57942164D01*
X7380180Y-57740227D01*
X7400500Y-57568545D01*
X7400500Y-57196359D01*
X7386081Y-57039440D01*
X7381018Y-57021486D01*
X7360919Y-56950221D01*
X7328686Y-56835931D01*
X7317553Y-56813354D01*
X7237719Y-56651469D01*
X7235165Y-56646290D01*
X7108651Y-56476867D01*
X6953381Y-56333337D01*
X6774554Y-56220505D01*
X6578160Y-56142152D01*
X6572503Y-56141027D01*
X6572497Y-56141025D01*
X6376442Y-56102028D01*
X6376440Y-56102028D01*
X6370775Y-56100901D01*
X6365000Y-56100825D01*
X6364996Y-56100825D01*
X6258976Y-56099437D01*
X6159346Y-56098133D01*
X6153649Y-56099112D01*
X6153648Y-56099112D01*
X5956650Y-56132962D01*
X5956649Y-56132962D01*
X5950953Y-56133941D01*
X5922896Y-56144292D01*
X5778061Y-56197724D01*
X5707227Y-56202536D01*
X5645355Y-56168607D01*
X5203220Y-55726472D01*
X5181837Y-55715577D01*
X5164991Y-55705253D01*
X5153604Y-55696980D01*
X5145581Y-55691151D01*
X5136150Y-55688087D01*
X5136147Y-55688085D01*
X5122763Y-55683736D01*
X5104502Y-55676172D01*
X5091964Y-55669784D01*
X5091963Y-55669784D01*
X5083126Y-55665281D01*
X5059429Y-55661528D01*
X5040210Y-55656914D01*
X5017393Y-55649500D01*
X-7642393Y-55649500D01*
X-7651820Y-55652563D01*
X-7651827Y-55652564D01*
X-7665212Y-55656913D01*
X-7684431Y-55661527D01*
X-7698328Y-55663728D01*
X-7698335Y-55663730D01*
X-7708126Y-55665281D01*
X-7729501Y-55676172D01*
X-7747763Y-55683736D01*
X-7770581Y-55691150D01*
X-7778603Y-55696979D01*
X-7778604Y-55696979D01*
X-7789989Y-55705251D01*
X-7806844Y-55715581D01*
X-7828220Y-55726472D01*
X-8184905Y-56083157D01*
X-8247217Y-56117183D01*
X-8318032Y-56112118D01*
X-8374868Y-56069571D01*
X-8399679Y-56003051D01*
X-8400000Y-55994062D01*
X-8400000Y-53794669D01*
X-7707999Y-53794669D01*
X-7707629Y-53801490D01*
X-7702105Y-53852352D01*
X-7698479Y-53867604D01*
X-7653324Y-53988054D01*
X-7644786Y-54003649D01*
X-7568285Y-54105724D01*
X-7555724Y-54118285D01*
X-7453649Y-54194786D01*
X-7438054Y-54203324D01*
X-7317606Y-54248478D01*
X-7302351Y-54252105D01*
X-7251486Y-54257631D01*
X-7244672Y-54258000D01*
X-6622115Y-54258000D01*
X-6606876Y-54253525D01*
X-6605671Y-54252135D01*
X-6604000Y-54244452D01*
X-6604000Y-53172115D01*
X-6608475Y-53156876D01*
X-6609865Y-53155671D01*
X-6617548Y-53154000D01*
X-7689884Y-53154000D01*
X-7705123Y-53158475D01*
X-7706328Y-53159865D01*
X-7707999Y-53167548D01*
X-7707999Y-53794669D01*
X-8400000Y-53794669D01*
X-8400000Y-52637271D01*
X-8398086Y-52615392D01*
X-8397286Y-52610855D01*
X-8395372Y-52600000D01*
X-8397286Y-52589143D01*
X-8397286Y-52578632D01*
X-8396679Y-52566282D01*
X-8387766Y-52475786D01*
X-8382948Y-52451561D01*
X-8366096Y-52396007D01*
X-8350317Y-52343991D01*
X-8340867Y-52321178D01*
X-8325090Y-52291662D01*
X-8287876Y-52222040D01*
X-8274155Y-52201506D01*
X-8273914Y-52201213D01*
X-8202847Y-52114617D01*
X-8185382Y-52097152D01*
X-8120533Y-52043932D01*
X-8098491Y-52025843D01*
X-8077960Y-52012124D01*
X-7978820Y-51959132D01*
X-7956002Y-51949681D01*
X-7870575Y-51923767D01*
X-7799582Y-51923133D01*
X-7739516Y-51960982D01*
X-7709448Y-52025297D01*
X-7708000Y-52044341D01*
X-7708000Y-52627885D01*
X-7703525Y-52643124D01*
X-7702135Y-52644329D01*
X-7694452Y-52646000D01*
X-6222000Y-52646000D01*
X-6153879Y-52666002D01*
X-6107386Y-52719658D01*
X-6096000Y-52772000D01*
X-6096000Y-54239884D01*
X-6091525Y-54255123D01*
X-6090135Y-54256328D01*
X-6082452Y-54257999D01*
X-5455331Y-54257999D01*
X-5448510Y-54257629D01*
X-5397648Y-54252105D01*
X-5382396Y-54248479D01*
X-5261946Y-54203324D01*
X-5246351Y-54194786D01*
X-5144276Y-54118285D01*
X-5131715Y-54105724D01*
X-5055214Y-54003649D01*
X-5046676Y-53988054D01*
X-5001522Y-53867606D01*
X-4997895Y-53852351D01*
X-4992369Y-53801486D01*
X-4992000Y-53794672D01*
X-4992000Y-53617684D01*
X-4971998Y-53549563D01*
X-4918342Y-53503070D01*
X-4848068Y-53492966D01*
X-4783488Y-53522460D01*
X-4763105Y-53544962D01*
X-4688595Y-53650391D01*
X-4537135Y-53797937D01*
X-4532339Y-53801142D01*
X-4532336Y-53801144D01*
X-4432871Y-53867604D01*
X-4361323Y-53915411D01*
X-4356015Y-53917692D01*
X-4356014Y-53917692D01*
X-4172350Y-53996600D01*
X-4172347Y-53996601D01*
X-4167047Y-53998878D01*
X-4161418Y-54000152D01*
X-4161417Y-54000152D01*
X-3966450Y-54044269D01*
X-3966447Y-54044269D01*
X-3960814Y-54045544D01*
X-3955043Y-54045771D01*
X-3955041Y-54045771D01*
X-3893011Y-54048208D01*
X-3749530Y-54053846D01*
X-3743821Y-54053018D01*
X-3743817Y-54053018D01*
X-3545985Y-54024333D01*
X-3545981Y-54024332D01*
X-3540270Y-54023504D01*
X-3435837Y-53988054D01*
X-3345517Y-53957395D01*
X-3345512Y-53957393D01*
X-3340045Y-53955537D01*
X-3335002Y-53952713D01*
X-3160605Y-53855046D01*
X-3160601Y-53855043D01*
X-3155558Y-53852219D01*
X-2992988Y-53717012D01*
X-2857781Y-53554442D01*
X-2854957Y-53549399D01*
X-2854954Y-53549395D01*
X-2757287Y-53374998D01*
X-2757286Y-53374996D01*
X-2754463Y-53369955D01*
X-2752607Y-53364488D01*
X-2752605Y-53364483D01*
X-2688353Y-53175200D01*
X-2686496Y-53169730D01*
X-2685667Y-53164015D01*
X-2664910Y-53020860D01*
X-2635340Y-52956315D01*
X-2575568Y-52918003D01*
X-2504571Y-52918087D01*
X-2444891Y-52956542D01*
X-2415475Y-53021158D01*
X-2414485Y-53030695D01*
X-2411204Y-53080749D01*
X-2409783Y-53086345D01*
X-2409782Y-53086350D01*
X-2388000Y-53172115D01*
X-2359155Y-53285690D01*
X-2270631Y-53477714D01*
X-2148595Y-53650391D01*
X-1997135Y-53797937D01*
X-1992339Y-53801142D01*
X-1992336Y-53801144D01*
X-1892871Y-53867604D01*
X-1821323Y-53915411D01*
X-1816015Y-53917692D01*
X-1816014Y-53917692D01*
X-1632350Y-53996600D01*
X-1632347Y-53996601D01*
X-1627047Y-53998878D01*
X-1621418Y-54000152D01*
X-1621417Y-54000152D01*
X-1426450Y-54044269D01*
X-1426447Y-54044269D01*
X-1420814Y-54045544D01*
X-1415043Y-54045771D01*
X-1415041Y-54045771D01*
X-1353011Y-54048208D01*
X-1209530Y-54053846D01*
X-1203821Y-54053018D01*
X-1203817Y-54053018D01*
X-1005985Y-54024333D01*
X-1005981Y-54024332D01*
X-1000270Y-54023504D01*
X-895837Y-53988054D01*
X-805517Y-53957395D01*
X-805512Y-53957393D01*
X-800045Y-53955537D01*
X-795002Y-53952713D01*
X-620605Y-53855046D01*
X-620601Y-53855043D01*
X-615558Y-53852219D01*
X-452988Y-53717012D01*
X-317781Y-53554442D01*
X-314957Y-53549399D01*
X-314954Y-53549395D01*
X-217287Y-53374998D01*
X-217286Y-53374996D01*
X-214463Y-53369955D01*
X-212607Y-53364488D01*
X-212605Y-53364483D01*
X-148353Y-53175200D01*
X-146496Y-53169730D01*
X-145667Y-53164015D01*
X-124910Y-53020860D01*
X-95340Y-52956315D01*
X-35568Y-52918003D01*
X35429Y-52918087D01*
X95109Y-52956542D01*
X124525Y-53021158D01*
X125515Y-53030695D01*
X128796Y-53080749D01*
X130217Y-53086345D01*
X130218Y-53086350D01*
X152000Y-53172115D01*
X180845Y-53285690D01*
X269369Y-53477714D01*
X391405Y-53650391D01*
X542865Y-53797937D01*
X547661Y-53801142D01*
X547664Y-53801144D01*
X647129Y-53867604D01*
X718677Y-53915411D01*
X723985Y-53917692D01*
X723986Y-53917692D01*
X907650Y-53996600D01*
X907653Y-53996601D01*
X912953Y-53998878D01*
X918582Y-54000152D01*
X918583Y-54000152D01*
X1113550Y-54044269D01*
X1113553Y-54044269D01*
X1119186Y-54045544D01*
X1124957Y-54045771D01*
X1124959Y-54045771D01*
X1186989Y-54048208D01*
X1330470Y-54053846D01*
X1336179Y-54053018D01*
X1336183Y-54053018D01*
X1534015Y-54024333D01*
X1534019Y-54024332D01*
X1539730Y-54023504D01*
X1644163Y-53988054D01*
X1734483Y-53957395D01*
X1734488Y-53957393D01*
X1739955Y-53955537D01*
X1744998Y-53952713D01*
X1919395Y-53855046D01*
X1919399Y-53855043D01*
X1924442Y-53852219D01*
X2087012Y-53717012D01*
X2222219Y-53554442D01*
X2225043Y-53549399D01*
X2225046Y-53549395D01*
X2322713Y-53374998D01*
X2322714Y-53374996D01*
X2325537Y-53369955D01*
X2327393Y-53364488D01*
X2327395Y-53364483D01*
X2391647Y-53175200D01*
X2393504Y-53169730D01*
X2394333Y-53164015D01*
X2415090Y-53020860D01*
X2444660Y-52956315D01*
X2504432Y-52918003D01*
X2575429Y-52918087D01*
X2635109Y-52956542D01*
X2664525Y-53021158D01*
X2665515Y-53030695D01*
X2668796Y-53080749D01*
X2670217Y-53086345D01*
X2670218Y-53086350D01*
X2692000Y-53172115D01*
X2720845Y-53285690D01*
X2809369Y-53477714D01*
X2931405Y-53650391D01*
X3082865Y-53797937D01*
X3087661Y-53801142D01*
X3087664Y-53801144D01*
X3187129Y-53867604D01*
X3258677Y-53915411D01*
X3263985Y-53917692D01*
X3263986Y-53917692D01*
X3447650Y-53996600D01*
X3447653Y-53996601D01*
X3452953Y-53998878D01*
X3458582Y-54000152D01*
X3458583Y-54000152D01*
X3653550Y-54044269D01*
X3653553Y-54044269D01*
X3659186Y-54045544D01*
X3664957Y-54045771D01*
X3664959Y-54045771D01*
X3726989Y-54048208D01*
X3870470Y-54053846D01*
X3876179Y-54053018D01*
X3876183Y-54053018D01*
X4074015Y-54024333D01*
X4074019Y-54024332D01*
X4079730Y-54023504D01*
X4184163Y-53988054D01*
X4274483Y-53957395D01*
X4274488Y-53957393D01*
X4279955Y-53955537D01*
X4284998Y-53952713D01*
X4459395Y-53855046D01*
X4459399Y-53855043D01*
X4464442Y-53852219D01*
X4627012Y-53717012D01*
X4762219Y-53554442D01*
X4765043Y-53549399D01*
X4765046Y-53549395D01*
X4862713Y-53374998D01*
X4862714Y-53374996D01*
X4865537Y-53369955D01*
X4867393Y-53364488D01*
X4867395Y-53364483D01*
X4931647Y-53175200D01*
X4933504Y-53169730D01*
X4934333Y-53164015D01*
X4955090Y-53020860D01*
X4984660Y-52956315D01*
X5044432Y-52918003D01*
X5115429Y-52918087D01*
X5175109Y-52956542D01*
X5204525Y-53021158D01*
X5205515Y-53030695D01*
X5208796Y-53080749D01*
X5210217Y-53086345D01*
X5210218Y-53086350D01*
X5232000Y-53172115D01*
X5260845Y-53285690D01*
X5349369Y-53477714D01*
X5471405Y-53650391D01*
X5622865Y-53797937D01*
X5627661Y-53801142D01*
X5627664Y-53801144D01*
X5727129Y-53867604D01*
X5798677Y-53915411D01*
X5803985Y-53917692D01*
X5803986Y-53917692D01*
X5987650Y-53996600D01*
X5987653Y-53996601D01*
X5992953Y-53998878D01*
X5998582Y-54000152D01*
X5998583Y-54000152D01*
X6193550Y-54044269D01*
X6193553Y-54044269D01*
X6199186Y-54045544D01*
X6204957Y-54045771D01*
X6204959Y-54045771D01*
X6266989Y-54048208D01*
X6410470Y-54053846D01*
X6416179Y-54053018D01*
X6416183Y-54053018D01*
X6614015Y-54024333D01*
X6614019Y-54024332D01*
X6619730Y-54023504D01*
X6724163Y-53988054D01*
X6814483Y-53957395D01*
X6814488Y-53957393D01*
X6819955Y-53955537D01*
X6824998Y-53952713D01*
X6999395Y-53855046D01*
X6999399Y-53855043D01*
X7004442Y-53852219D01*
X7167012Y-53717012D01*
X7302219Y-53554442D01*
X7305043Y-53549399D01*
X7305046Y-53549395D01*
X7402713Y-53374998D01*
X7402714Y-53374996D01*
X7405537Y-53369955D01*
X7407393Y-53364488D01*
X7407395Y-53364483D01*
X7471647Y-53175200D01*
X7473504Y-53169730D01*
X7474935Y-53159865D01*
X7503314Y-52964140D01*
X7503314Y-52964138D01*
X7503846Y-52960470D01*
X7505429Y-52900000D01*
X7486081Y-52689440D01*
X7473359Y-52644329D01*
X7463918Y-52610855D01*
X7428686Y-52485931D01*
X7417553Y-52463354D01*
X7337719Y-52301469D01*
X7335165Y-52296290D01*
X7208651Y-52126867D01*
X7199625Y-52118523D01*
X7163181Y-52057594D01*
X7165463Y-51986634D01*
X7205747Y-51928173D01*
X7271242Y-51900771D01*
X7285156Y-51900000D01*
X7662729Y-51900000D01*
X7684608Y-51901914D01*
G37*
%TD.AperFunction*%
%TA.AperFunction,Conductor*%
G36*
X-6053879Y-57141002D02*
G01*
X-6007386Y-57194658D01*
X-5996000Y-57247000D01*
X-5996000Y-58839884D01*
X-5991525Y-58855123D01*
X-5990135Y-58856328D01*
X-5982452Y-58857999D01*
X-5602905Y-58857999D01*
X-5596386Y-58857662D01*
X-5500794Y-58847743D01*
X-5487400Y-58844851D01*
X-5333216Y-58793412D01*
X-5320038Y-58787239D01*
X-5182193Y-58701937D01*
X-5170792Y-58692901D01*
X-5056261Y-58578171D01*
X-5047249Y-58566760D01*
X-4962184Y-58428757D01*
X-4956037Y-58415576D01*
X-4904862Y-58261290D01*
X-4901993Y-58247907D01*
X-4901812Y-58246139D01*
X-4901396Y-58245119D01*
X-4900553Y-58241189D01*
X-4899852Y-58241339D01*
X-4874970Y-58180413D01*
X-4816854Y-58139632D01*
X-4745916Y-58136745D01*
X-4684678Y-58172669D01*
X-4675514Y-58183592D01*
X-4608651Y-58273133D01*
X-4453381Y-58416663D01*
X-4274554Y-58529495D01*
X-4078160Y-58607848D01*
X-4072503Y-58608973D01*
X-4072497Y-58608975D01*
X-3876442Y-58647972D01*
X-3876440Y-58647972D01*
X-3870775Y-58649099D01*
X-3865000Y-58649175D01*
X-3864996Y-58649175D01*
X-3758976Y-58650563D01*
X-3659346Y-58651867D01*
X-3643679Y-58649175D01*
X-3456650Y-58617038D01*
X-3456649Y-58617038D01*
X-3450953Y-58616059D01*
X-3252575Y-58542873D01*
X-3233684Y-58531634D01*
X-3075821Y-58437716D01*
X-3075820Y-58437715D01*
X-3070856Y-58434762D01*
X-2911881Y-58295345D01*
X-2780976Y-58129292D01*
X-2769951Y-58108338D01*
X-2706781Y-57988270D01*
X-2682523Y-57942164D01*
X-2619820Y-57740227D01*
X-2617944Y-57740809D01*
X-2588401Y-57686094D01*
X-2526249Y-57651776D01*
X-2455410Y-57656508D01*
X-2398375Y-57698786D01*
X-2377618Y-57740568D01*
X-2328686Y-57914069D01*
X-2326133Y-57919247D01*
X-2326131Y-57919251D01*
X-2239711Y-58094492D01*
X-2235165Y-58103710D01*
X-2231709Y-58108338D01*
X-2121009Y-58256583D01*
X-2108651Y-58273133D01*
X-1953381Y-58416663D01*
X-1774554Y-58529495D01*
X-1578160Y-58607848D01*
X-1572503Y-58608973D01*
X-1572497Y-58608975D01*
X-1376442Y-58647972D01*
X-1376440Y-58647972D01*
X-1370775Y-58649099D01*
X-1365000Y-58649175D01*
X-1364996Y-58649175D01*
X-1258976Y-58650563D01*
X-1159346Y-58651867D01*
X-1143679Y-58649175D01*
X-956650Y-58617038D01*
X-956649Y-58617038D01*
X-950953Y-58616059D01*
X-752575Y-58542873D01*
X-733684Y-58531634D01*
X-575821Y-58437716D01*
X-575820Y-58437715D01*
X-570856Y-58434762D01*
X-411881Y-58295345D01*
X-408302Y-58290806D01*
X-406606Y-58289018D01*
X-345205Y-58253374D01*
X-274281Y-58256583D01*
X-226114Y-58286656D01*
X510278Y-59023048D01*
X531661Y-59033943D01*
X548507Y-59044267D01*
X567917Y-59058369D01*
X577348Y-59061433D01*
X577351Y-59061435D01*
X590735Y-59065784D01*
X608996Y-59073348D01*
X619424Y-59078661D01*
X630372Y-59084239D01*
X654069Y-59087992D01*
X673288Y-59092606D01*
X696105Y-59100020D01*
X946081Y-59100020D01*
X1014202Y-59120022D01*
X1035176Y-59136924D01*
X1571556Y-59673303D01*
X1605581Y-59735616D01*
X1607382Y-59745949D01*
X1613670Y-59793709D01*
X1616829Y-59801336D01*
X1616830Y-59801339D01*
X1665979Y-59919996D01*
X1669139Y-59927625D01*
X1757379Y-60042621D01*
X1872375Y-60130861D01*
X2006291Y-60186330D01*
X2150000Y-60205250D01*
X2293709Y-60186330D01*
X2427625Y-60130861D01*
X2542621Y-60042621D01*
X2630861Y-59927625D01*
X2686330Y-59793709D01*
X2705250Y-59650000D01*
X2686330Y-59506291D01*
X2630861Y-59372375D01*
X2542621Y-59257379D01*
X2427625Y-59169139D01*
X2419996Y-59165979D01*
X2301339Y-59116830D01*
X2301336Y-59116829D01*
X2293709Y-59113670D01*
X2245952Y-59107383D01*
X2181025Y-59078661D01*
X2173303Y-59071556D01*
X1797519Y-58695772D01*
X1763493Y-58633460D01*
X1768558Y-58562645D01*
X1811105Y-58505809D01*
X1822191Y-58498392D01*
X1924179Y-58437716D01*
X1924180Y-58437715D01*
X1929144Y-58434762D01*
X2088119Y-58295345D01*
X2219024Y-58129292D01*
X2230049Y-58108338D01*
X2293219Y-57988270D01*
X2317477Y-57942164D01*
X2380180Y-57740227D01*
X2382056Y-57740809D01*
X2411599Y-57686094D01*
X2473751Y-57651776D01*
X2544590Y-57656508D01*
X2601625Y-57698786D01*
X2622382Y-57740568D01*
X2671314Y-57914069D01*
X2673867Y-57919247D01*
X2673869Y-57919251D01*
X2760289Y-58094492D01*
X2764835Y-58103710D01*
X2768291Y-58108338D01*
X2878991Y-58256583D01*
X2891349Y-58273133D01*
X3046619Y-58416663D01*
X3225446Y-58529495D01*
X3421840Y-58607848D01*
X3427497Y-58608973D01*
X3427503Y-58608975D01*
X3623558Y-58647972D01*
X3623560Y-58647972D01*
X3629225Y-58649099D01*
X3635000Y-58649175D01*
X3635004Y-58649175D01*
X3741024Y-58650563D01*
X3840654Y-58651867D01*
X3856321Y-58649175D01*
X4043350Y-58617038D01*
X4043351Y-58617038D01*
X4049047Y-58616059D01*
X4143013Y-58581393D01*
X4221939Y-58552276D01*
X4292773Y-58547464D01*
X4354645Y-58581393D01*
X5487595Y-59714343D01*
X5521621Y-59776655D01*
X5524500Y-59803438D01*
X5524500Y-61255989D01*
X5504498Y-61324110D01*
X5487595Y-61345084D01*
X5485421Y-61347258D01*
X5477850Y-61352850D01*
X5472258Y-61360421D01*
X5402959Y-61454243D01*
X5402958Y-61454246D01*
X5397366Y-61461816D01*
X5352481Y-61589631D01*
X5349500Y-61621166D01*
X5349500Y-62773020D01*
X5329498Y-62841141D01*
X5275842Y-62887634D01*
X5223500Y-62899020D01*
X5176500Y-62899020D01*
X5108379Y-62879018D01*
X5061886Y-62825362D01*
X5050500Y-62773020D01*
X5050500Y-61621166D01*
X5047519Y-61589631D01*
X5002634Y-61461816D01*
X4997042Y-61454246D01*
X4997041Y-61454243D01*
X4927742Y-61360421D01*
X4922150Y-61352850D01*
X4896493Y-61333899D01*
X4820757Y-61277959D01*
X4820754Y-61277958D01*
X4813184Y-61272366D01*
X4685369Y-61227481D01*
X4677723Y-61226758D01*
X4677722Y-61226758D01*
X4671752Y-61226194D01*
X4653834Y-61224500D01*
X4246166Y-61224500D01*
X4228248Y-61226194D01*
X4222278Y-61226758D01*
X4222277Y-61226758D01*
X4214631Y-61227481D01*
X4207382Y-61230026D01*
X4207380Y-61230027D01*
X4189212Y-61236407D01*
X4118312Y-61240106D01*
X4058368Y-61206620D01*
X3603220Y-60751472D01*
X3581837Y-60740577D01*
X3564991Y-60730253D01*
X3553604Y-60721980D01*
X3545581Y-60716151D01*
X3536150Y-60713087D01*
X3536147Y-60713085D01*
X3522763Y-60708736D01*
X3504502Y-60701172D01*
X3491964Y-60694784D01*
X3491963Y-60694784D01*
X3483126Y-60690281D01*
X3459429Y-60686528D01*
X3440210Y-60681914D01*
X3417393Y-60674500D01*
X2132607Y-60674500D01*
X2109790Y-60681914D01*
X2090571Y-60686528D01*
X2066874Y-60690281D01*
X2058037Y-60694784D01*
X2058036Y-60694784D01*
X2045498Y-60701172D01*
X2027237Y-60708736D01*
X2013851Y-60713086D01*
X2013850Y-60713087D01*
X2004419Y-60716151D01*
X1996399Y-60721978D01*
X1996397Y-60721979D01*
X1985012Y-60730251D01*
X1968157Y-60740580D01*
X1955612Y-60746972D01*
X1951192Y-60749224D01*
X1881415Y-60762327D01*
X1815631Y-60735625D01*
X1777583Y-60685173D01*
X1734023Y-60580007D01*
X1734020Y-60580002D01*
X1730861Y-60572375D01*
X1642621Y-60457379D01*
X1527625Y-60369139D01*
X1393709Y-60313670D01*
X1250000Y-60294750D01*
X1106291Y-60313670D01*
X972375Y-60369139D01*
X965825Y-60374165D01*
X934161Y-60398462D01*
X867940Y-60424063D01*
X857456Y-60424500D01*
X607607Y-60424500D01*
X584790Y-60431914D01*
X565571Y-60436528D01*
X541874Y-60440281D01*
X533037Y-60444784D01*
X533036Y-60444784D01*
X520498Y-60451172D01*
X502237Y-60458736D01*
X488853Y-60463085D01*
X488850Y-60463087D01*
X479419Y-60466151D01*
X471396Y-60471980D01*
X460009Y-60480253D01*
X443163Y-60490577D01*
X421780Y-60501472D01*
X-364343Y-61287595D01*
X-426655Y-61321621D01*
X-453438Y-61324500D01*
X-811038Y-61324501D01*
X-840828Y-61324501D01*
X-844585Y-61324956D01*
X-844591Y-61324956D01*
X-914126Y-61333370D01*
X-926528Y-61334871D01*
X-934051Y-61337849D01*
X-934053Y-61337850D01*
X-944686Y-61342060D01*
X-1015386Y-61348538D01*
X-1078366Y-61315764D01*
X-1093332Y-61296658D01*
X-1093718Y-61296954D01*
X-1176932Y-61188508D01*
X-1181958Y-61181958D01*
X-1296954Y-61093718D01*
X-1430870Y-61038249D01*
X-1574579Y-61019329D01*
X-1579508Y-61019978D01*
X-1646167Y-61000405D01*
X-1667141Y-60983502D01*
X-1834171Y-60816472D01*
X-1855554Y-60805577D01*
X-1872400Y-60795253D01*
X-1883787Y-60786980D01*
X-1891810Y-60781151D01*
X-1901241Y-60778087D01*
X-1901244Y-60778085D01*
X-1914628Y-60773736D01*
X-1932889Y-60766172D01*
X-1945427Y-60759784D01*
X-1945428Y-60759784D01*
X-1954265Y-60755281D01*
X-1977962Y-60751528D01*
X-1997181Y-60746914D01*
X-2019998Y-60739500D01*
X-3920002Y-60739500D01*
X-3942819Y-60746914D01*
X-3962038Y-60751528D01*
X-3985735Y-60755281D01*
X-3994572Y-60759784D01*
X-3994573Y-60759784D01*
X-4007111Y-60766172D01*
X-4025372Y-60773736D01*
X-4038756Y-60778085D01*
X-4038759Y-60778087D01*
X-4048190Y-60781151D01*
X-4056213Y-60786980D01*
X-4067600Y-60795253D01*
X-4084446Y-60805577D01*
X-4105829Y-60816472D01*
X-4441952Y-61152595D01*
X-4504264Y-61186621D01*
X-4531047Y-61189500D01*
X-4672638Y-61189500D01*
X-4690597Y-61191198D01*
X-4695827Y-61191692D01*
X-4695828Y-61191692D01*
X-4703474Y-61192415D01*
X-4710721Y-61194960D01*
X-4819563Y-61233182D01*
X-4819565Y-61233183D01*
X-4828452Y-61236304D01*
X-4934999Y-61315001D01*
X-5013696Y-61421548D01*
X-5057585Y-61546526D01*
X-5060500Y-61577362D01*
X-5060500Y-62022638D01*
X-5057585Y-62053474D01*
X-5055041Y-62060718D01*
X-5055039Y-62060725D01*
X-5017576Y-62167404D01*
X-5013877Y-62238304D01*
X-5049096Y-62299949D01*
X-5112053Y-62332767D01*
X-5117358Y-62333610D01*
X-5118497Y-62333899D01*
X-5126528Y-62334871D01*
X-5134051Y-62337849D01*
X-5134053Y-62337850D01*
X-5204749Y-62365841D01*
X-5260395Y-62387872D01*
X-5375078Y-62474922D01*
X-5380270Y-62481762D01*
X-5449638Y-62573150D01*
X-5506756Y-62615317D01*
X-5577604Y-62619909D01*
X-5639688Y-62585469D01*
X-5650362Y-62573150D01*
X-5719730Y-62481762D01*
X-5724922Y-62474922D01*
X-5839605Y-62387872D01*
X-5973472Y-62334871D01*
X-5981507Y-62333899D01*
X-5989349Y-62331907D01*
X-5988833Y-62329875D01*
X-6043899Y-62306204D01*
X-6083612Y-62247353D01*
X-6085203Y-62176374D01*
X-6082425Y-62167405D01*
X-6082424Y-62167404D01*
X-6042415Y-62053474D01*
X-6039500Y-62022638D01*
X-6039500Y-61577362D01*
X-6042415Y-61546526D01*
X-6086304Y-61421548D01*
X-6165001Y-61315001D01*
X-6163376Y-61313801D01*
X-6191621Y-61262075D01*
X-6194500Y-61235292D01*
X-6194500Y-60612607D01*
X-6197563Y-60603180D01*
X-6197564Y-60603173D01*
X-6201913Y-60589788D01*
X-6206527Y-60570569D01*
X-6208728Y-60556672D01*
X-6208730Y-60556665D01*
X-6210281Y-60546874D01*
X-6221173Y-60525498D01*
X-6228736Y-60507237D01*
X-6230609Y-60501472D01*
X-6236150Y-60484419D01*
X-6250251Y-60465011D01*
X-6260583Y-60448152D01*
X-6266969Y-60435618D01*
X-6271472Y-60426780D01*
X-6646780Y-60051472D01*
X-6668163Y-60040577D01*
X-6685009Y-60030253D01*
X-6696396Y-60021980D01*
X-6704419Y-60016151D01*
X-6713850Y-60013087D01*
X-6713853Y-60013085D01*
X-6727237Y-60008736D01*
X-6745498Y-60001172D01*
X-6758036Y-59994784D01*
X-6758037Y-59994784D01*
X-6766874Y-59990281D01*
X-6790571Y-59986528D01*
X-6809790Y-59981914D01*
X-6832607Y-59974500D01*
X-7271562Y-59974500D01*
X-7339683Y-59954498D01*
X-7360657Y-59937595D01*
X-7537595Y-59760657D01*
X-7571621Y-59698345D01*
X-7574500Y-59671562D01*
X-7574500Y-58751655D01*
X-7554498Y-58683534D01*
X-7500842Y-58637041D01*
X-7430568Y-58626937D01*
X-7365988Y-58656431D01*
X-7359482Y-58662483D01*
X-7328176Y-58693735D01*
X-7316760Y-58702751D01*
X-7178757Y-58787816D01*
X-7165576Y-58793963D01*
X-7011290Y-58845138D01*
X-6997914Y-58848005D01*
X-6903562Y-58857672D01*
X-6897146Y-58858000D01*
X-6522115Y-58858000D01*
X-6506876Y-58853525D01*
X-6505671Y-58852135D01*
X-6504000Y-58844452D01*
X-6504000Y-57247000D01*
X-6483998Y-57178879D01*
X-6430342Y-57132386D01*
X-6378000Y-57121000D01*
X-6122000Y-57121000D01*
X-6053879Y-57141002D01*
G37*
%TD.AperFunction*%
%TA.AperFunction,Conductor*%
G36*
X-2247708Y-61610502D02*
G01*
X-2226734Y-61627405D01*
X-2204327Y-61649812D01*
X-2170301Y-61712124D01*
X-2175366Y-61782939D01*
X-2217913Y-61839775D01*
X-2258268Y-61859904D01*
X-2321786Y-61878358D01*
X-2336220Y-61884604D01*
X-2463499Y-61959876D01*
X-2475926Y-61969516D01*
X-2561428Y-62055018D01*
X-2623740Y-62089044D01*
X-2694555Y-62083979D01*
X-2735061Y-62057744D01*
X-2749513Y-62054000D01*
X-3648000Y-62054000D01*
X-3716121Y-62033998D01*
X-3762614Y-61980342D01*
X-3774000Y-61928000D01*
X-3774000Y-61740329D01*
X-3753998Y-61672208D01*
X-3737095Y-61651234D01*
X-3713266Y-61627405D01*
X-3650954Y-61593379D01*
X-3624171Y-61590500D01*
X-2315829Y-61590500D01*
X-2247708Y-61610502D01*
G37*
%TD.AperFunction*%
%TA.AperFunction,Conductor*%
G36*
X-8191488Y-60310714D02*
G01*
X-8184905Y-60316843D01*
X-7753220Y-60748528D01*
X-7744384Y-60753030D01*
X-7740357Y-60755956D01*
X-7697004Y-60812178D01*
X-7690929Y-60882914D01*
X-7724061Y-60945706D01*
X-7785881Y-60980617D01*
X-7804536Y-60983503D01*
X-7815755Y-60984386D01*
X-7828359Y-60986688D01*
X-7971784Y-61028357D01*
X-7986220Y-61034604D01*
X-8113499Y-61109876D01*
X-8125926Y-61119516D01*
X-8184905Y-61178495D01*
X-8247217Y-61212521D01*
X-8318032Y-61207456D01*
X-8374868Y-61164909D01*
X-8399679Y-61098389D01*
X-8400000Y-61089400D01*
X-8400000Y-60405938D01*
X-8379998Y-60337817D01*
X-8326342Y-60291324D01*
X-8256068Y-60281220D01*
X-8191488Y-60310714D01*
G37*
%TD.AperFunction*%
%TD*%
M02*
