%TF.GenerationSoftware,KiCad,Pcbnew,(6.0.0)*%
%TF.CreationDate,2022-08-06T00:01:37+02:00*%
%TF.ProjectId,bobby-flasher,626f6262-792d-4666-9c61-736865722e6b,rev?*%
%TF.SameCoordinates,Original*%
%TF.FileFunction,Paste,Top*%
%TF.FilePolarity,Positive*%
%FSLAX46Y46*%
G04 Gerber Fmt 4.6, Leading zero omitted, Abs format (unit mm)*
G04 Created by KiCad (PCBNEW (6.0.0)) date 2022-08-06 00:01:37*
%MOMM*%
%LPD*%
G01*
G04 APERTURE LIST*
G04 Aperture macros list*
%AMRoundRect*
0 Rectangle with rounded corners*
0 $1 Rounding radius*
0 $2 $3 $4 $5 $6 $7 $8 $9 X,Y pos of 4 corners*
0 Add a 4 corners polygon primitive as box body*
4,1,4,$2,$3,$4,$5,$6,$7,$8,$9,$2,$3,0*
0 Add four circle primitives for the rounded corners*
1,1,$1+$1,$2,$3*
1,1,$1+$1,$4,$5*
1,1,$1+$1,$6,$7*
1,1,$1+$1,$8,$9*
0 Add four rect primitives between the rounded corners*
20,1,$1+$1,$2,$3,$4,$5,0*
20,1,$1+$1,$4,$5,$6,$7,0*
20,1,$1+$1,$6,$7,$8,$9,0*
20,1,$1+$1,$8,$9,$2,$3,0*%
G04 Aperture macros list end*
%ADD10RoundRect,0.150000X-0.150000X0.587500X-0.150000X-0.587500X0.150000X-0.587500X0.150000X0.587500X0*%
%ADD11RoundRect,0.225000X0.225000X0.250000X-0.225000X0.250000X-0.225000X-0.250000X0.225000X-0.250000X0*%
%ADD12RoundRect,0.135000X-0.185000X0.135000X-0.185000X-0.135000X0.185000X-0.135000X0.185000X0.135000X0*%
%ADD13R,1.500000X2.000000*%
%ADD14R,3.800000X2.000000*%
%ADD15RoundRect,0.140000X-0.140000X-0.170000X0.140000X-0.170000X0.140000X0.170000X-0.140000X0.170000X0*%
%ADD16RoundRect,0.150000X0.150000X-0.825000X0.150000X0.825000X-0.150000X0.825000X-0.150000X-0.825000X0*%
%ADD17RoundRect,0.218750X0.256250X-0.218750X0.256250X0.218750X-0.256250X0.218750X-0.256250X-0.218750X0*%
%ADD18RoundRect,0.225000X-0.225000X-0.250000X0.225000X-0.250000X0.225000X0.250000X-0.225000X0.250000X0*%
%ADD19RoundRect,0.135000X0.135000X0.185000X-0.135000X0.185000X-0.135000X-0.185000X0.135000X-0.185000X0*%
%ADD20O,1.000000X2.100000*%
%ADD21O,1.000000X1.800000*%
%ADD22R,0.600000X1.150000*%
%ADD23R,0.300000X1.150000*%
%ADD24RoundRect,0.140000X-0.170000X0.140000X-0.170000X-0.140000X0.170000X-0.140000X0.170000X0.140000X0*%
%ADD25RoundRect,0.140000X0.140000X0.170000X-0.140000X0.170000X-0.140000X-0.170000X0.140000X-0.170000X0*%
%ADD26RoundRect,0.135000X-0.135000X-0.185000X0.135000X-0.185000X0.135000X0.185000X-0.135000X0.185000X0*%
G04 APERTURE END LIST*
D10*
%TO.C,Q2*%
X7850000Y-62262500D03*
X5950000Y-62262500D03*
X6900000Y-64137500D03*
%TD*%
%TO.C,Q1*%
X4450000Y-62262500D03*
X2550000Y-62262500D03*
X3500000Y-64137500D03*
%TD*%
D11*
%TO.C,C8*%
X975000Y-62100000D03*
X-575000Y-62100000D03*
%TD*%
D12*
%TO.C,R6*%
X-7000000Y-73690000D03*
X-7000000Y-74710000D03*
%TD*%
%TO.C,R2*%
X7000000Y-73690000D03*
X7000000Y-74710000D03*
%TD*%
D13*
%TO.C,U2*%
X-2900000Y-65350000D03*
X-5200000Y-65350000D03*
D14*
X-5200000Y-71650000D03*
D13*
X-7500000Y-65350000D03*
%TD*%
D15*
%TO.C,C3*%
X3170000Y-73600000D03*
X4130000Y-73600000D03*
%TD*%
D16*
%TO.C,U1*%
X-1045000Y-71675000D03*
X225000Y-71675000D03*
X1495000Y-71675000D03*
X2765000Y-71675000D03*
X4035000Y-71675000D03*
X5305000Y-71675000D03*
X6575000Y-71675000D03*
X7845000Y-71675000D03*
X7845000Y-66725000D03*
X6575000Y-66725000D03*
X5305000Y-66725000D03*
X4035000Y-66725000D03*
X2765000Y-66725000D03*
X1495000Y-66725000D03*
X225000Y-66725000D03*
X-1045000Y-66725000D03*
%TD*%
D12*
%TO.C,R8*%
X6000000Y-73690000D03*
X6000000Y-74710000D03*
%TD*%
D17*
%TO.C,D3*%
X6100000Y-80175000D03*
X6100000Y-78600000D03*
%TD*%
D18*
%TO.C,C2*%
X-7875000Y-63100000D03*
X-6325000Y-63100000D03*
%TD*%
D19*
%TO.C,R3*%
X2260000Y-73600000D03*
X1240000Y-73600000D03*
%TD*%
D15*
%TO.C,C1*%
X-7580000Y-61800000D03*
X-6620000Y-61800000D03*
%TD*%
D18*
%TO.C,C5*%
X-4775000Y-63100000D03*
X-3225000Y-63100000D03*
%TD*%
D17*
%TO.C,D1*%
X-6100000Y-80187500D03*
X-6100000Y-78612500D03*
%TD*%
D12*
%TO.C,R9*%
X8000000Y-73690000D03*
X8000000Y-74710000D03*
%TD*%
D20*
%TO.C,USBC1*%
X-4320000Y-75590000D03*
D21*
X-4320000Y-79770000D03*
X4320000Y-79770000D03*
D20*
X4320000Y-75590000D03*
D22*
X-3200000Y-75030000D03*
X-2400000Y-75030000D03*
D23*
X-1250000Y-75030000D03*
X-250000Y-75030000D03*
X250000Y-75030000D03*
X1250000Y-75030000D03*
D22*
X3200000Y-75030000D03*
X2400000Y-75030000D03*
D23*
X1750000Y-75030000D03*
X750000Y-75030000D03*
X-750000Y-75030000D03*
X-1750000Y-75030000D03*
%TD*%
D19*
%TO.C,R5*%
X5720000Y-64800000D03*
X4700000Y-64800000D03*
%TD*%
D24*
%TO.C,C4*%
X-1900000Y-62620000D03*
X-1900000Y-63580000D03*
%TD*%
D17*
%TO.C,D2*%
X-7700000Y-80187500D03*
X-7700000Y-78612500D03*
%TD*%
D18*
%TO.C,C7*%
X975000Y-63600000D03*
X-575000Y-63600000D03*
%TD*%
D25*
%TO.C,C6*%
X-3520000Y-61800000D03*
X-4480000Y-61800000D03*
%TD*%
D26*
%TO.C,R4*%
X1290000Y-64800000D03*
X2310000Y-64800000D03*
%TD*%
D17*
%TO.C,D4*%
X7700000Y-80187500D03*
X7700000Y-78612500D03*
%TD*%
D12*
%TO.C,R7*%
X-8000000Y-73690000D03*
X-8000000Y-74710000D03*
%TD*%
%TO.C,R1*%
X-6000000Y-73690000D03*
X-6000000Y-74710000D03*
%TD*%
M02*
